<mxfile host="app.diagrams.net" modified="2023-06-30T02:12:14.723Z" agent="Mozilla/5.0 (Windows NT 10.0; Win64; x64) AppleWebKit/537.36 (KHTML, like Gecko) Chrome/114.0.0.0 Safari/537.36" etag="LriLOKKRM55zmR2xKsZ0" version="21.5.0" type="device">
  <diagram name="Page-1" id="52a04d89-c75d-2922-d76d-85b35f80e030">
    <mxGraphModel dx="2091" dy="865" grid="1" gridSize="10" guides="1" tooltips="1" connect="1" arrows="1" fold="1" page="1" pageScale="1" pageWidth="1100" pageHeight="850" background="none" math="0" shadow="0">
      <root>
        <mxCell id="0" />
        <mxCell id="1" parent="0" />
        <mxCell id="odeWDLO1GaSnZR0GTPzi-38" value="" style="rounded=0;whiteSpace=wrap;html=1;" vertex="1" parent="1">
          <mxGeometry x="40" y="120" width="1030" height="670" as="geometry" />
        </mxCell>
        <mxCell id="odeWDLO1GaSnZR0GTPzi-40" value="" style="rounded=0;whiteSpace=wrap;html=1;" vertex="1" parent="1">
          <mxGeometry x="100.97" y="140" width="460" height="280" as="geometry" />
        </mxCell>
        <mxCell id="odeWDLO1GaSnZR0GTPzi-39" value="" style="rounded=0;whiteSpace=wrap;html=1;" vertex="1" parent="1">
          <mxGeometry x="100" y="440" width="460" height="240" as="geometry" />
        </mxCell>
        <mxCell id="odeWDLO1GaSnZR0GTPzi-20" style="edgeStyle=orthogonalEdgeStyle;rounded=0;orthogonalLoop=1;jettySize=auto;html=1;entryX=0.5;entryY=1;entryDx=0;entryDy=0;exitX=1;exitY=0.5;exitDx=0;exitDy=0;" edge="1" parent="1" source="odeWDLO1GaSnZR0GTPzi-1" target="odeWDLO1GaSnZR0GTPzi-19">
          <mxGeometry relative="1" as="geometry">
            <mxPoint x="357.7199999999999" y="389.9999999999998" as="sourcePoint" />
          </mxGeometry>
        </mxCell>
        <mxCell id="odeWDLO1GaSnZR0GTPzi-1" value="" style="shape=image;verticalLabelPosition=bottom;labelBackgroundColor=default;verticalAlign=top;aspect=fixed;imageAspect=0;image=data:image/png,iVBORw0KGgoAAAANSUhEUgAAARUAAABOCAYAAAAO0IJiAAAAAXNSR0IArs4c6QAAAARnQU1BAACxjwv8YQUAAAAJcEhZcwAAEnQAABJ0Ad5mH3gAACzhSURBVHhe7X0HfJXl2f4dyJ4kkE3IIiSBhB32FhS1FVTqaq1atXbZ8dX2a/vZr9ryaX+t429brbPWDSgyBAQZAgkEQiAhISGLkL13SAhJIP/res55w8khQdQTCvyey98rOe95x7Pu6x7P/TzHrgcQDQ0NDRthiPlfDQ0NDZtAk4qGhoZNoUlFQ0PDptCkoqGhYVNoUtHQ0LApNKloaGjYFJpUNDQ0bApNKhoaGjaFJhUNDQ2bQpOKhoaGTaFJRUNDw6bQpKKhoWFTaFLR0NCwKTSpaGho2BSaVDQ0NGwKTSoaGho2hU02aboatnmyszP/oaGhMaiwCankVTRc0ULLGg5zdZIRXq4yRLOLhsag4muTCu92WPGMBPu4mc9ceahv7ZAfLBgnT9y3QNxdHM1nNTQ0BgM2IZWxP3pVDj93v1ypNsAf3twtzs728uu752hS0dAYZNgkUEsycXV2EBcI7JV4DBmiXR4NjcsFPfujoaFhU2hS0dDQsCmuCFI519MjXd1npb2jS1raz0hzW4e0tJ2RU6c75UxXt5w9d06+VuBHQ0PjssEmgdpxP3pVsl96GE+79NgFX3um66w0gUBqGtukoqFVyutOSX1TmyKSoUOHiJe7swQN91BHgLe7+Hi6iKuTvQwd8uW48DevbBdHh6E6UKuhcRlw2UlFkUlnNwikRY6cqJJPDxfKZ+nFUgEy6bcguN4LRDAjKlC+kRAps8aGSGTgMPFwdZIhl0gumlQ0NC4fLqv7QzemuvGUbDqQJz+DoN/13GZ5c3e2lA9EKASIqhlu0bbMEnn0jc/lvuc2yWufpkleWb0ip0vC16JNDQ2NL4PLZqkwZlJQUS/v7DwmL36aLi1nuszffHlwhnj5lEj50c2TZFrMSHGH1XIxG+nLWCpsjnaWzaJV7FAvTks72A/p1/XqPntOOuGy8ToH+6FiD9fNwLlzPdKJuhOO+M6Y3lYWG9w/fu/kOFQ9l3/T9SOcHO17s395vgME2oP/XBwdBpwiJ2mTaPks3m/gHM6fPmM67wz3kWCZByJlPp9lpQtqgM8+jXZp7zDdo1IILuKK8lqW2x5t5mhv32do9PScQxvjORZtbGrfvm1ngJed7UZ56Rab63aRoaZgtPtZ1JP1sGx7nuN3qnz4zgFjwzLTmn3D9ub3fJd1mTiWO9F3Q4faiTP6YyDw/tOdXerZTg7oT7yf51Qfo1KqvmgfA6ZxhOea24LXG7FGlofji23u6uTQp29U3BH3OuId/ZW1C21H8F4+Y7BxWUiFFTtWWC3PrUuR9/blSM8A19mjEf2HuakYCoO1pXWt0oFG5nkGc8+iQ3qBPxPCfeWxW6fJ0oTR4unmbP7iQnwZUmnr6JTVu7Pw/PNltEM/sSND/b0kPsxX3FyczN+YBk5+eb3szypVAj8+wk/GhvmZvxWpgWV2JL9KDa6pYwIlxNdLtROFLgnWVw2stIUTwyRohKfUN7fJ3sxSSrAsmhKhYkrsnqyTNZJ2olrcQD5Lp0dBoC+sA6/ju7YcOiHDcd83Zkb3ChHPb9qfJ4EjPGTptNHqXFF1k+xKK+6XjEd4usjkqAAZ6YeyAq3tZ+R4Sa1yV09WNKo+jwzykam4JmYU26NveViWDftzpaGlA/3pKosmh2NAnxe+M11d8v6uLAG39MIRdeO1E8L9xc/H3XzWBLbVMbRB5sla8fN2k4UTQi94pzVqVbtXSnl9m3h7OMvUaHPbA/mwco+iPVvaOyUcfToF31mOn6bW07Iz7STGYKdMjwmUaNTRUlhzTlZJUnaFhAd4yXXoJ3So6QsLkIRLqpvl86NF4oGyzogNlhC/YdJ86rQcyUW5GtskOsRHpsCtpxtPkssuqpV0tHFkoLdq/zYQbwbKeRSyU1HfqsoQhvJOGh0oY0NHqBAA352YWaz6ZU78KAkLGNaHcPYfK5F8fEeRu31O7Be2my0w9AnA/PdXxkubD8uPb57SL6mQffNK6+TpNfvlfQxsmhlkYhewqiMqz3/PoEGJUJDJz/Gc//vOXIkfNUJOVDbKKQwoXwwKxeJmxlXAqyqa2qWgtF5CICyj0NjURv1hx+FC1dCz0egkl4uhFs9c+Lv3ZXNaIQZelezJKpEd6SdlDchwb1aZhPt5SvTI4b2M3wYt8gFI6Mev7JDtGcXi6eoo8/Ee43sKw1Mf7peXtx2VABBmHAiH5WxuOyO/e3uPvLotXRZASCICvEFOjfLT13fKniOFctP0MSowfaKiQX7+6mfy2mcZ4uE0VBZjEFPzW4OCnlVYI7c8vU4SQXBLJ4UpAeT5zMJaWfbkGikHad2/ZLzS/DuPFsu9z2+SbajbXly/A4PfOEpqWyQ2ZIREYHC3g2Q/Sy2U372zRz5IzJFiDO6c8gb5GC5sOsiSyzNCfD2VZjXQ2HJa7n1hs7yxM1N2ox3vWjBOhoHoDLSd7pS5v31fNoAAU/IqZBeEYuPBfPV8Z4yNqWOC+vRTaW2z/Pbfu+WZjYfkOMbSlMgACKiJIAYCifjpNcny3KbDsgfPj0Jd4sP9VL+8iTb/3w+S5L3E43IG/Tc9Oght7aruozW4PfWE6od392ZLN8bmPPQnFYaB9bjvkde2gxzPygoIan9oRf++jvf8/I1dknS8THzRl9PwnlbU/WMQ7m/f3SvVaKeF8SBIKInCyib568cH5G8obxBIdWzIcFmN9//+3UTZDuVT2tAqmSV1si6lQFJzK8TPy0WNeSe00xPvJ8pfPjwgU0E2YzA2DeuHyvwnL22TFzYfwTvzZPn00RIIGRtsa6WvrWRjUGMxhvLKp2myKjnf5LcAPtAKk0EasWiUOdDeCrh2QqifLJ85BhrVUwnanLEjJdLXAxaJn/goVr4Q6bASXvjksKQXVKlG7BeUoksE29sO5eQge+Jbs+RPd82WXy+fJvPjRkkOSO71XcdUvQxUQsgyi2vFB1rWE+RXVNsKi6Pd/C3AKuN5jRhMGyFERzHYaXWxKfgeU5vw4LtNn+2US9Gjnv3nD5PlAMhiKbT9yu8txgDsvx0U1P1DpA4D+k/vJymz2XQeh3qXRXercyJRQd7yoxsnyY+Wnj9WwMoJQR+w3VKOl8vzG1OlpP6U3IZB+dQ9c+Wpb8+V22aMkRyQz/MbUiUPJGO0iLJSknOlHgITDq1Zh3pX4l5q7j4AydPt+9XyBPnlsqly38Kx4u7mJC9sTVdWnwE+rxbPSgL50Nopazgl6/blKnP/YmD12J6uzvbShDKUoi3p7tGyLIIF3I3n9utGoSLrQZiNaENaAmuT82BNtvfpc/QQ/jcE9w4sPk3tHbIR5OSAd3Tjndtg+dCt9oViobVIizcLJLED50+DuPehzjuhlOaMC5Fv4vvjUJZrQD7tuPeeOTHy1+/Okz/eNUuWTYuSeliOibBA6ptPm7qc/4MrpupiUZ+iqkbJwHN8uZAWpP/JgXylnAcbg0oqNFu3HT4hL23PNA1qM3w9XGRB7EiZAK09ZXRAbzs0oiPK0Pm8j9PMdRhMLRCMcaG+YNkomYSOCILw0sI5DzvZm1Mh78FaoBBa9P3XgJ1yk26bP1buvn68PPzNKfIgNTw6pAvH2bOml3CA5sCU3g1NOBPkuHxqJKyCakmGIPYBLvfGAD0MU5YauRZ1Y3PY8QtV4AsLTW3/6pYjsvZggcyAhnv+kSXKHfoicIC5Qlh3Qwi3wUKjMCghuPAVChzc/wvL8H/vPX88fPMkGQPTnHGiLXhGUnaZLIeL+eR35skdsDruWBAnzz64SO6YEaXiEWwTy4Z/F5q8DsT6s6UTZfgwd9kIIWWfWsMdGvVnt8+QX4K8n/reIlkBYaLJv4bupxmMJeSXNaBeQ2RmpD8s26GSXlyj3IhLQWygj0T6D5MaCCCtw0a4NlUo2zi4b4EQNms0tnZIVkWTDIPFuSAmCFb0OckqqjHV8RJBAq0AkeZXNUkMSHt6hD+srVbJh5VFjAn2kbvnjZVKEOTHEPQDsGS2g1zo3i+CVTQWyrUSypjfj8X9y9DOi6dEyt3XxctfH1ggj98+XR5YMgHWGoh/ALDft0KJ0TK6f16ssvZJcrQ8BxuDRioUuEI06oswvQwtxQFPvzkB/uKU0f5y+6wx0oXv1HDEd2nQ4n+H1fE+BtVLuG8XzL786hZJR2dEB3vLTRPDJAoDxNnahYHMfJCUg8FfqmIXtgC1yhYQ4gZ0Os3V7XAX6E6QPBwcTM3WfqZTCmC9NME3j4W5Ss1cWN2EelSj/n0H4RQIbxwG08dwo3ZlFKngmbJMDEa1QCcG8Jqk4/JPuDyc+aJl4A/h7OfSC+AAjTUBbeUCq+T3sFZKa5pNGkyBLd33KeUgYgr9RtSTxyf4OxtCy0HJaf8KDG4+Mw4+fCjqx75kvItP+hasyuceWCjxEALDpGaMqB7CGwiNvBAumLuzg7wBN4BxigthJx2oHwmn9XSXegZblvcYoDu6CuMhEG3/A1hRC2JDpA6CnwHr7VIQhbaICBwGq6BWTmI80qIthavBmBBjLdZkuwfuYBWEeRkUxAMQYg9Y1VQE/ZHiQKBLvOPISaX87pkbK4snhUstyvw5LBG2qxeeOT8uRGZGByorl5bgHlgqC8xWCicEhnu4ynBYyxxL/4Z1TKXJ/imDlXUzXOMJcHXshw7sypMEt8OVPQvrndfPgkuZDYsyB9aRpdU1GBg0UqFQfgYtd6So1nyGFi8GZ/BweeyWBLlxVozEwjduwgA0QKvkQzTcQy9ulWc/SZWTMK8pnOuhrX/51h55Bv7mXviTvM4aNHFX7cmWMtzz9dGjNO1jb+yUn/7zM/nFazvlrc+PiR8EJSEiQBEmQbP+CAbpqBEeMhOdHOrrqQbMiepmuH1t6hoDvt7usmR8qIrQb0R9ToJ8FPrp3xpYbH/fkibtnDnA59T8StOMwSXCE27CD5dOkAoIx6t4TvdZuIVK5vk/yxfaSTLa8/7nN5uPTXL/c5tkzd4cJeBUCidRFwYa6ffz+kZofAZhX0Rf7M4qA/nlqqCvMVBJwLQyvw1hCob/HubjJg0gjJKaFisXyE7OYOC/h3Z9e0eGvAq3583PsyTYx11WwBoi+Mg6kNHe3HLxRBnmQ6nckBApxSDKjQfzTPX6AtBOo9VJizKnrE7FcKpApHyeo5VQsg4bDxXAQm6X+XC/r5sSDnfFRdanFCiyvFRhZFb4BjzHE9bpzSgvA8EdXV2yE0ry1GnTeB8DUrtjdozUo36fgIBcQKTXg4TDA73RNHYyGRb87QwFYNxsgIXxw1d2yLfRP4++vF1ehGxkQgFzpmggnCivk0y4PlR04SDVm0GSjHuth2tqjN/BwqCQCtu+Hh3zLoTcQk0q9syDZv9gT5bsAouyYxnN7gNeznss7iNOowFpinJGwwlMzki41SWyF27HiYrG/mMrVtdeFHgwB8SD0FSP3DBBHoapyU6pgZD+HcJ0EnWggOSW16MexTLS10uZtAEwpyeH+6kA78Gcsj6DkHWnQNwCTbQX/vCnGCgtpzrM31oWzg4+c6cSLloCHhhs/7d6PzRUyyUNal7hAGG5a2GcCnYzOM4YhTETZI1QmNB3zo81H2PVwRksvorEwjZm/IEH0QaCOADBpND8fWua/GltsuRWNKjre9AmH0Or14CQp8cGqxjGkvgwcYMrsRpjoYPTyL3okVPo05Wr9snv39krf1i1X8VYHrwuTmbANSY6QKoMuHZBCPw9XSAMoqbEaclllzUqV2UgqLGBg2NhJJQBrVu6JAUgSQbA+TzDujLA2becqmYh1Xih/zl9HgZi5NjjbNGlxCM4LqjYctAmnug7DxcnsUPbjEJ/luH9tBQIksg0WL0Lx44Ue5RjZnSw3AAXx0jo9Mf1379hojx55yzVJitmR8sMWBsMtj+9LkVeWJ+iAtgDgQqdyndmVKCKrTGE4ACZYVyvDRb2YGJQSIVBtAL4wekWVooBBsye3nBInsNxGpWNChqu/D1LsDMCPFzEzdFeXMCu3iCf0Rj8NOHmoPEno4FmwYXibBGnmw00w1rZB4Ft7hVWC5hk4tIACeFsxa/g6z/+7Xmy8v4F8tS98xRhHIPG20rfFJYYZ6cqIUDMBl4N92s9rKyaltNq4GaW1PfRCBQER1gQK2ZFyzgI+7rkPDmOZ5n4pG/h3FHvHywZLyu/M09moJ5VEJ7Ve4/Dtftia4XTtHStAn085Ym7Z0sbrJ5n1x+Sof2ayj0yDYPu1Z/c2Hu88uhNauqRiICrGe7npVwTCjCnPYfDfb0Pg3wlnh0Hl8+y6FVwlRrQ9uz/TRi8dH2Z2EhRfGtnpjRDg1vCGcrh17dOlx/cOFGGwMXyAfk8CAvLmBKltfje55niAEGjVn5xU6oKNnJyowpKi1PGA0FxIA5aMxPRb5zNYmA0Fy7AFIwjkrZyUXuHT498nlak4nIUeFostMYaWzCWIPQfon+Z6/NFoABvSy1UhMrZoTe2H1V9x4nLatTHcIH44lG+wyQBxMI4Eck9wMfD9BCA5WZAf/HkCHn+4SXy75/eJC8+vFgeWBSH69xkK5QyLeL+wFjYzsxStXaOY/O1rUflE9SHqvY4lG4WXCpVhEHCoJAKTXUGnzg9dwHQQcxToS9PUzQKphnJwhI03yPhUsTAihmDxg71dpVwNPj4kcMlNshbRni5SVSAt8yPCRZ/y2Abnrs3uxQD+9KCeAMDZUSr0zdmx3BxY9OpM6rctDg4zU3X51BepZr378R1mw+fUFOjNdAk1IAn4LdzgBqgxqSwjYfLd8u0KDUbVIVnsszWCALJLoNgcxbsJzdNkmFuTvKXdQclt7TuEkzXHvUee3s7pZ1umx4l1RDm7j7B7fOgsJIwGMA0jiZ8plUR4u+pciYcHYbIfrgg7FMKYVyYv3iD9Km5jT5me62DVcR4RAT67TCsNcak2B/UxC2oP3MpLMvvBnb44bIE+e87Z8skEG0FXKv34QJR2Pm8BpRlH9r4LP6uhHCwjTOKa2WEp6tyzUjuA1kPqlXxv25IM3NR6AYkovxZuJ9WJYPelnlPJONP005KLciKViqD7XzfKWh1exDeJmj+WvStpTByLDRAiRgH40Z0b2jFMUkPtrRsRhmTYLV24wV09fdml6nxpIDy8RoOAc4EGkPBJD/l8veNh+SjxONSDPLgmIpAuadDVnw5/W2+9gKggAUgTsZPXKCciuF2Mm2AfRGI+2gJfQSC7Fc2bYQLEx5sAGq0o0U1qPhANYemAWunFFTJgglhMhcmIAOh7biPqEbnsBFHQpt4OA+BhuhUkXCaj6fB4A3oFPr535gcLj7uLiqRyEBhbauaQfi6YGLUa9vSoUGHqNmefFglu2AFTaCVNCZY5Y98jjKPBdE9unSiKeiHni6BScqg8eGCSknJrZBgkCMHAANm53DQbbsLLkZaYbWs2pdjelkvTB3tYs9MVQ4yO6WpFseNkrXw6/+5JU2e/z6nlS+ewMTgN1ue05c/Wz5NDqKd05XZbTWQ8PxcCPrfNqaaT5gBYZs7bqQsmhQus2OCZGq4v7I8aFkuGh+qLInNKM/RojpVRoKDdPORQqluapcn75gp49FOhsv1Ce59G8Lx9vYMmQzNbF0MZpv+5tZpctcLW+TZDaly66wYtZ8w3chOlGUG3LHHbpumAv3EkcIaefrjA2p2pQHjyDpZjlCvwP9UW9gNUUTUCmVAcudkAfvBMpheC9LKh/D24H2PXD9eYoKZi2T6buXaA5JaUK3yQ0JhvRngmHgBgk/wUlqYXJvGNh3p7SZ/uHOmOOMcUQThfg7tXNHQphIJZ+C6Xli1B4nyEBTuq58dVX2dhvpGjfRR5dmdWYJnNct1GBMhsNQJy9v592dHTiircB5c0O/MHydu5izqSrz70Td3yUYQ5BNQaqbkOdtjUEiFDF44gGlmoAWVyi1vVANlEYiFsyjMhWBiGCvL/AK6Ph6wWnygVYbBN2WiT2tHp5TSzMbgZUdxdsIS9W0mM/2rgsIcBZP/HDrw3zDZ2UuUDRcnR7kJAn7j1AiZHB0knyTnqpjQPAjfnYvGiYM5Ia0Bmo45DmsSs1VciVoyCJbVObQJfVpiOARmxawxKkuSQUFXc2IVZwtGwbS163DsvZaB3f++fYZytfZllUkxBmysOYnLGowbRPrCjFbWm0nzMUHql7dMlT+u2qdiC4amZbuynpx9YbC0D1BWxnIWglSumxwp7TDl39qRqWbn9qIMdDnpTiRE+qucHDc8i1m3fGYkBjoznBloNMoYBeJNx70psHY4O2cPIR/t6yWe5lk8Cvj100bLDSAstskOaPebZoyRfRklsGB85X64W9+E22gSXZEAvINZpBwrhZUN/ZIKx0oQBJuWGGdT4uGqJYAc2a6jg3ykC4oqGN/7g2x47hgIzBnlZYxjOd4VSVIxP6sAVmd7e5cczKmQZbNjMD7pjntJO8YwEx8JXuuD8eCCZ4WjfIviQ+TWuWN7ibUMRJBfWi+H0Q55IPjpsSFq7HND9gi0xXALAWf29lKMNU4Hb0svUomXrbCAaP1wFmwhCOWRpZOU9UUwPsR+56wZSbGwqln8oWzvnhur2o0WC9EBUn1nT5ZS0IWwZCbA9R0MDEqaPn3rmb94S4qsBN4aDCL9A5p34uhAJYyMsDtDiIajkRjcYyP2Jzws8oe7s+XJNfskG0JmCV6d+PQ9Mit2ZO+9v3l5u0oDv5Q0ffrEa/dkqziAAVi/yjKKDfOV0dAYnV3nJBfa5lhRLQaot0yzeBe1zLHCKmjZGhXwZAZjBqySc7B2qKUNAaDfmwihYTr5fAgvr6PWTTrGNP2zMh9WmBcGBkF35mMMhvbOszIlKkDGQjisA69sE+a/bINV4Aer6QYlhCZQC29JzlPCeH1CpDrHFPI96fDv+z7GBDyL2aeTozno4ApCozMrejfKe7KuVRzw7tlwPd2hAcuhCGbGhah1JQeyy5ULwKUEtJIMcK3P2r3HVZD39nkxahZiDfrPEc+547p41XYMcGbCojp6slbF1LhMYcuBPHGCgM2LD5URsC4M8B2pEHC6ubFwm+LhUlqjDm2RBmuR/TFJpcLbyRG4Ukx4mwjCOwXlcwTWB4V6EurJzGwm8TE7eBJcDK5tMsBpeS6pYFMxd+lkWYMcgNViCX7nhIHCscvpY+b/xFmUi/k2ObDej6F+JINZIFDGTXKL69T4GAvLbiKtuF70yClYy7R2eTSCtOmGRYLMaN1zet+07qpHkW8hlM5skE0wyr8NpMw8pyVQgOxzw8IjtsM1o8XCWA6V02Bg0Ehl2s/flFJYExdDNPz1J++aJXcuiDOfuRAsHP1wMjAHBg92xsoP9sk/Pk2TequgLEuw96l7ZDY0zlchFY2BYRoqbNMec1eb2ldjkGEWUdX6V0G7D0qglsJMk/iL0A3txAWDBAes+g//kkSYbFRQVi8bYPr9bUOK/OWjZJXKTHM2mRmIGcXQVBfO8hjEo2F7sF85qE1krdv4ssHU6FdNuw8KqdjDLGPi0xeBu7hxoRVTh4/A335nW7q8vuWIPLM2WZ5avV/+tGqfPP7OHrXw7n/wL9Phu7q7ZUdakWQzM9D8HEvQTVGL21QHaGhoXG4MCqkw8MVcjC8CFxZymT4tElohTIJ6/N1Eefy9RFn5YbKaMciqbJIOWC5O8HGdQEKcuqN/yuBefwiGL+8CV0dTiobGfwaDQiqMvDMQBD/GfOZCkHiY9k4XZkvqCZGhQ6UMhFHTfka6aIJYuTC0aM7C9TkE1+dc9zllkfSB2TKZGOornhb7nWhoaFxeDI6lAlKZEBnQNzHNCl4Q/OGwVPbnVkji8XK1xwaTjgZChJ+XWmOyMaVA5Rf0korh5vT0CKeDF00MVRH4qxmMK7W2dajZkMq6FjX7w3OM6HMKl0veeXA6uPtstzrPGRZew5mRM51d6l/jugYcXBLAKVD1Gdfzb8awjPcxF+gUCJ1/E7QGeQ9nqazBvuIz+azm1g6VYGaA+4/w3fyXOHfuLMrX3vuZz+RSf76Hs11GohuTxvjZGrw2p6hWJc4Za4eYMsA6mOrXrqazmX1K8Fl0p1vQfsxJ4fNZLx5sR4LZriyjUbezZ01lZrzOEmxHzkryPpaff7O9CZarEe/m+7hi+mhepZo25kwZy9KG9xkrgvmZ7c1Mb8vcmGsVg7JJEwNKzGUoguuSXnxhqj7BRXjjRg6XLWlFakk6cxxotdThuADolOmcdsZ3yflVMiZ4OK47rZLhFMzvjfEfJj+8ebKMAgGZglom7Ei99E2a/tOgaCRnlqhNmfYfL5UdGcUqY5fTkCs/SFJrjfYdK1X7abg6DFHrWH4Pd3Ea2oeL55776IBqy1W7jsnWw9xU/KSy7kqrmtRam5c/TVOZsbtxP4Pk3HCKQsns1M8zSlT6OrNNU0H0zBfhVp1cnW2JVUnH5cN9uXIov1I9v7quVU3Fckc6tvW/dmSqNV0+HlAqEMgnV++Hm8vnuMsbm1PVcoOIIB/55es7Zf64ELVJF/NomPthTLmjy6W8vkX+/FGy7Ead96PMJSDYOFiizNn5f+sOog1KJcm8LIObEzGWRuHnNgJcXOrp4qA29uKq96KqZhmJMrrBjeaWAP/eniEebk5qQyRmTb+8+YiM8HJRSXccO+yHtajnW2jH0Wh7LzdHeXbtQXF1tFfT/8+sPaAscWYgP7shRY5iXHLBYElNk1p68mlKvlRhfDJHh8sN3t2RIYnZZRIT4iPu17glPSiWCsEENmaOMg/AGhR3JnyRs7PK6tX6hPKGVpVB2x84k0StwyXvXGvDLR+5SKsXGIEcCHfNjZFQv2F9COVqAzXgK1vTlOBNjx2phDMRg5V7ulI4HIfaYaB6q60IvUEopzvPyisQkKfWJCvNuokL+hraJCxwmFpCwCxXZmOOADFwrdH+7FKVW9MEIlmPa4ksWAKfQdBScsrV/jdEATOG+SsHIAxr7MV1BbAcAoa5SifeuXr3MbVymFqbyVUZJ6tlfVKO2iKBvb16X478AcTXBEWwByRpBNnf3JmhUtaffD9J7ZTma0FevPZfW47I8SImigXLSD9P+SQ5Tz7Zn6uW/+8Dyfjj+mjUjUJuytkwedzcdvJ1bvaUXS4HYQmv2p0tqbAkWts78X2PbEObrD8AUswtV+/nkoRNhwpUzo3ZeFNj6j3ctweERlLDbereP6OdD6IN/wkSGg4Seht9crSwVmbFj5RxYSNAaqa9f5PRRtwGkmCKxbsgJ2bkpuVVqXPXMgaNVJjtOAku0N1zYkxqxwIkCe63ygVe7CimFHOQcyvG/hA0zA0d0yYFcH9oAjMLlcRiienhfnJjwmhoxy/eyOhKBs35YxDYb82NlW8vjJOfL0uQO/AvF7kR3Lc3HxYgM5C5PywZmvudpNCqATG4gkiY2n334vFyK0iWe3I8dNMkWYK2Idj2o0Z4yhB0Cc1zEgE1PzU694Thdo3sk4sCX1c3nYLA10pZbatK3PLxcJEzTAOARURlwm0pmXTH5/fAIqKr8B7Iz4mbYCu1YhoWf/wwGZZNhty/KB5WyvkZQ/4e1FYI//dQj+8tmSAPXT9REjCeuCsbXQi6Z5WwZGrqW6Ub72XWrAE7PPgcXJrW9g7JhqXMscXkPKIQbUtXZ2F8mOSX1Ks9VqyGp0IJSLIcdfvugnGyDuTL7NaHlk6U/PIG+f37+9SmYfERATIShMatDpJyK5UbNCXSX4aay8LHch0PV7XbwVLmKmNaj4Ybd61i0EiF4KKzBxbHyxyrdGBvkIcvTM9DJ0ysTZ9VxQcwUJRKsADdFq6vYaox956gq+MBoXHmtLH50kBo7IeuH69M+X5/C+gqMlzUIjfU0d3VtGO6M0jAWLZOcGNwuijBEEBaZKyaq4O9PHrLVHlmXYr4mC1D03em79XfONhc3J9kY3Ku2kyKgkxNXVrbIk0dZ6SNgtrYLidhpZhgRF0uhLebs7KipqJvGyBUtEq2Q2B6QE6cmSuFEuBWoqo+OPeL26bL23BJVBDeAMqUnFUqU0P9ZA2zmC2Ejbed7jqnrBEutmP6Ad2wJowTgkqLZfByc+mzqTbB/CfuB0zirG04pVxeruFiffbA6mPshMsMckEoXJjYBQKyxqYD+eKFcRrs6yFZaI+ymhaVrfrA9ROURfdTkD2XUNyzYKw8iLHHZSTHTlTLP2FlMsZlgIs1aWnS9RqCcmTjWdUo07WMQSUVDq5xYX5K28YEmPZNYayF6d1c9Mc1MgSJgOuFuIjPGtR0OVWNUsj9RMzn0orrpAQmPiWG8YOHloyXm6E5Lraj/tUCEjF16gc7M6UIA34zzP3H394Nd4CuRI8kRPirzZ4W42Asg2Aa9k2o/4RIPyk04kz9gATjBwKOg1VHEndG/3DVLvd34YZJlSACbnrN/VSpvtkn3EPmRGm90u6WGBPoLddPipC5cNEyC2vUehLuqerm4qB2/mc6/KbkfPQpyo0Xc9f4u+bFylFoeiOoShf2f+6YIb+9c5asBtGdwHdGH7vDMpsc4SdvwooprW6GS1UjiRDmJRNCVXIjf3GBe8bcB+shYVyIIk0DfHwsiJgExO0wIgPgEuM8F4ZmwDpuwDiju92A7/Ih5GonO1zAzZsKy/AZFgdjRS6w+rh40WnoUBW/4ZYSs8eNQrvZSQgIlUHoD0GGXGdz36I4mRc3CqRVKqcMKxrl4ErrxJwKsQcJ0v3sgOXC5QLXMgaVVAgujuJK28eWT1NbGXDQVLZ0SBoGKjUVwXMlGNBZMBOtp5JpinNjJ25WbFx/HAOhsrlNbZHwfWiJB2Aa+3v3H49RMEbqVQAGRv8LVge13q9e3yGvbDmitkPkYkFadx9B+J5dnyLP4PjXJ4eUsPjjPOMnP/5mgjj0nFOzbzxPt8jbzVEJGZvOFecjRnjIN2eMUdsZ7swokhq4McNwzX8tmyYP3TBRZsYGq+0bHGHCc9EnF7P96b29cvD4+X13vSDwGUXV8gLe/+b2ozIPQk3ricJ4B9y2FTh+c/sMOXoCLgEUB4O0nJn7Hp7vAwvMiVYmEODuLIsmhssslOWWqZHy0oYU6e42za5447v7YeW2gkwfe227/GPDIYmAtl8xO0ZZqSNQZ84WeuK6PpYK6wmlxViLF97LoD03q+LePJUgzDbl+oyS2+CW3zlrjBRD0Emc3JSJW3iuXJ2ktoKkhXMHrlk2M1q+f1287AbJMMubG4QFQHmZbUBlNb+1M0OeRBtxm4f7Fo5TwV6+j2ukyuFGuTkMUXW5bVa02q82JafsmnaBLsvv/vAaajpGxF/emi6JeRUDXnupGAVTmOb7/SAVBmcvlpp/ta39YbzgAAZoOQY2Vwvz91yGYSBvTy2Q09CW1KqsrReEaQYEes/RElmaEKk2BUoCUcRHBppcBQh5GlzMBePD1MK6Erg8nImYGh2sdg3jDm0BuI77wE4yrypmgJbv55Q/t19sxzPB7BIPi5Mrd4n0wmoprjHFIrhXCt1OWg6p+RUqvjLC0w3P6FIbZiVEB6m9QebEh4irs5MkHi3Cte4SiXs2JefJEvNPjnAriZOVDXIdFJCxoRRX1XLRZi4En7M242FhhcFCYh0YpxgPAbV2fehC8dcr6XYxeEvhZVtxmJOEuCsbf8+Iu/VV1beo94YFeMsJtI3aSQ4Xc4+fUrg7M8aOVIs6STrpBZUyHwRIYjkIl42rqrmlAqfLk7JL4EZ2iiustGlRQSrgnAsLkNYJLa4iWFqz0E+00IpQbu6rkhATrNr7WsRlIRWCr2F+w2GYfqsSs2VVUk6vf/xlQPdpMTTbPfPGynUwvwMwQC1XYfaHq3FBIduLVhoHnkGYRlfx/0aNVawE540Bqq7B38b3F3wHGPdYwvoa0xssrsFH46kXu9f4m1Cf+S+OgcrQe179j5/5h+UzTETB80a87Py156+zhIoEqYv4vfqjL3Cfcad1XSxxQV3Mn0kOlmOOn7nglad6y2j13N56ms8PVPZrAYPu/hhgI9K0nw1C+PWKmfKPR5bIgwvGSQBnawbuVxPQETTdl0Bj/+XeebLy3vkwX2PVVOIXEcrVCrYXA7WWFhjP8WCdjb+N8wbUefPfxAXfWdxjeRg4f87qGoun9jmPw4Dl34T63M81xuc+53moz+fPETxlaofzQ/X8tf0Db1Df8xLTv1aH+Tqi3+/NhyUsP1uPOX6+oIzmZ1g/y/rztYjLZqlYgvdwqo05EDSxi2GS0mQ9XlIvJY2npE35rkPV5jPRQT4SA584FCbraJil/CU/5sB8mZXIeusDDY3Lh/8IqViCPi83FGYEvvFUh7TCJWKiGwN7DPIylsCgHX1qziZ9FZbXpKKhcflgM/fnqzITg2kU9OARnup3hmfGBMvccSEyKzZEJc8xPZ072zMF+1o3GzU0rgXYhFSqmk+rOf6vafT0wuR3mj98ZZjKwhmELLhYJKYv4zJpaGh8NXx9UoGcLp8SLnf/ZYM89V6SZKuf/OyxGcF8WfC9PCrrWtXake8+s1ERC6cuuf+thobG4OJrx1SI4uomSc4ukxQchwqrJWiEh1wfHyo3zxwj/twd/iK/jm8rsBpcD5SUWSwbU06odUVh3u4yE67UtJhAiQv3V2nVGhoagwubkAqfwGQnJiVxtSp/JT8xs1RONrTK+NAR6qc+548PM+9QbhsXhMWmm8SgbiaIbMPBPNmfU6F2aOdO79y5PiLQR62VcTfvzK+hoTH4sAmpWIKzOfxlP65Q5W+ypOZXyeeZJdINl2huTJAsnxEtcZH+X3kmh+A7yqqb1e8Rb00vUlmNU0YHCH+WIzpkuAT5eKi9MrgITwd3NTQuL2xOKgb4WKaGc8k4fwozp7RO9mYUq5XJ/NnGpZPC5aZpUWqfDMukoYHAUjLVn2no6w8VyPGyBrUWZMH4UJkAkuImQV5uzmoh27WaEKehcTVg0EjFEkxj5nJz5qKU17VKWn6l7ALBFFY2yTi4R9ybYg7IgTuO9bEscB+DrBmFVbIhOU+SjperzZ3mx4+SGbBKIoO81c+Ncv2Hdm80NK4MXBZSsQQXenGHMi7eonu071iZ7DpaJKe7umUByIKrUOkecSu+TQfzZP2BfLXfKH+YeuHEMBkb6qd+/Y5EYnKhzA/W0NC4InDZScUA32rKpmX8pV0Fdz89lC/5FY0yOtBb6kE6XEh2C6wY/nZx0HBPlSTHHb50nERD48rFf4xULMEiMP7CXci2phaojXmmRwfLIzdOVkv4ucuXTlzT0Lg6cEWQiiX4Uw1VDW1qrU+Aj7u2SjQ0rjJccaRCGEXShKKhcfXhiiQVDQ2Nqxd6HlZDQ8Om0KSioaFhU2hS0dDQsCk0qWhoaNgUmlQ0NDRsCk0qGhoaNoTI/we0KMjMz21n9wAAAABJRU5ErkJggg==;" vertex="1" parent="1">
          <mxGeometry x="117.23" y="360" width="213.07" height="60" as="geometry" />
        </mxCell>
        <mxCell id="odeWDLO1GaSnZR0GTPzi-21" style="edgeStyle=orthogonalEdgeStyle;rounded=0;orthogonalLoop=1;jettySize=auto;html=1;entryX=0.5;entryY=0;entryDx=0;entryDy=0;" edge="1" parent="1" source="odeWDLO1GaSnZR0GTPzi-6" target="odeWDLO1GaSnZR0GTPzi-19">
          <mxGeometry relative="1" as="geometry" />
        </mxCell>
        <mxCell id="odeWDLO1GaSnZR0GTPzi-6" value="" style="shape=image;verticalLabelPosition=bottom;labelBackgroundColor=default;verticalAlign=top;aspect=fixed;imageAspect=0;image=data:image/png,iVBORw0KGgoAAAANSUhEUgAAAPYAAABDCAYAAACvFfgOAAAAAXNSR0IArs4c6QAAAARnQU1BAACxjwv8YQUAAAAJcEhZcwAAEnQAABJ0Ad5mH3gAABSFSURBVHhe7d1XiGVFtwfwPeacc845j+EzZxQzBkRBxBdBDKAoGDCAIoIIPggKPvgiKKKYQDHnnHPOYcx5zOHe356z2jU155w+Pd39ce+h/rDpE/auWlV7/Veq2qenTJ069Z+moqJiqDBH529FRcUQoRK7omIIUYldUTGEqMSuqBhCVGJXVAwhKrErKoYQldgVFUOISuyKiiFEJXZFxRCiEruiYghRiV1RMYSoxK6oGEJUYldUDCHap7sWWGCBZpNNNml+++23zsejY955521efPHF9nW/a+eYY47mr7/+an7//ffmjz/+aN56663ON72x2mqrNYsvvnjnXdP8/PPPzRtvvNF5NzPmnnvuZtNNN237KLH00ks3X375ZbPooou2f99+++2ucm6//faNOfjzzz+beeaZp3nooYfaPhdZZJFmgw02GLnmp59+6ir/6quv3iy77LLteTEvri9hTGTaaKONmuWXX75ZaKGFml9//bX57rvvmjfffLN57bXX2tcVFeNFS+yVV165Oe+885qFF1648/HooJDnnHNOS4Tzzz+/mTJlSuebmYHQv/zyS6v0yPfEE080999/f/Ppp592zpgVJ510UrPjjjs2//wz44lSCn/RRRe17ZRAbP2vscYanU/+xd9//90SjAw//PBDS5577723effddztnzMBZZ53VGgdArHPPPbeZNm1as9VWWzWnnXZa+zk8++yzzWWXXdYSPOOEE05odtppp/a161xfElRbG264YfOf//ynWXLJJUfGFvCefNddd13z0ksvdT6tqJg9jITi3TxePwx6PuLzmMsss0zrpQ488MBm11137Xw7K1ZcccXWY2fFX2WVVdrPeoGR6QbRAq+4xBJLtNfvueeezRFHHNF6zIzsXXntQDlG1yFoienTp3deNW1UUmLvvfduDj744GafffZpZTG20hB6v9566zUnnnjiLPJVVIwVI8TmQZ9//vmR45133pmJXLxc/v7jjz/ufPMvKOd7773Xfv/cc8+N/H399dc7Z8w4Z5tttunqYYFXE0FkCJO32267zrv++Prrr5uXX3659XrG8NFHH7UeG/TNM++xxx7NYost1n42FjBSe+21V7PSSit1PhkdG2+8cWtQ1lxzzc4nTZsSPPLII81tt93WPPnkk63M5tpBrqOOOqpZYYUVOmdXVIwdc/6vAp0nTKVojz766MiBDLxTeJYbb7yxufrqq0e+f+CBB5pvvvmmDSt322239jyHMPvKK69sFfbhhx9uHnvssTY/XmqppUaUdcEFF2xJxwhk8K6HHXZY691B6D3XXHO17Qq5EbYMg+ecc842DJa7wueff95ceumlrXz33HNPGz7rXx6sfW2RBeEdsO22244YE977wQcfbPsRYeywww7t54EwCPLoMHybb755s/baa7evv//++/Z6UQSZjz322GattdZqvwPzce211za33357a/jM5dNPP92suuqqI+OWiwvlpSAVFbODEY8thMxHGYZ6X57TDfJa3yGlvwwEAn3xxRedM2Z4ToWpEpQ7e3KkDAjHBwlRkU04Hf0jOiNz0003jYTZ888/f1swQ7yxIIyX6EHBcDQwFoxDgCzXXHNNa9QyfH7rrbe2UZBIA9nff//9zrcVFWPHf2W5i4eUZyMFMBKlcoOCmbAbGALeP0J+1yo88br9EH2U4O2lG/E9rziWcJzBiJCeUdp///3baKVEeHEQJcipQb88+Weffda+L4HQF198cXPJJZe0EUc2ahUVY8WEE3vq1KnNmWee2ZxxxhntXxVn4ajPKb3jgw8+mKUqzrPlkPXDDz9sw91sAHzPq/dDJlaG5S7hbXxvBYDnHhSMEeMQhsEyGENUIhsWqUf052+uNYDQOw6GRh8MV3xWUTG7mFBiU17E22yzzdq801/FKn+t74IQ8/LLL28LRhnC7MhztSM/99eacqQFiLjzzju3r2cHueKtEDbWUPy+++4b8bgq7rvvvvtIbt0NeS2et//xxx8772ZAPYEBPP3002c5jj/++DEZnoqKjAn32HLs7KUC8uw777yzJTWPnSH8FmaHtxN+K6whntc530SkflXp7DFL5O8QM8s3CBijm2++eeQ6m1IOOuigtsDXDcgcfTJs8803X/s64DvLe8ZTHoqCFRWziwklNkWVR15xxRVt1Ve1PT6n2EgqxC5RFs0Q5Zhjjmk3hxx33HEzEQIRRAC90I+s2UOrWkfOPAiCoCKJF154YaQfsuQCWe7/22+/7bya8Xm5jGd1ICP6qKgYLybcY1sCE7JeddVVzfXXX98SiFLLGY888sjmgAMO6Jz5LywpZSVHFISJA5kzttxyy65V9X5gOKKQBbxvuXTWDyIRMB7jCtIyFnmNOsMyW1492HrrrTuvZkCFnPFy2K0Wy28VFePFhBM7e5077rijufvuuzvvmtbzykuzd15uueWaddddt/NuMCBSLzL1wvrrrz+TZ5UOjGVfttA9YOvnXXfdNTLWnAvn8esjr9XbfCN0D4henOOwey3XACoqxoMJJ3YZCj/++OMzPcAhLz300ENHlq0ouzXqAG9/4YUXznLwklFEE9b3KqLxoAyHXFxBzuaTQw45pNlvv/1GyKkAZkPOeGDzC4L3A69uDT0IK8Uw9lNOOaWt8K+zzjptdf3oo49ud5uVoXpFxexiUj02UH6kjHwbVMqFpTxd3ir61VdftdssY9tqPnj+7P14+WwQAshhmY0xEN6efPLJzeGHHz6y5uxhFG31elpsUPD2kWr0g35sqw2oxisUXnDBBc2pp57anH322c2+++7bzkkumIURq6iYHUw4sbtBsUlFPMCr8qBbbLHFTA93KK598sknnXczQ+7+6quvdt41LVG7PZABooY4AgyOHV633HJLGxVMBBDWclw/IPYNN9zQbrZB1jB8ogcbZMrqtyWx2Jbb7Wm2iopB0O4V77yeCSrVdk7Z+0zBPIfcbbcYgvE2PJh91gpANnKUsCFFm4pQlBe5tU/ReXOeT3jrAYlekId6qML52kAMRkOBLdrNh/NiuSweibRds/SyNpognTGQK/aK22DiiSuf8/QeOWVgMjymKaTWpj6dJ8zPfQjJ7SwjCxgzefXlfJtnyGgfuSjAPIwl/6+oKNHz3+gqdOVlJtXd/HhiRrk1s5dSluepbOcQHTH6haAIYWtqhr56bQ2N9v3ttswW6CW/nDhvYR10XP1IyVMzhtp1nT5EEogexK+oGC96Ersk0KDg4XuBobAZxdKW19aRGQsRQS+j0Q3RjkOejhS5nX7V5XJcPCuv2Q3luf3GJqSOcSEtwpJHFOPoF1Ybg9y7hGu6rbX3ujdZvvKc0eaFzOSw1dZYnB+yD7LeX94TMLciH22NZc9AxfjRldhujKqzmzQWCDnlh2VlXDtyaYUtbUde6Twe2o0XqiuO9SOAdrRh2YoX1g4vHqEt5aGIwm5esFRkZNtll11mWgOXt5d7uAFJzQGFBZ5fbl5GFPq2Rq/KjRyxHu/zGB8FF7KTyVHCk2J5n3wgnoEvQa5uD6DI94X14JyINsjyyiuvzPKYLFjbl26IHqw2OBfIzuCJotQ9HN0MIIMkZbFbjjGJrcMB7dgzIJWzGlHqRsXkoGuOLfezKSSUelCwzmXIS2GsIcunKUEoTkBoShkoKsK58Tk8DyCz/JqBYBxcl9vyGnF9Z0lNX+TJG0RcY1zZYPFQyJBzYnA9ZQ1PGmPLiqk/y1XGZ5xxboY+fY5AxsnYaCvDd56AK+eGsVKzyH2S3Rp+t77Ix7ABA4hoZCQDYpYRh7m03Khv53WbT4aKfGQgdzaWZHBP1BjMo/NLaIfM7p/xlDWKisnBhFbFyxvLY1BCBAmloSDIRgGz9/M9Qobny6B4yONvCe3w8rkthkm/1rMzibuB8UJOyj8WkJdM1stLA0gWJCg9nPFZW+fhBgFSRQQQYPxGG9MgcE+MO4wp+Gs+HdmYILCxllGF8ZT72qONMvSmG4qnNiRVTD56emwWPxTWTco/NdTr4PmE1QHEogxBau1owyEkFZ5Czgd5XMSPkJJCCBWzQlAeu7WE0NpSdIqnrqItfVJaoWR4KuS19l0Sw3tEzJECZXZueEbGI3ts8vB2Wan1paovvDcfxmfMkbeC9rQhbQnv59dfssf2vdfGzsNluRis2Bob5wWyxyZ7NgpkiXkgD4OUnz4jj19sUZ0P787Axvj1oz17DUQ3xoPskdaYW8/Q25DjnmiH7NqIEN9f97bXM+kVE4eB3ZQ8KXLEfkcovtC09NRyPLkeJXNQoGeeeabrs9kIDgjkfbQLsWnFdZSeEupb2/4GGKhSwbuBUtrwMqgnpOy8rvYD5PATR9atkcR7c2bp76mnnhrxYObDtf2et87eLp+HTOYVzAeSZGIPCnPK2wYYNWvyyIi45EZOc5yjDsSMfQfuT45UjNfSo7EzggwMg1vm9QxBGIuKycOkbVCJnDlAWboVqYStCiu8HVIqfCFoFNF4lUwgS0kMgnythGtEFjlqiKWl0cDTyxUHAaXOhCOLsVHqbjCu7KV4YuTK3j4jk8kcxvgZnjBSCB1zNBYglQghUg8GQpGu2xIdDyzyYDjNufsSNRTRRs63yaUImO8VaNs9FQ2IZJA9G66KycFAxKZEFB9J+h0Z4VkCQuucB2fwEvEjiTxckAABcrgIEd72As/hCGgjh/oZ2olIwF/pRyZsjhLya2PL3p1RitShF6QOGeSKqKSE9sITM0pBZv2Gl2RMsgEbFK7PHtMc5CinhF+x8aiqzTkIykCDcDwXJslr7myP9eOWnsBjvIT9yI3YjJ/XFZOPgYjNCrtRllB6HfZ8u4lAcUrLPZoS+j6TB7Qh/MvIpO2F3BcCkKtbyEqpGZWA/uSNofj5mvw6RyJAwbstBWWUBaVucxRA7CCNc6JoKHwOOZzTy1D2g35zCK2fckWgRK+xIWsZpYgEGCApEJ3wo5F+TUfhrFeEUjHxmLBQPIfGbm5JyNkJG7WTCYX4URzqh6yoro/iTQntKXZl2UQeef96N1DQ3N5oxAAkzB6Ox49wuAQDkJfEhM4IyaCE8SNzbm9QiBRytKGNbmnNIBCiC6/Di3eDvnhu244tjfWKUiomFhNG7F5KGqBQYwUlznkcdCNoibF4BspZFnhU8iP66AYy5ehiEJmck+eo3zXIlg2YUFxKkmUaz3pwln28XlQY7xdV1TakIwyO9svxuf/2MpQ/mlExORiI2DyIyq6dV70OeZjwEHiAHHbCaJa62/faKb3vIIWwsgoulOznlWJpJiBU7fdDDmX0kUPbXqDYOYrRRr9QOqcIxqySHsbRWEbL6XuBUcqhtTZHM7q9UoaA+64AaqmLniC6IpswPRtm988SaJnKVEw8BvbYcls3qt8R4HHKMLEfISm8H0Twr3/kYs6lBIxDqfz9PCm4LhfueI/R8nvGQ76YjZFCUOTakL2c9rJciJHD226wZJc9tr5K4xfQl/A2SOE6xA4ZEKlbSpJl7AX3JRtLpO1nmHhZ/2lFKG1OwjgpSJIJUdUlGGYGg0FSKERwS5mWzPL8u7eDGOeK8WFgYo8FFEyIm2FTRSZKhuIQRbHu7ffH/RCBNnimiAICCkj9FIOylR5hkLBVSJmfrmIgsrzeB5Aqe23yyCN7QTuKSRkMQ6/cXF/6iLGbi0w+fZdRA2QZe8F12eiSzZz1gnG5NyIYhTAEBwaYIfbILGJ3+88onAHPnQueZIwNNhWTh0khNggVMyndTLudyrAPqe0sc8PD4/D+kftZ+soWnzfulQMrMtkNlsGDDFJJB4W00iB1g3GRMYhE1l6/6GK8vF42NjwxI9IvPeD9Ytx5biCH6WOFKMGcRnv+8rqMagmf5+U/BiHWsbWRoxb3JZ8bkBble6W/fsW2ionBQFtKKSDlRU7k6XUINyl9hHuUOm+VjPN4AKEbZUKIrPSus94ZVWEehjyq1dEOJdKG8FcfrleUiYcRAtFWpAlCWuSLsJmS24ARHsx7Y+Wloq8AOSh1EALx9Bu1gViW8t7nDvOlEqzP3J4+FeyCGOYkz1Ns/zT/ZSTgGrvbyOO77P3IFyG6PnOtIW8pNU5zEHNFdvfOnAq1fc4I89Lue8jFWKtHMEzmCZFj/Dw/Wbx3jfbpkPHnCMt91UbO8ysmHgMR241SlaV8/Q6KxBPFTUMY11KUyC/deApAKSm0vgIURn6WCQQ8LoVDFkrmoDj6pMAMhLZycYryKujkXWqjERsoHgWnjJmMJbEjpA0yQBg/6QKiGKPx5nYQLO+sg17EBmPTbsBcMArmajzEZoBdG/dY3+4TuR2Mp/kKmfTLSMYONf37juxxb5GbAaY7+jemfE8Aqc15xeRiQkPxTEagDHYrObzO31OK/J6iIzUy5hAPKKK9y3al5VA5lC5Dm0JVSkjRM2kHgb5dm4nXC/aqx3PGpcwZZEI4BTo7r0Yr5gVcU57rs0FkGw3m0Ro0wxeyx3zmeSU7IpK93KFmfhXI+tUKQBtem6dK6v8O+j6PzSoj1aAHz0hRcpjlc97BzaUAlNJrITSlRXhEFF666b1CNJ/H+RSRgutPO/rgSYTcPBPykIP8GTyLcbku5BVhlOSPNIJn169z/XUu2TP0SybyaMe1zuFljVvhjlxkklt2yy95vejL2MwH4nnNA2rLd8aDHNFGVKl9F3NPDuAxnR/XkaHcDy46ISOZjdER3teYXIO8jm7La8bperJGodFn2dNr0zmMu3a67UmvmHj0/c2z2UEv6w0UVGhKCdz8IBiy9/N4JSiNdih1KKLrKfFo3qwcVy95EduR0W9sQB6H6/L4XFcamYxSJufG+eV3xhmGqN9Y+rXZDeSO/BgGnc+Ae8I4ubfRhvGTVRv9+q6YePQkdkVFxf9fTGiOXVFR8X8DldgVFUOISuyKiiFEJXZFxRCiEruiYghRiV1RMYSoxK6oGEJMmTZtWl3HrqgYMkyZPn16JXZFxZChhuIVFUOISuyKiiFEJXZFxRCiEruiYghRiV1RMXRomv8B/NvVLitWYUoAAAAASUVORK5CYII=;" vertex="1" parent="1">
          <mxGeometry x="137.42000000000002" y="150" width="220.3" height="60" as="geometry" />
        </mxCell>
        <mxCell id="odeWDLO1GaSnZR0GTPzi-33" style="edgeStyle=orthogonalEdgeStyle;rounded=0;orthogonalLoop=1;jettySize=auto;html=1;entryX=0.5;entryY=0;entryDx=0;entryDy=0;" edge="1" parent="1" source="odeWDLO1GaSnZR0GTPzi-7" target="odeWDLO1GaSnZR0GTPzi-32">
          <mxGeometry relative="1" as="geometry" />
        </mxCell>
        <mxCell id="odeWDLO1GaSnZR0GTPzi-7" value="" style="shape=image;verticalLabelPosition=bottom;labelBackgroundColor=default;verticalAlign=top;aspect=fixed;imageAspect=0;image=data:image/png,iVBORw0KGgoAAAANSUhEUgAAAbEAAAB0CAMAAAA8XPwwAAAA+VBMVEX///8hMTwQqlASkk8cLTkXKjYAGCgAHCsAFSYAHy0eLzoAEiQQJTIADyIADCAWKTUMIzC4xMKHjZH29/c8SFGTmJzm5+gQpVDs7e7Aw8Wrr7Jzen9VXmW1uLpmbnTNz9Hd3uAAABx7gYadoqXJy80Aozpsc3kAp0c1QksAjkcRoVBdZmwrOkRMVl44RU4Aiz/I4dHc8OOd1bARm08ssF634MQAAACKwZ+MzqKs0roAoUjx+vUAnDOZx6vD5c5msITi8Ogtml1Wu3lQp3Q5s2Zuw4pbq3yjzbN4uZIll1im17WDyprR69o9nGcAABNkpYFWs3iFsJqXt6jXHu3uAAAS7ElEQVR4nO1dCZfbRnIGZ3DfAxAMwQsgQXM4ITkTeW1lE2VtxXGc9cZWsv7/PyboC0R3V4McSe+RnOB7z5KMo9Hor+voqkJT03r06HEpfH/pDvR4Jf710h3o8Tp8+Le/XLoLPV6Fbx9fLt2FHq/Bu2/unnohuyG8e7y7u3/5cOlu9DgXP3xzVzP29OOl+9HjTPwNEXZ3f//yL5fuSY+z8C0mrGbs/uXdpfvS4wxQwu7+1FN2G2CEYcZ6yq4f3zPCCGP3Tx8v3aMenfihIYwydv/U+/jXjI+PdyJjPWVXjbs7gLF/v3Sveijx0yPA2P3Tf1y6Xz0U+PYbSMZqh/GfL92zHiDecYS1GLt/+adL960HhO84wu7+8b5FWe99XCH+/KhmrPc+rhAfeZ3IM3b/0ifLrg4/PXYxdv/y8dId7MHjB1HEBMZ6F//a8J1ImMBY7y9eGb4XdaLE2P39pfvYow1ZxCTGXv7r0p3scQQgYrKMPV26lz2O+FkmDGCsF7KrwW+Sowgx1gvZ9eA/AaUIMNbXVl0NIBEDGLvvY1VXgr9BIgYx9vLbpbvaA+NnkLF/kBnrq4SvAx9ApQgxdt9/73IVgJUiyNhT73tcA6SofQdjfTz4GgATBjLWJ6OvAb+9hrFeLSJsh4fZbrFZrZLVajXd7Haz2WFYYzvYDw+7VZWPFTfmi1WSVTUm6I8qy7IkQW3URydFeu7jxWqBbsZ++UovfctIHF03jCjyfb/+L4qMGjqC69Z/GH5she4qh+6M65tiBCemIG34fuyY4XM2Ouv5CjMGM9Z7i5qWfoojd8DBJXy1DkRmnEiSNgkN4UYOehwuzuFMQZiKsT6xOZ5n021o6c1IG4E7PBwOWz/0rNhoSIuDlaDoimS3DWy/udG3vRqmEzdtReHk5PPfwasxFWNPfbUpRpoP2cgbu4aY0bqahVZDWuwAurHMbEZYMhqPx6Myz4ZhQ2OQnHo0lBrrYKyPLTY4UMmwS/74/BAwztxwBdxYxeSsdxTBcRIwOQtOSZnK8VAx1vv3DGuLDrxke8qDyUTGmck3jqmQhW2lOdozmoMTTiOYaelirDdkFGOPMgb48nOTiUwMUEapDvmje3pLfEIvAhUenYz1mWiG1FYzpo23EaNsIZ10QMZGIVWlevdzVSKmZOyvn/+Obwup1anFDsyZMCvxFLVjS+Hwylep2TYUgfsOxvrQIkVqdtudITNMYSmcUTBW0AYtcPXN8O61Mnb/62e/4luD081YypbL+rNwJga1oqYF1FuZdz1VFVVUM9bX5zCcYEwrQqYXBQpUjG0JxU6nf69cjikZ6+NUDKcYawyTPuCPU8Yc8Xq6wjPXXU/9DMb6BRnFScaYpRuYvGU6wVigCv1jfPt6xj5+7hu+NcBOehsJFTJjxx1WMUZiyfqh86nKkIeasX7jI4rTjI3oInuw5ORQwdiYeB52p6v4tRkrmrVHus5Wq6rgT6d5Nl1l+cncXbquktU0UacGMcopa2hUbQ6zaXUiVVFUyTTJ5uWpp2tpMSGP727wNGNN7JF32B2YsQk+HnWL2NdkLM1XejAk/y42thX7fmzrLTepWAT4oCWlITiMsucQXReh1OCwgi9N18nAWxITnR/CONKNKA5n6iGe7zwzRm06trU5jt9oJ144rg6h6fgo9+iE+6xjzpzBGAv6+lzkyYIZGyClqMcn5rPajt29hrFRngw9K3KJwi4PAYvRuB4L0hTHgwNfLfnFLIz1ga6ztYxjZuIl4zw72JbvDkwkwsW2ieENjBBeyqSJ5dSMxjR7FVnxal6ORqP1yov4K8sFeTxt0o1DdZTvDMZKGskyuOgizNgKsWvEp3KaitK3LsY+im1U29hzfPyO0bQenmnYZIgGLBSabriD7hKmbDTzjIFhmsPDvskzOfv2S8yHsWfRFKBdn9iEeqvdwRJay1RePIi8RTXJZjQR5fqO6Xk17fq2fWG6CKOBbnr48XR+xVEBNIlwBmMaZczl2CGMuQZ35bQ+6pqHTjuAoPbulYxJ3v17syGjlv6147u+ZZoOkyirnqVz2x+49ST32fC6ATSX5ohWb1eif6f5LiCCpgfHMUvftxLvXlrqNQNuO1+/LKVWZ7WT7dC043hqD9rw2wmstVm3Zh3I0wo2F/SlIgZxDmPPLInW1nVUxqKGnXGRRfWjdeN0Blr74fWMSW2kk0bh6cNVGNn7JC/Wk4VHe+vNp54b2fomq2rdSdmNgCxEhoIELcVWDEizbisyV+n2Ublmga47nv+8jZtcvL4XWz3U2sbfNP87Yf4botlYtibOZFkfCo5x29GQBQBhhXAOYxvaWS7Ab7EZF4bh0nFCVG3gosE7p8pDHVdUMQZGqcoNnbq67+2YRIyGtLtOZATTkl65Y9mhUmwkQ2MZcgv+A6XMaU3RsjY+jDLXPszxWIwSm84PYbWqTWOkBFsHEsKD++wE4bCl8eZLdDc3yxeMFHAoz2GMrci4RDVjTIRud3o6BOrYvYoxRSQ4J93QB+0R39JRdNpOXEaujMSEeo4kTEznUa3ic0mm8Y5SZrSeNhqQS4XVKg7uxVzCg1RCmaU2bquqEhEWCa7jjAy4FMvFOIexLO5gzEB1b35kHC2xHoedfjSCkjAFY8qKRZxCdXXueSXRQLxvqy3weLuCl5aaaCBNob8s0Rvy5p9Oj2376rFFzJnNXYlXRHwpBhnFWLAZuP+SdaVWU4zltjrRzVjVwVi0S1CB6Wa2D81jOZUPPquFn17LmKqYaqgDgkPIEQaHsiAk7nDY1JcqWSoyk3n3WNvjgRTSEmQFyg8OSewG3HXE5RamEX6OIRnX3KaqQzyhnSdjTRWObMfcVptlNTyW85wop1IvoRWMqeq4MWPCMFBdKR4l5piPA4xD+RiGT2Y5b0oGTLFxIKPL8YhZdF3+OtwpMdbnAnLHXqueBoCL/yqtKPuKLj8Lyh1ziQZmJ2Vq917hKqpCHgeIMVILgVZpbcwdWfLIZATC1nSW8qaIyJhYd7YzpCux5RfGhihAnjEytUyZlzkZXln4z2OMJVzM9kGQsboPTSgg7Aotql0PBWOqhmYGwBiREEMoTiHp8ZgLZuC5zPl0FKMAUItk5ouMEceM6wMR55i/jkwujgNyHZQ4ITNfXjS8yrvXh+2DCsa0kUMXlm4snmpDWUwFM/a7qh2YsS3EGGBIUjww7laTQeSJd1RgxogK4mwpGbGQZwIzxk8YEhWT8h8aE9x2OSjDOYxRpcpPDxVjWkHrBrrT0P+tUouvczwUjOHBERkjrgd3bYnFDkwNrcg05eY/zBhRoJwOnkaAtsPTiDOZJNEB1p1RrSw+SzuPMRNiQMnYMWs9lM81UEY9YKWoLDCFGcMz9AzGiLkAGYNcQJixicwY9eT5aLIlyR2ZMNAYamsy6EAq/wzGWIKMXzWoGRvDCTUBr2NM2QzM2ELNGDeMhBZwahXkBTnHEGaMeDQcY8Sj4AcHK+WI6xOhRVwiYoyIBwp4sYyxjsElPRLJUTNGRlF8WxGKOu7XfvH3VRgD7DvLWHweY+mSjHfb48dyxwfJmCABj0/DE4x11ckTpQzKOMwYW7911iyCu1K9/qvar8HYwAIapprFbiuWsxljAZZWnjBFHpnFd5R+9QAWZBNvwJId/zMYY2LIt9vBGF1MnKgyhb1F+Mt1dStfxhjtKVTATBnzTnseEGMlETLjGNBCHDpC/LCkMgalwkjPAM+ju4obgQZbI+H9KWOQQqEmAO5JAzirCe4O0bFpDriCpowJ4wMwRiuYoalFGIO8e/G1IMa0jLRsxEQxjna13vE2/I2sKAaIebBIiuzdn6ri1poyj2UJ3gitJdgnTmD68AhQLYJ75nR8igRGqQhjYswDYIwOmXS/xkw/v4Len8+YRnOYrmPvVisUvvOBT1cdUBgwQoUKO83Ymjw5FuIlXYxRV6VtHtJ5VokTGYwtAjuJddbcfxljNFIIaQoaIankq89jTKtClpyJfN2Nww1grQ6GOFAMRMSl3NBx4EHjh0HW/rq4yutijMYhW++QTIvxeL3hP5ABI1XQ3m9du3nAjGG9oGCM6wT1qrxSapjwEHAnXsWYNp6idLiLirOCPbwFAx0pQCuTCSPmSbUT348h0NRpKJokxhi0kKPevd2s/g6lNhrVT1jzihwSMoCxzo8k9l/GGDPS0nCTaKGwUiNjcS5jqHdupK86CiBLopWBJTxelkOBvuYbTYXJmZMm5e+aGdUAY7TN49uuyroDh23tN+W8lJ3F2FPnT4HgaS8x9uyeyRhJd0AJepzIFsrl6FpAiENQxgBjVMWi9yOCJrs9yUfDet2Rvto7MqZw69ZkHedJxXvNjYABpGK5ZE2mtTKe1C2satr5FwDcxT+9TsRILFVKSuzPlTGmlwxxluPYvRgMWXYxJjqCWjm0+OUcgDlRVZIhxQtoMJbOahFjmRONVo3UYw+cZKErOa5BzxwXi/OCMJZV5N8tyGsyibET2wTLcXOECIrdE+9PYEyjqQZLeEccHF0KLwfHIQhjojSlq6V+IuyDQGtSYmF24SAEmK+icRKYzgT3UAcrXtm3mNL0Tol5to7DhQp1JrtJhZbgBa9e5cCHxFj3Th7EnErzm4yhmG0BvD9amTPgyt80Wlkj2oI0ABmjoS5eSnPTJ6bhRJVSuaQzn5sxWB3AOWGWXq7Vgth0vsfnnC0o2DS+I3pTWkEqke3WnMGMLebvkf4sBPalpIskYt2bBJPFupjgItIkhgtJjF0qqlix1WNrzEpk3jxxxOgsFTknGU0hZ/JMY6u6N0uqSV6UI8X6qWLKqjViY6TVLUnNNj2jlNmr1s5to2qPi4yiEFSXxwqz2nttqfVyiitajbD9Uvkaa8UpmrFVKbQjytivghHr3mOgoLtRxAm3rciBFa+1J1tOSzfijdAHVsrobJnwVLY7cCVbUNJ3dg1Ota9pcimatb+eSZgoDAw/dhzT9jx/P1tNZH9hxQzTgM3miVM/KJCXYuNisrDbm4L5prlFO/El00PkxYQvaFewtJyvmrpoVLVtLOppNJ9U0z0uwtTtA3/XDjM2Qh+5S1VD4gZVv5/tdpTJzGpKFHx7i2eElmYLnVV9DiLPX5C5U+0ci71rZMc7boe0VUjrti1nkVXZworR5k68f7E6HB/mmvFsiod3NJ05zUY1hmUOp6zd1JP3W0MfwpjeVFRm2ZLOBMfcZVW18eue+oApGr03HUNss17u+bEfYQfMsMLaLZdxCG2L3zfOxdPIiSPsodlb0WBWuVbVE3Y30TI5Qcf/VO3dL7xO7IhPZR7XfTfGSjBfclvTuRHZDOE9f63xiZtTuU/9D5d8ieLGQcIrsXLJfRkxMEhQd+Lxh/Wjs7AW7mgQSQX1xZ5t6VYPZBy5bhxKtGrHQl8Arl7PBXsBlxw2RQEAdN8KF8AH0FNqwjNgfcHvtPjd/zy1Jaxry7dqWauaILBreIFnmwE2/fkn00RHMGzb9EgJ2idyUXOxuKnFZO+hoULvEMXBVvp8rFz6eFNJB83MuJ7UFlZaEw9tK8mOxr6/LI+37C1ZzDDkbyDmw8AhcuIasTeAi6r3ywC/U/1WFFaN+i/Pi4fTSQndg5B8stnlrKP4VSzTs4aJ4kPI+axa59UMXvR916LspzZjT8p6HITxujbn45RgVJYF7nK6LooSfaSFULKjWuvSdDwqC7knZbXZRqbp7BfQu6fIXGTVBKGqsmS1wS2UaA/Yqn2Ye2sU4dOjKDJ0nrtQZmQ0mQ6NelAHO8nUN31AXScvRZHXWKudGtY0uyHP53PcT4TajhWdi8VyvVad/9Bi7H//3mbsxvcXKPdubB82m8XssLUC87htJVSGeFM4rsoef/zjyNitby+QhHqYNdO/dvR2bAdKF4qf3xSaH0B9/OtDw9iNb9A3Hjq6X/LH0oQu14FcwY3he0rZ41/yN0LY2jZcV7YvBS2R6tyf5iZAKXv8I//l6S0Qhj68BPMhJFbUXU9xGyCUPT48EEN244RVIVyKoNFPAm5fK2rUlv2cPzz8WjuJTx8v3Z0vQrFUyxGui4PK7W4P7x4fH3+sGfvj5eX3G3frcRJekSRG9fyn8py3gg8/f/PHw8ND/vdb39yefDEDlBoioM9egPKNG8WfHzAu3Y0vBanAVuwJOnDhqvEbBSbs9j1f8o0T+GkPyrFJZU43DMxYeelefDFIfs6C4t7Pulh8f9tYI8bO+3GlawYt5wdyXIsY/PGA20WBGDv7N8yuF6TWRcojjw8x+AMdN4zyLTgeGl2QoSC91aoFLldLww2gQtQbxuiNMEa2B0NR+tjTFwn6HcSdb/s1gyd2prk5jN+E44GQN3vFoZqKOPYNVLwxfQMan0f6ZhjTxovQb2eeDSec3r5PJaNm7OTGcbeCMvEDCxV/xLFlh7vJm5MvjLfhKjYY5aj4I6vO2In7VvFGHI//Ryh6xm4MPWO3hjR9S2asR4/L4P8AK6eHJIuosZwAAAAASUVORK5CYII=;" vertex="1" parent="1">
          <mxGeometry x="627.42" y="269.9" width="140" height="37.5" as="geometry" />
        </mxCell>
        <mxCell id="odeWDLO1GaSnZR0GTPzi-34" style="edgeStyle=orthogonalEdgeStyle;rounded=0;orthogonalLoop=1;jettySize=auto;html=1;" edge="1" parent="1" source="odeWDLO1GaSnZR0GTPzi-8" target="odeWDLO1GaSnZR0GTPzi-32">
          <mxGeometry relative="1" as="geometry" />
        </mxCell>
        <mxCell id="odeWDLO1GaSnZR0GTPzi-8" value="" style="shape=image;verticalLabelPosition=bottom;labelBackgroundColor=default;verticalAlign=top;aspect=fixed;imageAspect=0;image=data:image/jpeg,/9j/4AAQSkZJRgABAQAAAQABAAD/2wCEAAoHCBUVFBcVFBUXGBcYGBcbGhcYGx0eFxgbHRoaHB0XGh0bISwkHR0pIBcXJTYmKy8wMzM0GiQ5PjkxPSwyMzABCwsLEA4QHhISHj0pJCY1OTAzNDg9MjIwOzI1PTAyOzI4MjQyMjIwMjQyNDIyMDIyMjI4NDIyMjIyMjIyMjIyPf/AABEIAMIBAwMBIgACEQEDEQH/xAAbAAEAAgMBAQAAAAAAAAAAAAAABQYDBAcCAf/EAEwQAAEDAgMEBgQKBQoGAwAAAAEAAgMEEQUSIQYxQVEHE2FxgZEiMqGxFCNCUmJygrLB0RUWJJKiMzVDU1Rzs8LS8CVjk5TT4xc0Vf/EABkBAQADAQEAAAAAAAAAAAAAAAACAwQBBf/EACgRAAICAQMCBgMBAQAAAAAAAAABAhEDEjFBIVEEEyJhcYGRscEyM//aAAwDAQACEQMRAD8A7MiIgCIiAIiIAi1q6sZDG6WVwaxjSXOO4ALjtXtNiWMyuhw4OgpmmzpL5Tbm941F+DW696A6xiOOUsH8tURR9j3tB8ibqK/X7DL2+GReZt52VEj6MKCnGavrHOcdSAQwHwN3nvXv9BbOt0yyO7c034WUlCT2RFzit2dEpNq6GU2ZVwOPLrG38iVMMeHC4IIO4g3BXIXbI4BJoyaSI8y9w/xGkL7F0bzx/GYZiZ01DS4gHkCYyQfFq44tboKSezOs1NQyNpe9zWNG9ziAB4lV2p6QcMjNnVcZP0Mz/a0Fc+j6PcQrJHSYtVFkbNAczXEgcWjRjG9tr9i3Rs9s/Bo7PM4byHSO+5Zq6ot7IOSW7LnB0h4Y/QVcY+tmb7XALYr9tsPhaHPq4bEXAY7O4jsay5VEOHbPP0ML2dvxo9xKkcE2DwR780Z608GOkOn2dCfFHCS3QU4vZmSs6YsPb6jZpO5gaP4nA+xaTemylv8A/Wmtzuz81LYt8EoNG4VHkvpKGR5T3usXA99lH/rnTHR+HRkcviz7CxSjilJWkReWKdNkhQ9LWGyWDnyRE/1kZt5szK5YdikNQ3PBKyRvNjgbd9t3iucPkwOq0mo2wk/KDMgH2ojp4hR9b0byQ/tWDVTiRqGZhcjk140d9Vw8VGUZR3RKM4y2Z2VFzLYrpHMknwPEW9TUtOUPIyte75rgfUefI9i6aokgiIgCIiAIiIAiIgCIiAIiIAiIgCIiAIiIDj/SziElVV0+FQH13MdJyu4+iD2NaC8945KcxvEGYZTx0NGA1+S7n2F2g73nm9xuezyVe2Gb8Jx+tqHaiLrQ2/A5hG0/utcozG6wzVEshPrSOt9UGzR5AK/w+NSl14Kc83GPTk0nvLiXOJc46lziS4nmSdSviIvRMIVz2IwpkbH185LWR3yDdmI3uNt+ugHE+CqNLTukkZG31nua0eJtf8VcukGpbGyGij0YxjXOHO2jAfJzu+ypytuoLn9FmNJXJ8fsgNotoZatxLiWxA+jGD6IHAu+c7t4cFDoisjFRVIg227YQb78RuPEdxRFIFrwHbN8Y6uqvNCdDmGaRo8fXHYdV62n2ZY1gqqM54HDM5o1yD5zeOTmN491SVk2O2gNNJ1chvBIbOB1DCdM4HLgezXgqZQcfVH8dyyM9Xpl+StrfwfGJqV+eJ1vnMPqPHJw59u9SO2WBfBZrsHxUl3M5N5s8L3HYexV9TTU4+zINOMvcu+1GBwYzSmpgAZVxN8SQL9U+28HXK7h5hSHRJtM+spXMmN5YHBpcd7mkei53boQe5Q/RnMRVvZwfE647WubY/xO81h6JourxHFI26Na8gDgLSvA9i87LBQlSN2KeqNs66iIqywIiIAiIgCIiAIiIAiIgCIiAIiIAiIgOO9E2lXiruOY/wCJIq20q19H7BDjWJ0x+XmcB2Z83ulVYqYskj2Hex72/uuI/Ba/CcmXxPBjREW0ylj2Bp89cy+5jXyeQDR7Xham087pq2cgFxzlgABJsz0Nw7QVM9GDf2uQ8oT7Xt/ILertr6emc9lHA0uzOzSOFgXXOY/OdrffZZnJrI6V9C9JaFbrqU52D1IGY08tueR35LSXT8GrsQnhFQ2WlLTm+KLHC1iQWl4d6J05HeobbKljnpo6+JoaXENkAtrcluttCQ4EX4grscz1UzksS02ikIiLQUhSNHgNVK3MyCRzTxsAD3FxF1L7A4Wyeoc6QBzYmh2U7i4n0b8wLE+SsNNtCalsknw1lKxhIawNYZC0bnuMl735NGm5UZMrTqKLYY01bDsMmmwt0dRG5ssFzGXEEuDBdpuCfk3aubArpOy+MTS0tXJPIZGsa4MJa1psGOJ9UDfdu9c1YNB3LmG02n3O5aaTRcujGK9VI/gyIjxc9tvule+iJmeoxOoG59QQD2Znu9zgsmyLxTYfWVZ0sxwafqMNv4nWUl0O4cYsNY5ws6Z75DfeQTlafFrQfFZfEO5s04VUUXxERUloREQBERAEREAREQBERAEREAREQBERAcpxZvwXaWnk3Mqog0nm4tcy3fdkZ8VFbZ0vV1sw4OcHj7YBPtup3ppp3Mjpaxg9Knnbc9jrEfxMaPFY+keMPNNVM1ZLHa47g9nmHu8lo8NKp13KPEK432KWiIvQMRcOjE/tb/7h332KrV4tLKP+bL/iOVt6MIv2mZ3BsIH7zgf8ip9RJme93znvd5uJ/FVR/wCkvosl/hfZ8ZM9oLWvcGu9YBxAd3gb1dcH+MwWpZ/VueR2WLZPzVHV42X9HCq5x3HrQP8ApNHvKZtl8oYt38Mo6IitKy59GdQBUSxn5cenblOo8nFVKtpjHI+Nw1je5vkSAfKxWfCK8088cw+Q4EgcWnRw8iVY+kTDwJI6qPWOZouRuzgaH7TbfulUf5yfP8Ld4fH9NrBPRwaqcN5MgP8AC33Kiq87LfGYXWR8usPnGHe8KD2Lwz4RVxgi7I/Tfys31R4ut5FIyUdbfc7JatKXYkNu2Ogw2kw6P+VqpI2OA37w95/fcwd1107DqNsMUcTPVjY1g7mgD8Fz3Dv+IY7JNvgoGdWw8DKbgkeOf9xq6YvPbt2bUqVH1ERcOhERAEREAREQBERAEREAREQBERAEREBA7aYT8KoaiC2royW/Xb6Tf4mhULA5vhmAN4yUhLSOIEf/AK3DyXWlyvZZgo8YraB38lVAyxg7tcxLR4OePsBSjLS0yMo6k0U5FtYpQmCaSE/0bi0drd7T4ghaq9VO+p5rVF16MpR100Z3vjBH2XEH74VOqIDG98bhZzHuae9pIWxhOIOp5mTM1LDu+c06Ob4i6ue0OAtrmCto7Oc4emzcXEaaX3PFrEHfbzpb0ZLez/ZalrhS3RQCVfMXb8EwmOA6STkFw7yHu8gGtUDs3gkj6yOOSN7Q12d4e0jRmttRbU5R4rJt3ifXVb2g3ZF6Dbcxq8+en2Ul6pqPbqI+mLffoV1ERXlQV82UmbWUklDIfTYM0bjvy3u0j6rtO4hUNbmEYg6nmjmZqWHUfOadHN8R+CryQ1R6b8E4S0vrsXDZOF0NFXmQZcvWNIPBzIyD7SsMVR+i8JfUOFqicARt+VmcLMFuwXeQrlIyOrhjMZb1Mjw+TgXBuuQjmXNaHX4Aqgy4lDiWLgyTRso6H1A97WiWW/rAE6i7d/Jg+csE5t2u5sjBJp9i4dHWAfA6KNrx8bJ8ZKTvzu1sT2Cw8CrYq/V7ZYfF69ZAOwPDneTblbOCbQ01Y1zqaZsgafStcObfddpAI71UWkuiIgCIiAIiIAiIgCIiAIiIAiIgCIiAIiIAub9LVBIxtPiUA+Mo5AXW+VGXDf2A6dz3LpC16umZLG+ORocx7XNc07i0ixB8CgObbaQsqYIMRg1Y9jQ/mAfVJ7QbtPgqUrFgdb+iKmXDa7WjmLnQyu9QB2lnfRO53Ii+43UxL0eOc8GKdnUO1DjcvDeQt6LtNxuFsw50o6ZcGTLiblcSB2W2efWSW1bEy2d/+Rv0j7B4L5tv0imB7KTDC1rISA54Ac15GnVtBvdvM7yfbNYttDSslgwimlyMe/JUTMcAWgg3jD/6xzrNLuF7b91gnw6OhAbRYYx+g+MbkvccybvJ7VTkyPJL2LscFCNsw7GbRVctM+pxCJkMbR6Js5r323vLXHRu4Dn5XwU1RS4oJY+o6qRoLmP9HNa+jrjttdpvvUVisGJ1zgx8JYwG4bo1gPNxJu4j/YVo2UwOKjJY6Rr6l7czgN4YCBZo3htyNTvKlSgrvr7Ebc3VdDkr2FpLTvaSD3g2PuXxZ68/Gy/3kn3ysC3oxhS2y+FtqalkTr5dXOtvLWi9r8LmwUSrf0Zw3q3O+bE72uaFDLKoNksauSRL1e2MFPK+lZTDqWEsflIBJ3Osy1iN4NzcqDdBs8TmNK4E/JAk38gA6y91e2mBvkkMsDw8PcHHq/XIcQXei7W+/XVa3/yXhsRtSUD3v4HIxt/G7nexYXLG1s7NijNPdFxwbBMOMbpBh8cUYaTnmjYC5ttT6ZLg23zrKndF9FG7FK2opbtpG5mMAvkcXOBAHYMpI5Ahak0WM40Qx7DSUhNzcFrSO0H05DyGje5dV2cwOKip2U8I9FupcfWe473uPM+zQKp+xYiYREXDoREQBERAEREAREQBERAEREAREQBERAEREBC7SbO09dF1VQy43tcNHsdzaeHduKoMPRJK05G4lM2DX4tocDY7x6+X2LrCIDnuJ9FFBJEyOMOicwWEjbFz76kyX9bXutu3LUp9l8bpWhtLiEUrBubO06DgASHn2hdNRAc1GH7RTehJU00DDvfG277fRGXf4hRXR5SPhxqtiklfK5kVjLIbvdqw3Nyea6+uV7Puy7S1zfnRA/wQn8UBVK4fGS/3kn3ysC2sVbaeUcpZPvlaq9dbHlvcK7dHPoNq5juZG3Xwe4+4Kkq34W7qsFr5dxeJGg/YbGP4nFU+IdQZbhVyRvdEGHRSYeZJI2PMk0rrva13EDiOxX+ChiZ6kTGfVa0e4KudGFN1eF0ot6zC8/bc53uIVtXnG8IiIAiIgCIiAIiIAiIgCIiAIiIAiIgCIiAIiIAiIgCIiAIiIAuVTPEO1Db/ANPBbxLD/wCNdVXJ+mbDpY30uIwg3gcA8j5NnB0bj2XzA94QERtVTllZO0i3xhcO59nA+1RCv1TFBjMDKqke1s7Whr43GxH0H21FjeztxBUG3YquJt1QH0jI3L7Df2L0MWaOlWzDkxSUnSK6SrRtnenwKOA3ElQ9lm8Td3WEeQaPFb8Wy9NRtE+IzxhrdQwH0XEagH5T/qgaqOwvrMbxFlSWObQ0h9AOHrvBuPtEhpPINA4qnxGVSVRLcONxds6hglGIaaGIf0cUbP3WgfgpBEWU0hERAEREAREQBERAEREAREQBERAEXwlfM45hAekXjOOY817QBERAEREAREQBERAFgqIWyNcx7Q5jgWua4XDgdCCDvCzogOV4n0TZZeuw6qfTOvfKc1m9jXtIcB2G6N2Rx53ovxQNbzaXZvY0H2rqiIDm2G9E8GYSVs8tW/6Ti1nPXUuI+0uhUtKyJjY42NYxos1rQA0DkAFnRAfERQu0ePxUbA59y52jWDe6289gHNdSbdI42krZMoqRDi2KzgOip4o2HUGS9yOB1IPsX19XjMfpOihkHFrd/wB4KflPuvyV+Z7Mu6KrbObXMqX9VIwxTC/oHcSN4BNiCORF1ZnvABJIAGpJ3DtUHFxdMnGSatHpfVS67bfM/qqKF07/AJ2uTvFtSO02C8CTGXa5YG/RNr+8qflPnp8kfMXHUu6KiS7SYhS61dK10fF8XDxBIHjZWnBcZiqmZ4nXtoWnRzTycFFwaV8HVNN1ySSKs7XbRPpDCGMa/rC4HMSLWy7rfWVkadFxxaSfc6pJtrse0RFwkEREBUOlE/8ADJ7Ej1NxsfXbyVa2Q6PqOpoqeeUz55Iw52WVwF7ncOCsnSn/ADXP9j77V76PaljcMpA57ARELguAI1PagI49FNBwdUg8xKbjzCisFnqMLxKKglmdNTVDT1LpDdzHa2F+8WI3attbVdJdiEQFzJGBzL2ge9cyrqtmJY5SimOeOjBfJI31L3vYHjqGjt15IDq6KiYptVUzVL6PDI2PfHpNUSk9VEfmgD1nb/Ebl6fRY6wZm1VJKRr1boiwHsDggLyiq+yO1PwsyRSxmCqgNpYSb9zmni0/74FRUm0NbWVU1Ph4ijjp3BklRMC679fRYwcrHfy4IC+oqRU0eNxNL2VVNORr1boSzN2BzXb1tYFtLJX0T5aZjGVLCWGOUnq2SNtcOLdctjfmgNvCtpBNW1VH1ZaaYRkvzXD84B3W0tfmrEuN4AcT/Slf1Qo/hGWLrs5k6r1Rl6u3pbt91asb2uqIDBSRwsmxCRgLmMJEMemryTrl0JF7aBAXpFRo6DHSMzquka7f1YiJYOzNvUXiu3dXTuhp5oY2VRmia/1nRSRPOXrYnXHHQg7kB01FR9s9sn0NVTx5Wuikjkc8WJkLm6MZHY2u5xaNx3rHQNx2V7JJHUsMZewuhsXPDMwzNLrH0st+O/kgL4io1XtVU1NTJS4ZHG7qjlmqZieqY69sjQ3VztD5LJPS41G3OyopZyNTE6Ix37GuDjr3oC6LnG1ID8Wp2P8AUtHod2rnH2kBWTZDahtax4LDFPE7JNC71mO13c2mxsewrFtfsz8LDXxuDZWaNJvZw32JGoIOoKsxNJ9SvIm10LOF9XPYsWxWmGWWn65o0zAXJ8WXv4hbVP0ixXyzQyRu47jbwNnexdeGXHUeaueh42vwOZ1XDUUsZc4EF5aQNWEZSbkcLjwXzb/EZHujoovWmy5+5xs1p7L3J7ArTheOU9R/JSNceLdzh9k6qnRfGY67N8gG3hELfeKnBu/UtkVySro92W/AsGjpYwyMa6ZnfKe7iT+A4KVRFQ227ZekkqR4e0EEEAg6EHcub41THDKyOohuIZCQ9nADe5vdb0hysulKpdJMQNHf5sjCPG7f8ynhl6q4ZDKul8oi+kx4d8EcDcFzyDzByLoDNw7guVbRyF1JhpO/IR5dWPwXVWbh3BSyKoJfJHG7k38HtERUlwREQFP6U/5rn+x99qrux3R9h9TQ088sJdJJGHOdneLm51sDYKydJ7C7DJw0Fx9DRoJPrt4BbHR4wtwykDgQREAQRYjU7wUBHN6LcLH9AfGR/wDqViosLhpYXNpomRtDSbNFrkA6k7ye9Sq+EIDn3QzGPgDpPlyzyueeJNwNf98V0JcvoJ5cFqJo5Y5H0E0hkjljaXdS529jmjcNLeAOutpybpLw0NuyZ0juDI2PL3HkBl96Ajq8ZNpICzQy0bg8c7GSxP7jR4L1JgGI0VTUT4f1MsVQ/rHwSktc12ty127iePLTRZNkMMqKitkxSqjMRczq6eF3rMj+c/kTy+kVpYXtBNhtRUQYkZnRPlL4Kohz2ZDpkJFy2wt45uwoDfO2FfFf4ThM1h8qF7ZB32CmNjcToqiOSSiY2O8hMrcuR4kO8vHM81qy9I+GgXbUdYeDGMe5x7AA3eo7o2w+Xra2tkidCyrla6OJws8NaXnM4cL5/egPOyn8+Yr9WD7oWPZJodjeKPfq9giay+8MIFwOzRq03YmMOxitlqWSCGpjiMcjGOe27WtBByj63l2raxahqBUR4vhrDKJY2iand6DpGcHAHc6wGh1043IQHSFzTpejZmw9+mcVbGg8cpLSR3XDVKR7f3Fjh9eJPmdSTryzXsqbtu2rmko6qqZ1LDVRxw018z2tLg50khGmc5QLDcEBYds6dr8awprhcWldY82+kPaAfBX3EpCyGVzfWbG9w7w0ke1UraiJxxvDHBri0Nmu4AkC7Ta53BX5wBFjuKA5L0Z1tZHQtNPQCZsj5HulM8bC9+axu1wvpa3grb+nMV//ACm/91H+SgcLqJMFklgnjkfQvkc+GaNpd1WbUxyNGoHb+ek5P0j4cG3jmMrvkxxse57jyAt70BG7P4bW/pWSslpRTxyw5HgSsfd7cuVxy68LbuCs1PtJE6rdSBrxI3NckDIbAO0N77jyUNsVTVkk09bWGSMS6Q0rnOyxMFvScy+UPIDeF9/Oyj9saOSlq2V8TczfRz23BwGUh1tzXN0vzU8cVJtP6ITbirX2dFWCppGSCz2NeOTmg+9Q+F7V0szQRK1jiNWPIa4Hlroe8KQkxinaLmeID67fzXNMk9juqLW5Qdt8EZSmKppvizntlbua4C4c3luII3L5NVdXidPUu0ZPHG4ngM7Mh8nZfBetq8VGISR0tKC8B13Psctzpf6oBJurLtHsy2opmRNID4mgMcd2gALT2G3uWnVpSUubX0Z9NtuPBZ0VBwLa4w2pq8OjezQSOB1A0Gb/AFC4Kt8WL07hmE0RHPO381nlBpl8Zpm+qR0nVYbTxxDV0kgNuOVoP4loUri219LA0/GCR3BkZDj4kaNHeqns7IMQrTNUPaDHYsg523WvvDd54kqeODT1NdEQyTT9K3Z82zpTFBh8Z3sbY99o7+266azcO4KgdKJsaU/Sk/yKxN2vorD9oZu5O/JdmnKCaXc5BqMmn7E+igf1wov7Qzyd+SDa6iJAFQy5IA0dx8FVol2LdS7k+iIokgiIgCIiA8kX3rGynYDcNaDzDQCsyIAvDmg6EAjtXtEBhbTsBuGtB5gBZkRAeXNB3qj7UYnV0VZFUWkkoXMySxsaHGJ/CSwF7buzQ9ivSICps6RMMLc3wtg7CHhw7C0tvdV2pmfjFbTGKORtFSyda6V7S3rXixa1gOpGgHiexdFNFGTcxsvzyi/uWcC25AekREB5IvvWNlOxpuGNB5gAFZkQBeHNBFiLg8CvaICvVWx9FIbmBoJ35SW+xpstdmwdCDfqiewvdb3q0IpLJJckNEexpYfhkUDcsMbGDjlGp7zvPit1EUW73JpUaVfhkM4yyxteOGYajuO8eCg37B0RN+rcOwPdb3q0opKUlsyLinuiAotkqOIhzYWkjcX3dbwdotLaHZBk72zQv6mUOBLm7j9Kw3PA4+atiIskk7s44RaqiNq8Ihlaxs7BKWCwc8a3sATpbU2C1v1Vov7NH5KbRc1NbM64p8EL+q1H/Zo/JBsvRg3FPHca7lNImp9xpXY+oiLhIIiIAiIgCIiAIiIAiIgCIiAIiIAiIgCIiAIiIAiIgCIiAIiIAiIgCIiAIiIAiIgP/9k=;" vertex="1" parent="1">
          <mxGeometry x="627.42" y="500" width="129.73" height="97.18" as="geometry" />
        </mxCell>
        <mxCell id="odeWDLO1GaSnZR0GTPzi-23" style="edgeStyle=orthogonalEdgeStyle;rounded=0;orthogonalLoop=1;jettySize=auto;html=1;entryX=0.5;entryY=0;entryDx=0;entryDy=0;" edge="1" parent="1" source="odeWDLO1GaSnZR0GTPzi-10" target="odeWDLO1GaSnZR0GTPzi-16">
          <mxGeometry relative="1" as="geometry" />
        </mxCell>
        <mxCell id="odeWDLO1GaSnZR0GTPzi-10" value="" style="shape=image;verticalLabelPosition=bottom;labelBackgroundColor=default;verticalAlign=top;aspect=fixed;imageAspect=0;image=data:image/png,iVBORw0KGgoAAAANSUhEUgAAAMMAAADDCAMAAAAIoVWYAAAA+VBMVEX////+/v7bHjAAmdwKlErzphb++O3lYm7fN0fodH/tkZoAmdv++fCq3fP1xcn504362Zzwo6rmZ3Pvm6PdLD32vlYjn1zExMXy8vL3z9PfO0v2ys7c3Nyoqar75+n53d/t7e2RkpP1sC7Kysv2u021tbaWl5iJiov98/T87/DhSVfg8vrjUF7kV2Sn2L7y+fVovY+54/VmweqgoKGY1vDrhY/ys7nocXz1tT3Z7uNvcHK6urvW19f4ynPa8Pl8yu1Nt+Yvq+L0u8A6sOTsipMbpN+74cw2p2vp9e6HyqZbt4b63KT3w2HO6dv86sn98Nh7e31cXV6b07XwkVhCAAAOoklEQVR4nO2YDWPTthaGz0k3mrZQVprNbnFSh5A4KZS2pB9rG6Dr2Ljjjq3j//+YK9k60vGHHDdRErKbM7DzyLasV9J5fRgAqgAE8Uf/jEEgaIgvxneNBaAuEcENQAnAvyFoGdD8WrZY3pGb4CuSHJB+5iB773iYV2DqmOQwstGggVT+lMGMBsmnlAPyP8pa9Nj1UtEVvTLlYHzKFWAp/AvCZEbBKd1GGVQJ0C2UxaKncBWZwNyPHKRddizMYHQWXzK2hGQpVDeBKU90OcT8twzQvNUJAAPMAyWQtjINRpCuBlWujQPWBE5AT4yp+Qzoec7aAPA2KGsvADYIcA6YhZyBjXc0B27oNlwl3fyiwHMWM3VO40E13+Lq1VXNtwxhdtWibGXqWPQULiQqZvUMwT6oKitS/Y2uJaxqviWp+YyKXMZbWmAMAG92BWCDCWq+hURZoQm5sObNQ3JwRpBPjuTX8gdpQuvksyvaeMaB8xizF5R1Jr81aF8yoGWn5qAQTOKBQwD9Iw3up2wBwSZxWXNj0VO4kFi0vZYNalXzrWq+Vc2XH+U3arAPq/mcxHwNa77TOZPQUlLmRA6jXYaZW2E1mDXU4vpxcuDeipADsk7UJR8aO9VHbVugJZYAOSINwA1wq8zC0ofZVZW89VuMRU/hQuKbrPlmEnOWoHNcESK3AQbpCqUUeEHgBsxAeEkH2lCRKjs9CBqFOrLqhQrUcii05qkASsB8E2j4BkwFl6vkxkH25ALABquarzzJ5gbznc6ZxKrmswEo71vVfJXD7KoCS1qObFn0FC4kVjXfquYjO83AquazQva0qvlwVfMtQ6xqPhuA8r5VzVc5zK4qsKTlyJZFT+FCYlXzrWo+stMM/B/UfO/Pzt4jH9ny1XwfttbWts6ytywiJq35jm/X4nj7cFv4Vmq+V7+sqbg9djup241G4zzfvCmaLybozl7zvf9tTcevr5zWfDu1Wm09f2VDNG8WPzNZzcclrK399p7sKWWfNigs2QzEGvJXEg2T1HzGTclb5fF0ay0VW6ei9dG7H028e8RMMDlmASyQrEPuCmkoeCa157PAkDvaE5KwFf+3ltjTj9/zeFltsxaA2kvZK7EG2zMlAEWBZ3oVlAIZp4+/T8fj9EOtQdJbf9Av7DW5ayCuqr0Uc38wUM+BygfUDVMEflgriiexhhcvZbyQPx+p+y/r9f3WTr1W279AaF02xAAPZPumaN+WP1r79foz+WNwLu5qvD4iDQcb++Lu2v5mX2s4kM8fXjxUhVoOSiKLhETDz4/jnH38UmpQPiDGVZPDErG7V4/PjT3R4TPZIDveEz/q4t6D/ZoO6UsXmvYPlC8dNZKGczUkXRWpfAWdyAyUCmZmb9e27Bqeqrt/iDWA1kChhlB7jTkNiIfsRpkP8YON+JFD5Us6toFqNja72k5TQBZl6qXbJIVTppTWAFwDKA3nrefJkO5aH+X5AJA0QKwBMJ723UFr+1miYSAXYA/xTrY/T/ZSrX4xiDu6JF8y02w+CWnIfqdf/crHv8XVJBrUfbEG9XA9WXvcjTeRaJBbRnxwYw3yBrUOkjeML4nz7m5L8npyo9RwOFDX98fbG0FWw6/FuVCsAY2GbXHejvcEjYnWwWiQ0u7kW4237gkZu7tHialqbz2Qk5GqW/utvji2+gJa8c9Bq2Xz1jO7BLaXRPzAfKmutu9zOX1gkjmdD4By4x/oWkO0b7ME2TS1BigNKvYajc1GrX63dyiXW1z7KB7drzX6kCkAVbylLbTFEiGXD+UaENMaUOVDX2pogdFwx3N4E0HXGkaDPMjlrTdE7svsvxDGsB/3uGEcVVdYMaVLjN9OX8k4q6IB7esAfB2YBrkK9fPNzc3DZAEs67Ats2hbpsqgUbuUDz+H81ptz17znZ6ZlDhT7nbLNaDxVuXPKQ2yG5UIckzn8pa7RMNrcdoxNV9fTv+enLsNvpfMOqBeh23sx/Je145ACNkQKfianLS45rvVGaBKqLdZDZTTCaicJg20l3BTcl/+cyHRcC5zXqTlYD3O6b6yYOzznJZdkoa9891+bBXbUvBHFLNwJG+rb8vJoIQurPmexEXS1tZWkYYSX3pOlqhMVW6h2v75erzf64ndCH4Wf9SEL0mfOtzZOa/XCn0JW43Ys2kdSIPo9lBkdHnNd3r74fS9TAS6+rZCPhT4UqyFoi7aPzJe56VGcT5cJP3pdUj2EsSf+42igbMQAq9+fxPHVaxyjIZ9pWGPNFyqZO4nIo4ulIZ4N8kBJBpwJ6lMGhvFGuQ6bOQ1xOm0lx1zpub7/eSn7yg+vcG0BuT1UgLbOzvJ7hRnmdt4IH4M4o6fn2+ci212oS7AwcfLy80DvNvZiT8Ug52NZxs7A/lgK3msFXcp7r+TkyLzAQ7W12Xhsn4nMmxd5ksrKa/sNR+++fRdKj59gfe/pNYhW/NpVwDuFbxkmxpSNZ9Y1h1bzYf/+fKGLYGOP47x/ZMPt6e2mk+9jwHNEOHUkCrzjsw3OuNLx5/zo9cb6ir+vzP//bOw5uO2NqtgvfcbSeWor5hrf1glJDpOvn45xkd/qbufMm9lEQbZtxZIS12xg+rLdDDyExgM0l2bzD4p1yDjp5Mr9dzfL5gv3Y8Aht34p+fRToojHCbbIFLc9tNVmga/KW+7FpejEV3xunTXMDk3g9QzOaikQcTv+LP+fwJaQw/96yZ2ml4oNIyaXtDx0cObZogehE2vE3axK0BqQAia3si/aaI8C+ig32z6N9fisn/dheC6Ix70sON1vG7o4WjYQe86GN0MA6EBPfEO9IaB7BzyNV81DZ/h3cu/fkxr6EX+zbA56oX3I88LojDyvJtgGPSElDZGQbMN0GkGo2Qd/CgcNsPrkR8F4hyFvVG3OwqCthiC37vH4bDT7QbXfrMXer0ojG8II+wOw3u/GXSG4XXgDcOwexNEBTVfNQ2f4N3TOKFZzdf2uvejZnOEXaHhxhMbyo/EnPXagd8Oexi2Af12L1kHsUxiBURr0JSLcD9sd8P20BcN4qbesHPvdSIfer7ozfsnAE/ccIMRdANsjppiYlAexI4bDu/9fM1XWcP3fyYSfiZPiPzrXtC8ucGe0NBpotgK7QhDP4j8th/hSGgIcSRHKfZS2Jb7QCoTGyMYYhjKHSIaUGgI/unedIYjlHMuWu8DoTgMpQYPo7AZyJM8oJiRgBKaZf3VycmJ+bz9ZCKl4Sv++SKJl3/Tk0MxOUEXh+120Olgs90WW1jMdhR1/CF6Ua8pLCWKRuLOZtTDbrt344smrx0JuWJ9vCgKZAOKu9u+NwrbbbE5A5ESQpm8Qbyg2xbL0Q38XjuSh464p2up+Xy1GJ+vWOpfqQ/Hp6vj42OoFsNg3B1+Nxx2KvYG0B1VvhUwHu8JG6pQeRwr+1x1/DK8woI49abOcPxNOkbhuO54zffl69cr+qcsqmt49fXrF9p5VF2Vga48wJjHdECJS6fSmo/EqC70saCys8Nsaz7IAK/5kqFQoWUqESYyVdnZQUueSc2XBUulZq3m7GXe3Gq+HMzuzRUru4qAJQCzCXthNkOoNDCsCiYp2HumBtU75gHZX9VgV+dwRiYJZkUpIFdS9s62GmibQuXQ2pnHAKD2Q3AH5KGQA+3uZGY0BJZcEwI4A0h5YwYYQu6YhsmiohlPA/PYxQuPJVGJrE4wQ6YSBRmo3MVxAPwpJ0D5SqcUKBV8vjUgO5rcp1wrAWUcqlsHwGaGaiUDZFFmKGRkGVegXplIO2jJehqmBDN0+ggwsHiO1QwqWobzKHvv7N5cZM+TA5YAzCYq1iRuodLAsCqYpGDvmRpU75gHZH9Vg12dwxmZJJgVpUBXOQBsiyUH0EfUHwuE8QCo/RDcAXko5EC7O5kZDYEl14QAzgBS3pgBhpA7pmGyqGjG08A8dvHCY0lUIqsTzJCpREEGKndxHAB/yglQvtIpBUoFn28NyI4m9ynXSkAZh+rWAbCZoVrJAFmUGQoZWcYVqFcm0g5asp6GKcEMnT4CDCyeYzWDipbhPMreO7s3F9nz5IAlALOJijWJW6g0MKwKJinYe6YG1TvmAdlf1WBX53BGJglmRSnQVQ4A22LJAfQR9ccCYTwAaj8Ed0AeCjnQ7k5mRkNgyTUhgDOAlDdmgCHkjmmYLCqa8TQwj1288FgSlcjqBDNkKlGQgcpdHAfAn3IClK90SoFSwedbA7KjyX3KtRJQxqG6dQBsZqhWMkAWZYZCRpZxBeqVibSDlqynYUowQ6ePAAOL51jNoKJlOI+y987uzUX2PDlgCcBsomJN4hYqDQyrgkkK9p6pQfWOeUD2VzXY1TmckUmCWVEKdJUDwLZYcgB9RP2xQBgPgNoPwR2Qh0IOtLuTmdEQWHJNCOAMIOWNGWAIuWMaJouKZjwNzGMXzynmn54TRcZ7ioZqskUDIgduZmXA6xgnoPZ9aih8xJCydP2gVqlB5T7lWgmoF6huHQCbGaqVDJBFmaGQkWVcgXplIu2gJetpmBLM0OkjwACyWV7iS4lA88cO7v0HSgBWMeeo4Eu2RnOxKPMLwHkwk0GEHCDk9NkHYf+OzGVX2jWo7ABIp6/yJWNbyTdA+UUpAGo/BHdAHgo50O5OZkZDYL40IYAzAG5UWQDTZIyUW27W6B5qj3avdga578MSRlHWOEq+WQHagO6lSkrXVsiBcBwwvwAnoPZ9aih8xGDKIWAPav0aVO5TrpWAeoHq1gGwmUF12QBZlBkKGVnGFahXJtIOWrKehinBDJ0+AgxyOW23ASXQ/LHDw6yrCkAJwCrmHDpTcpC9q6SLoswvAOfBTAYRcoCQ02cfREUPn1XYNajsAEinr/IlY1vJN0D5RSkAaj8Ed0AeCjnQ7k5mRkNgvjQhgDMAblRZANNkjJRbbtboHmqPdq92BrnvwxJGUdY4Sr5ZAdqA7qVKStdWyIFwHDC/ACeg9n1qKHzEYMohYA9q/RpU7lOulYB6gerWAbCZQXXZwP8Ad/kAMsG5QBIAAAAASUVORK5CYII=;" vertex="1" parent="1">
          <mxGeometry x="280.97" y="450" width="100" height="100" as="geometry" />
        </mxCell>
        <mxCell id="odeWDLO1GaSnZR0GTPzi-24" style="edgeStyle=orthogonalEdgeStyle;rounded=0;orthogonalLoop=1;jettySize=auto;html=1;entryX=0;entryY=0.5;entryDx=0;entryDy=0;" edge="1" parent="1" source="odeWDLO1GaSnZR0GTPzi-11" target="odeWDLO1GaSnZR0GTPzi-16">
          <mxGeometry relative="1" as="geometry" />
        </mxCell>
        <mxCell id="odeWDLO1GaSnZR0GTPzi-11" value="" style="shape=image;verticalLabelPosition=bottom;labelBackgroundColor=default;verticalAlign=top;aspect=fixed;imageAspect=0;image=data:image/png,iVBORw0KGgoAAAANSUhEUgAAAZgAAAB7CAMAAAB+Qmb/AAAAzFBMVEXgPDL////fLyPgOzD///3fMibfPTLfNivfPDDfNyzeLiHytrPfLB/fNCjfOjLocmv87+72ycbysaz42dbvqKT99fT++vnsi4fxpaL87u3fNDPmZVz75+XunZrhQzj409H0wr/kTizkVk3+uQPtdSH6rAz+uwDiTUPlXlbpfXf64N7tk470v7z3z8zeJxjiRz3oXyfpZSb0lBfyjBn4ohD7rgvmVirmaWLsj4njTCzscSLocGnpe3XdGgDkTSz1mRTxgxzxhx3LMyi5KyJC5NiBAAAYmElEQVR4nO1dCUOjyLYGKkBBALPHkNUsmsUsapaOOqPe9///0ztLFSEu3Xfabm3vcGZsCSmK4nx11jqFhpFRRhlllFFGGWWUUUYZZZRRRhlllFFGGWWUUUYZZZRRRhlllFFGGWWUUUYZZZRRRhlllFFGGWWUUUa/nCJHuLZvhcIwpPzswWR0IGGLk3alfd+xxGcPJaMUiXDWMJGqp8LNJOZPIel5RdPMETJmeekZGTR/Bnnu3MwpXEyzdeFK6Xz2mDICXDzERQEDv1vLMBOZP4A8r8u4lC/LBA3KDH6RofOp5AmQF/ivNrEC/6RKtoaRydTZZ5InuozLvQ8BjL+rkvS0LkIpJYQ2offZA/yXEuECMlI7sfCjsO+qhBPKjOfdfatf2J89xH8lMS4oL5ayKNZOazN/PAWLUzvNkPl4SvTYiS+0qbdJmwEy4wb7BLMMmY8mxAVBUHqMyDHCJtuZmgo5q50sS/Ox5BlKXu6sIwfMbrKd0XTnftYI/52U4HLiP4tYtDZTNAk/Z4D/UvKcspaXF5Gk1SyYGTCfQ+6yzJbkzn4R4jtKm2XAfDy5Fy3CpbrzX/3eHh+0WQbMx5G7bHFcubPF66kXkplcBszHUiIvR3pMeOn8SzjW2iwD5oNIEi4m6rEkfnGEZV80+6HvJUDZ6AFgs8lL7yCj30Eh4GKSfTlw3L6otGpmrXDZPMSa9piQMRt9W2Yx5u8n1mMQ0e8OuRZrUuWlGDN3evAGbMrKADLjTJn9bnKMgx5LcJHBjNcuKTdWCqSuYDrIzNdBBofuOF9vmS/saz/Z0uwX/sxU8kI/+SDJaIaETM4sjL/OajMMVHw5WMi+aD2mBx/MVCRZU4v+pUCbFKmRaYztV57VCw5ku3+CHRKuFVh2aPuB9UeM578lkhfUY01bLR07RtBmOOZN2c/zYd4XSifAFQ26ooDIPMNG9C97mvLtk07Kpfs95HxXEiTIvnNfKZanjWm5WLnv+F8FGifU8UvTTmSCcAHqhaFwg4pCJki0AXoAJsnMC21m5c00NfL918TqV5GwA//7S0N2p9RIjaeQv/giyOjZD7gkDNS4XBJUUXBqEnT5Q6ms3W8oO/Oc7b4GBpUjWqda3TJ+H7Xz+Zl4G3lpTQoJKBSAmeWvsMbnpHExdEWf32aL31MiJBNkQGYc5kI4TrTZcZfHEkMJnIn9u2pr7DrepPl2cQi6MDkzlRXPmeXXE4F/FsnEWjQT/orgGS5AgEzOVDKjmExXQitEJl2jycDkClWgHDOl4fwu7eGXvgeMI8MTnlFmrdEtdlvkyNS/gpcfKo2Eeizxx7QeAxASo6OF6DLxzehaU2mzlC5hYMpeZ7lc7i550XMS/iaRsYrY/5sSIzqczqiV+qFl2dZFvQuP9XuG8kspNetf4mILJ5XLRJnBppfWETKJN5eQAiYQQO5ixkGQb3gubrNxfcsnLorQ8i3L9xP3VbguLlZ7cNq30wLm2dDQ8kN9znPdpKNwMcX+x4HlGS60OngvgIPlSbtNt682A08K8N6EbfcFthE2NNZ3ttWFMAQPR2BZoTopjxt8GCV2IsVZxiVnXvrPTCp8kUNoLrXXfCRvh3YKGFbkQpLpLQb2+H5y4fm7/Ly4AwBsAR7sfF4sTZT7al2cTHauCHYlONu+UPk6CUHReHY5n8/z9Q7dw/PGk0lHWPe9ea9v1ys1UrCVyji8r1Qqs47yG706fNq5Vovm2H1qmVygYRX9U2jM805c4PFSgD9zMhl7dh9GMLGX7Uqlzf6bWM74+MOKUN2UZ6Xj/QSX8PkUoa8Qxsu0nWFPu9AMk2FrieFPCyxDM7udMqj34l9tnL8t4VnfWok7PcM7hadVsAN9eal82rrPDLb7xVrSEKaKN25BF/kFmZbuktIS5F90F+QTn1oRXhdO6PtgR1cWn1t7CRrQVCVY0urhcdsKe3CnhoX1wGbu4tRkQccHqrBi/+X8f4tQAWvrrbnqnyo95h/si34amchMmNJmKgbqJ2r+CBjJwMwvSKPMOH+9DHuJnwS/ioYQNpZKm5Uy5+aQacQH+17DgucqvvROqL79lDcgjMn/Jf9iurikU6waAzI9lQVr5edLR1KZpjbJIB+fWiFG2eaMcDHvSjQ76SF8Op5/nJPNHk064yV8LRSvq1S/zVxA2KTOAbSYu8msPAJGqbKe3zi4rC2a72ohlJxwX83KZNMHGnTXMdxdLdkKgr/qtrhgxtG58gUdUoPp4oSaNV2M9Tt01/Gihw1rXAKnHxI8SCUxCTAkan7R1JGOaS6JNwdg4AE/DBhxQcV7qXyX0PKSfyttkcjMAThax0EuaJFJG39PzdnKX1NmfK5QMPOsYHLF9qzH9YP3IccjyOB8njHsBsC/KRezV2Z5WoBogGipKL5WqJrtRWnOeqw4n4SSxlHCKnjUZCBEVkA7SMqhYIXA+hoty2vABHk1WwqFXJl1Zf4zgHFg9OhIpuLDINFjb0XS5DUjr3p+ChmansmKjQbGE54c53kGNhc0Hc3WXSh23pw4e7Kw7WBHqqprh/cMVtv2/Q5VTueaHo/QLHq+HYyreDgJ/RZ1VG7anZ0TWQEimwOvzFX8a+CUYe00sz3CquhTmGUHPidWwVS9AowPQkuFW3XDG/eDT5QYuB+usywcNjDS4JSYmUq8SPBBwS21XJF2pklmMPhUJynEMXtJAXqeZzSSUktzK6Cnb3VsIUKQVLhNGx9askNh9m1SRLk6Rklun9Cs0EUQnQqURZ40xcBnIQDfG3B3hFdL4hi3SdjeuVJ0UL6qF26nkbAXPOeiyqxe9sVrEkPAmLUdTDnP8z9PYoyAGFhPvPngmR7DFYygiU5t6c46RHDESkwLWOxOk+LAea29lqOUDOnsRt/z+enxQVnP1C6oS4/1aT0gYBoL7FL6c9ZlPOF5ucEds0PH2qmuyncRGFMBI4Mpdpz3HdaLXV9oYBx8ZcEhk3lq+68Dg6K4oI4/ERjJ9ja/UJ/9isLFEtpFcy96yhzPDxlitbCJiWcC0FGTuecfSUyCDHCzD3pG6QuHbwQGQLnTNhmfEpvuBp+0Tukylwy9eReEQDZJQW2pgFF+VgoYx7DINWnAdJrzlEuAkY7DXgNTxXpDYszEaflMiWFfX+9N8rUe85PUPoef7AKlQ8hgpuwMV5+F/QL7m+rr52n/UgcCSg0MXn5JAqYmhE1f9BiYQiDVyDA26oypg3KXiRRN/01gQPrG9Aj3NmFQdSDEVzbGEA6rty8BjFhWk90WIpEX1mOOcCQu7ZvKH+ViAJ2hAWToXDH0HJ0FzfWPvbIqqECI4U9PHOoxBQxb5pKfbl3UwNA594566DSPECa1qIFRXDoCxrC6pMsWdRLowBAsjmXal2D3qmT0/nxgDO2GnFgyVLiUDvYlHKfXMdSygLpSLzuDNvNwxcxENy3S3bJX9tciWCwCnQtLAQMyggvVB2BwnfQIGG/HwLBDkMZmKr4HjP2NPD+OXiagaRfs/3XQdxFep+MsC18BGGFMFTKLnZKXQLJFd7jgAp8q/63EMd2hEFBKn2N4GC3Nf7DvS+9ZSkZ7z7wicKzKTJrQRDZxsXcsMRMGhlVZ40BT8CK+Awx5EjmTAitaabA4hL5nxQdxlVP9R8B8jrsMD9JJkKG5VjoEJ1hwSb7qOLCDJW/NIGQU+4MEGfoyXWOm45ijlF8KGM5wlBd8L7tMlu0IGJtS0i3RJ67vPMNR5HqG9RKYXJL2V3fByyjNxQiDk62mh8oI/ENggg8HxnCXU64iv//rm3mEi9JjWDoG/OiUdXFTos0SmQngy0K69u84iambp1QZTYIC50nIJmNQkwYmICkqB+xUtX0pFKEv+T1g2J+h6mpMYRva4p8o8U2AUe4yqYDgFWBkWpV9PDAQP3bI90dkZoCLI1QCTJWON/qUfwXRUsjcJSlWGXxj21O0O8Wjdf8fAaOcpzqBrFIxTVvFMdjWWxI7Sz67vVMd73oYTb0CDAkVkna9UNy4AdUfYPrcUtPgSGJoOLjF4S1givhBoE/xwRKjZAa12f0i5GUWB8vGePM4yItkI4Eyw3YGIECtIJLVdLQzR29m+hEwKnRpLX3XtWiF0Wx5LkuMF7iuHeQJ8ZMw/EaoVQLb9Vzbalb6z1WZ4RESE99laPyeAkYliDAspYK5WQeTMYvExvQoFR1aob/scubaPlJlGBNhzjwILY+XIj4YGOEjy0lm+FEkb0+i+XvhJmv5rsPI1A4y4y6+cZXD/LiI7sfAsJQUZrvdjF26mc3AmIXK/W7CL3+YggYLOVov1+92J20YwDQUz4AJSeLLuxMUGindE+XGjdV7bzhWBaqVe71emfOtFY7yIcptTypc7gtxdQoYR4R1GlijPWnz2shHpv0NXDT9Jjpldr8YGd7QZ74oTfZksjmTH9lu3i+0NnPTa+4/BCYKu+ah9BbbCuEmrnFOHeCuaM7eJA4z6L/wGTCWTglX0S0UwqNFFXOqvpdG2DPNw534d8VKAExO9iw/LTGir1fgdIOp94Gv0RGgg4u2o/ZdTng+q42WrWcl456WGUoVOCBWYJh4Xpnz9OYm4tXzGiFtYfm2S1RmVHbGd/IcJTHEDWJI28dJwvXTvE7JCWP/mSobcwgM6syFYMXBsMjEdpqJIiypbpM6N1y5tPlhyNmkjFLL4lQRAwN3vuR+8YJTzOfVlh/3WlCJ2twsWmqncm4SCOE3OWpBXI5niOfojeaBB80K5DLUlcx44vnS8tGSTqSB4UZe5/IwX3v4UicGpqYXnGv6xRv+yTRpCCx0pQZGM8nSJdZ1KsTxmjgelSHlh/RPyrm01NRKcD+vr281bYboQFSldZqWdNHpqgaN+wW17X9cOYZdopk4DztKTc2Wyzrbl+fygoTIMNculhMWq5NFnSde8VA74+3m02n33k3BKvFkeVoc6yhU+ONKudUotMqVHSHIwDT8WbdRaEwrfd2dDN37fLlVgJb5Or4z1b3vTqeXqSpXe9drQehZ4gpmb8nLDOl7h/a4XZxCo0JrOq/UudDD7bTLcGJeB7eiXe61x57X703L8xP1XgnpuTO4b6PbNuxwUi5Wdr+7BPtAYOBIlZSEx3YGxJrNC74A6xWNSsiQQldeaaPpBXXWM+3DPjQXczHP3psh3QXQgZ3C8xdiuRRBAB6dIxUwhYW9kMtO4AtDLxKBLvIDaGksAlo1pY6CZH0ogksDd9mxVW6bp309ZagdcGA8axE4y+USRmZRUZaDuxiDDtwfO7Whb9eQgsadZNEFjsVZ4LpTuAisj3snKBlKYGklkNJT7rDS5eplfi/IM8oHg5lj9yBgH6u6/MeSziEjk3sIMMUrHelzb/BGfQ3WH720V99zw0GqfHbZj8b8wwa/nkDC2d5WAogrlWnX1hhxec0FcbxlOQFGqTupkPn2LnfSTUf+P00O56V7wcf5T7+eJMdQ84DrlDwnWUYpAi7Jk3lueHCGQSkYl0mzpRL7BZ16X93VrwFGBZhffKe7n+fYTikIETTz00Jh2rvjGlaMLWVo9Sf1ydgKpZGY7R02a13eBULtcbKPl5Z/in4JMBEmc7BI4ItsgHmDeB9LO4k3pBt4y6Xna/OCW7Huu+hK1sqTQym5dH1oJpJmIHr1XwVMI3gfSzk/mn+zyOcrUITJdZPqVdUZ9ICEl9hHsKR2ydSRd0+kIgOZtqIOZklSK18/R57yyt7ThyE5C7f74q+795rE9qJ+JSwqJkm+K/52HEG6TpcmzsUhhFRFmAaDadMavl6N+kkS/VauVivZ74quhdet1Wq98OvtTj4ma/4yn6LJATc+r8Nlyk10X2sG6i7scc7xnduBRei67ns3awobO3lfH38AeWOuDH4VGaG3UlanvHXc7IrXmuHSMH57//4t/7/iDSjyx7HJn0/SVpmuufuC5azHMC3QcQ2VSXwFmQSX2fsNrnx/9lb+r/z5oeAbJ1jnz1kufBWutDHMCercrCs954h5HlW8ADCzr7Df9OuQBJYzY59pswMuvEZDyKCdcY5SNV7IJTLm7L2BYUbPSOoc5NxIISPCS9Zj7UBtXAgmpkIm3cwtcg5nFmR/WeaXk6/y9iAz5CdHWH1wJC9I0p+we9Y1kiyrkpdMj/0WkiJRU1pmSF7YvqTaBRO2M2VDabO0vHz8uP/nCYy5X+c1XnK6IN7nou9jXEBKUGZSdkaw3Ud/7Ov7p38kKZZrdxgdYGVfUgE05gM0MuWOC/C5c7Y6337O7kuulEqf+CdXv+IWOz/Rj25/+OcZRZ+aRJDaN+teLBaip/TYy5ykBrC8XCz0HzCr/5x9cYwIn9mJIlWKLiMRGc4LF0JIXapuJAeGi/tfvaPt7lJ4LvUSU4/fc0WOOS2huSPwGh6JI+P4cLUQ0ae6NVILQ/Uy31CFJC8FQTr+hApSdTM4+kl5MSJ5tYoiGa1u9RLx35ur6GWz7UCf3Q81R737SRh5zcnR2Ja7OxD36Ozq6uos+n6oGqXu40Q4ju0VCPDVFs878cNNgkx8vY6il6P6MHIUMnptkouHXpNh/76W1Hkpefk5UY/OBoNtFO0356uIOBWdnV/FeBSxbNAUhgY3Z/R9FN8OpGJS0DIntlWqLYX0lIuI5eddEPF4eL7ZDG4j1SfzVP/if6J4eBNxT/gTP2xkfH1+G2/hB5vG64c4UpdFt8N49SCjYzA/lhJkvh8woszkdEle7ttP52Gis83gJo5vGJ59tJdnyE86knuwaHsZyS2wZC8NOhs9PsRiu0f+BFOzcBGUqkvP7o9VMslpNxiYwd/yeiP2cn8GvZ2BZEJ/W1BIMfYGPckzcT2ie+BXjgOAn0WbwTVeGe+hJQJzhnPg7Awuk9HwfItD2GLZx2fYG2GdJPuUavW3cAEP4KR6aPbz+TGQmIfBmdw8ADCAzvVgtR9cxU90dDXYxqvBdjvabM5AlcWPePYqEvv1hhRb0GrV5otStSPAXy/zRja5mCpgZDzc/D162KwF9Lvey9HDaLA+i283o9EqfhitN9Dd4PYR5ATakrK83Q6uRwK01hDabOP1ej3YrOInnDnX6/0G7h4/bkbr/WcIDa0iX9AGJbPW67+ZOAelZ1/kD81+2jACMLfrm8fN7fl2df64fThf/T24Wp0/bR8AmHMA5nz7NFit0MZsBzdw9haU2fntFmdC0JrXzXqlKirmt/tql2eHrYEZDjcPYrS5OhsOblejBwmHV5vr/eA2fhxFD4PhVj6MtlIBg7ze3AxHMA82N3/jJFjH68FwNRrtN9dn+/hhDdPiag9TRVw/fJo2E1bnrl4/WVqvZPdT5PnczH/Pn1xEYK4GgyGA8DQSICAoMY8bI94qYFBiBjcSPqIQnAHPjP168LAHhRK0un8Va/Nqp9VbLGa1JY0j1MBsNjdSbkBNrq9j0FP7zVMcP41uB6PRZnD2MIqj+GYUx4nEoIGHlpubwdWQ2khQZfHV4OxpMLpCYG7P9wAOfLP5xPeyC9f+b17Hi38I853LYghMNNoIAGE4OAObjcDg0S3ICZjhx/NVvL8dPAIwIFRwFnQYeHKbB1Jl3cWyYBZkd2r9dVmwO+gBJBKzj+NIIhqgm+KbDWjLGPi7AsnbbgUwGpAAYIagLq8HuE4LhyBN14MNyAW2idYwUZ4Ge3H2MJDXDMxwA19sPzcf6PwXZoMXld81THDCbuMr+P98u99s1uCc/X1+K+noSo4GMHO3w80TKB78uHnYQOvoavO0uYkcGbTKgX1vVjt3ZmNqzu5zO88xwlYZgXkcoClAYEALjtaDW7h6vT4fAhrD61uwMTG2Wd+C74HSAY8L7WhmjKJovR5eX4Eqgwtu5Oj6YSOg/WqwvpHwzcPqc4PNj5oV+ydwx4B7N/t4e3OzejqTN1s+2sZnj0PQ6vvH6yE1O6OzwJbh9SOmC8LTWWjYs1LH3l0WJ8G4h4XMbnsGYWe0eiK78QgCBr1dX4Hw3AAiEDINr59W8fARXGL5dL2KV0+3ysbIx0fwup64zeM2Hg5vrx9FdHVzg8eRGF4PIxjL49knBjQfR9LgYMGIDfBQYwzY48hRRysDfKI9fIgNmZwFKcMTeK1t4643i16JHhqCcnVwEtM8UYzZAugcPGG8joQHLhNGjJ/iWFI/kVzF0cOaRgAfIfSn4dAN8G4xt4J/MBMAgTBd/a8glezCpBeX6Tt4Bg8g6tyMzoc0mXW7Q0mVwVXiMvkzCoKWpCOEQ9X4OLo7/IB+APwGnKRM3miO+muz0UkF/EbtoVfdqq6pQtUx9NbGfxVx3H50Qkb74eMqNhgxxzFeSy9yxT6RIzUz0exx8ZVjaGspb1dRcqdDP9H2EbSW6iu5twLBUTlWXaElP07D/9kU/Uq98UYy5ZfeI6OMMsooo4wyyuh95Ij/ZH7g2/QWbz4gMyP+LwPmTXo/a/4fcfIo07g+gyIAAAAASUVORK5CYII=;" vertex="1" parent="1">
          <mxGeometry x="134.72" y="528.59" width="132.7" height="40" as="geometry" />
        </mxCell>
        <mxCell id="odeWDLO1GaSnZR0GTPzi-25" style="edgeStyle=orthogonalEdgeStyle;rounded=0;orthogonalLoop=1;jettySize=auto;html=1;entryX=0.5;entryY=1;entryDx=0;entryDy=0;" edge="1" parent="1" source="odeWDLO1GaSnZR0GTPzi-12" target="odeWDLO1GaSnZR0GTPzi-16">
          <mxGeometry relative="1" as="geometry" />
        </mxCell>
        <mxCell id="odeWDLO1GaSnZR0GTPzi-12" value="" style="shape=image;verticalLabelPosition=bottom;labelBackgroundColor=default;verticalAlign=top;aspect=fixed;imageAspect=0;image=data:image/png,iVBORw0KGgoAAAANSUhEUgAAATgAAABJCAYAAACpdjq6AAAAAXNSR0IArs4c6QAAAARnQU1BAACxjwv8YQUAAAAJcEhZcwAAEnQAABJ0Ad5mH3gAACvCSURBVHhe7Z0JfFXVtf9Xbm7mOQHCPCoyg4ACCsikFHEszra2qK2tbW0dOqrt09raik9fW19p1YrWKgqKqAVBVHBABcQRHJinMEPIPN6c//6uc3e4XEISIfb9E/bv8zm5uWfYZ++11/rttdbe59wYz0AcHBwcWiAC4U8HBweHFgdHcA4ODi0WjuAcHBxaLBzBOTg4tFg4gnNwcGixcATn4ODQYuGWiTg0Gps3bZStG9ZKsKpEclvnSFpWjlRJUCprApKUnCo5bdpIbGxs+GwHh/97OIJzaBTeWbJY3nh9saz94nMJVJdLzw5Z0rNTtsTFxcnuopDsLY2RcUO7SHJSvAQCAQkEgxITYz5jg2aLlZiAIb6YWHPM/G/2VRtS3LG/XMpCQends6ukt24vCcnp5rq48B0dHI4djuAc6kVNTY1UlpfLtNt/IQvmz5e8XbslJDHSPj1ORnZPlnaZQdm2v0KWryuUKSPaSG5mkiQmxkmsIb7Y2DglulhDWkHz3Sc7/1iVIbj31xfKjsIYOWPEQDmpbx/pNHCMJGe3N8QYE767g8OxwRGcQ72orqqSvA3r5O6f/VjeW7Fciqs8Kan2pKxaZFTXZOnXPkHKKkOyzJBVt1ZJ0r1NoqQn46nFSKzx5IIBMUQXY4iN72YLfybEBeSTzcXy8aYiyUgOytj+WTLmunuk4+CzDAEmhu/u4HBscJMMDvWivKRYViyYK1X790i8ISzPeG9mXJTkYIwJTatk54Eq8UKe5KTESd6+ctm8o1w25ZnPbWXms1Q2bS+TjXxuM1teeJ/Z1m0tkRhzXUZSUFZvK5HCkpBsfX+h7Fu7wr+xg0MTwBGcQ72orqyQbZ++J7EVhZJkSM04X6o0xkmTisoaKSoNSZXx6pLjA1JaUSP5xSHZVxCSPWz51bJzn79t31steXsqZduuStm6q0K27KyQ3XurpMQQW1V1jewtrJId6z+Tgp2bxDNhsYNDU8ARnEO98GqqpaJot/HYqiXFkFiC0ZgEQ27JcT7ZQXJl5TVSY7yxqhpPSs33YkN0xWZfUVmNFJaFpKC0RgoMkR0w5Me2v9BsBdXms1pKzDkkSQ4UV8n+PXultPCAKavKv7mDwzHCEZxDvSCXlpwYkNRksxmCSwkGlNxS4gImZI0x3penRAZRGX6TCkN0ZcYj8zdPysnXVdVIqdn0sxIS9KSkwmzmsyLMZWUVISkprZIKdnjOg3NoGjiCc6gXLPlo1SpL0lITJNUQXbohObaMuFgTpgaEaLKo3HhkpdUSMq5YBV6cITm2MiU7/7M8FEV67DPfK81+PDj1BI3nR7jq5r0cmgqO4BzqRVxCgnQbeIq0ys2R7NSgtE4xW1JQcgzZJcbGGFITKakOSXFlyPwfUOIqMSRVbLYis5+N/4sNqekWMt/NVmr2c165IURDaRKq8qSyUkwZsRIT4xYLOzQNHME51Iu4xBTpMWyStG7XTnJz4qVL2wTpnBMnGSnGewsYT6wmZEjNeF7GlSParDDeF6RVZT5Zs9u+XZIkpMRKZYzUenal5niJeno1xuOrkdiYgFRWG3ILJIoEkyQQ5xb7OjQNHME51AueLMjqdJK069Fb2ndsK7nZ5nt6nPHMIDdC0BrjjRmiMqpU7sWYfT6RpabGyvjBmXLluV3korHtpUeHZD0f8tPr9H/C0RqJDwakwpTXqltfye7YQ5+AcHBoCsT+l0H4fweHw8BTBYFgvKGvkARjY41HlyzxGW2lKC5HUrJzJTUzWxLTMiUp03zPzJKk1DQJmnO6t02Wy05Pl7PGddGnHjZsL5UPNxWbcNSEtaZc8mwBs8UZLktKMB5heoaM/foV0nfYKC3DwaEp4J5kcGg0Kgr3SsmBfVJUWi6FJRVSWVEpBQUHZN/+fDlQWCQlJSVSVFQsBeb/zFCeTGi7Xgaf1kXyNhbJjEV7Ze7KEgkYwqwxXlucV222kMTHGG8vOVF69+kj19xyq/QZfEr4bg4Oxw5HcA6NhlcTUs+rxoSXkJS/r0ZCZmMfx/zjNVK4fqnsWPRfcvLwzrJxbYFIp/MkY+DFery4yJBhUaGUFheZrVCqKiqkZ9/+0r5TF0lKSdFyHRyaAo7gHL4S7Ptiiaydc4sMHgHBFUpKr8ul46hrlOBC1dVSVV1lPkNmM5+haklNS5dgnP8mEgeHpoLTJoevBB4endnEDp/hF4SQ0+PNIklJyYbU0iQjK1uyW7WR+IRER24OTY7jyoNbt26d7NmzR0Mo3mPWr18/Y2hJX/nrefLz82Xnzp2yb98+vVdWVpZ06NBBMjIywme0POz9bLGsefYWGXJaF9m03nhwvY0HN/Ka8NGDKCsrkx07dsjatWuNJxeSFBOitm/fXk488cTwGQ4OR4/jZsiEx5966in5xS9+ITfddJPcdtttSjqQ3VeNzz//XP7xj3/IDTfcoPd+8MEHZf369eGjLRsNDR579+6V5557Tq666iqZMmWK/OhHP5JZs2aFjzo4HBuOK4LLy8uTzz77TD799FP54osvpKKiInz0q0VRUZFs27ZNiY57b9myRWccWz4gtxoJxHiG6Pw90aBf7CCDB1ddXa2fDg5NgeMq6YHxVFVVSWVlpX7+p6JzDDjy3vz/n/Ac/29xkNGC8QkSG4wPf3Nw+M/BZXWPEhAUXtiBAwfUQ2sqwoIAydVt3LhRPv74Y/U48fi4z5EAUUOalrjxgNjH/4WFhRqK79q1S4qLi/W8hsA5tI1rS0tLawcCyrUkzXbENpvzObeMh/D3V/ivUzrCWBIMBjUn2aVLF+nRo4d07dpVcnJywkcPv6dtGxvfkUtj2sX5tAcvnvQAOb8NGzbI9u3bta3H2n9cTz6RHC9lIm/0ojGgbrTL5mrJSe7fv1/bZGUfDaIP2k3d6SMrF+pAGbRz9+7d+j0ayJNrysvLj1h+S8FxM8mAAl533XXyzDPPaOdiRK+88oqcdNJJX+qXoFAslJcQl/wRSoKRMmHQvXt36dy5s6Snp4fP9rFgwQJ5+OGH5fnnn9eZwokTJ8rNN98sZ5xxRvgMH1u3btVyITfKRsmZDIEA2rRpo2UPGjRIMjMzD8ltcS7Xodjx8fFKFomJiarklFlQUKBtpF6dOnWSE044QSc5ogFhQKZMxnBvDIFy2rVrJwMGDNDy16xZo/tRm5EjR0rbtm3DVx/E/p3bZc3SF2X1i/dL524Z4oUC0rb/JOk28nJJa3fo5AFlLlq0SB599FE1VuqHfK699lo9vnr1atm8ebMaKm2gHsib62gbpMX37Oxs6dmzp/ZBdH9yDqkBiA0C4j6QB7JlUgPZQq5MbCDrLwPkwICEzKgnckOOVieQD31GuXXpGSRIO7iefqRulJmcnCytWrXSNnXs2PEwnXr//fd18EMP6KNhw4bpvWknbaR9CQkJ0rp1a21X7969Ve9Jk0CgkXrLcerJhFuLAwR3PMCMcJ4xGs+Qg2dIwDNG6xnj8YwihM9oGMbIPKMg3rRp0zzjaXhGgTxjJLoZJdPyFy9e7BmlDV/h46WXXvKmTJniGYXSe5977rnekiVLwkd9GOX07rvvPm/IkCG1ZUZuxhA9o+zevHnzPDPSe4aww1d63tKlS70LLrhAz8vNzfW+//3vez//+c+9ESNG6P0iyzn99NO96dOnax0jyzAK7xmvxvvVr37lGZKoPZ/7Dhw4UNtw6623emZg0P20xRB3+OqDqDFyfuP5Z7zbL5noXTc41/vl2I7e/VN6eLNvPN37ePZd4bMOwpCCd88993iGZLRcY4jeHXfcET7qebfddlttfei7e++917v//vu9yZMn19aRutDun/3sZ54haM8QTG3b6LO33nrLGzt2rGeMufaayI1+pDzagxwi5VIfOI++mD17tjdhwoTDyjUk5RnC1uOGkD0zMISv9GE8MO/NN9/0fvCDH3iGXA65ln6jXtdff73qSrRO0VbO4zoz8HkzZszwpk6delh/I7PLL79cdX3+/Pne6NGjtU85RvmGAL0777zTW7Vq1WH1awk4bp5FNW2Vf//73zrC4YEwQjJzxyjZ2PVXRtHkj3/8ozz55JM6WhoFDx/xQdjDyAoGDx5cWy6jM/vxshhx8aBOO+00DccAdTOEpLO8hE18jwb3YrQ3ZKbeACM7IzTAA3j77bf1/rSNCY0VK1boJ6FLJBjd8UAZvfv371/rVSxfvlxQBbxMPBLbNj4JAymPkJmwiHuAK664QtsSieLCAln28jxZvugl4UVI1aYpvP0oIzNd2nXvJW16jwyf6QPvEi+N+uNV4ImxfMd6t2bAkE8++US9MNqCl/T666+rLG3bkDNeE31LWXhMeCa0kXP//Oc/iyESPacu2bIPb5d+wqNHJwxRhI8eGZT3pz/9STfuHa0PlIvn+dprr+kxPPDI8HvmzJliyFojCdoeDa7HY6ZN/D906NDwEdFr3n33Xf2fY8jPkNRhE2d4cujHCy+8IM8++6xs2rSptv+4jjZ88MEH+h0vNrJ+LQEuB9dIQFAQJARjjQ2CwZDYUBbCCxQShcawGgPyJA888IAaMrkbFNIaSlpaWi2JUT7HMMQ5c+aI8ah0fzSoF6EO4QhhDaEopAGxsqHQGPLChQu1PEDIsnLlSjUSCIf9GHmvXr10gygIXW1oUx+oe35JmeQVlEheYYVsya+QVVtL5fXVBbJ8bWH4rKMDMsBYIWnqRNswSkI0jtEvtAPSYAACEOKyZcvU8DmHcM94pEoWJ598sn4nNKNdhLCQDjJoCJT1r3/9S9MPyKYu8uS7yiM/X55++mkxnlytzNElBhMGDfQGRF8POAZxvfjii7qcxpKTBddAonbQ6tatm6YoIGj6m+MMSpFyQ1528OU4ckOvX331Vd3XkuAIrhFACd555x1VAgzHemHf/OY3dV0d69tMiKiEArFAhihkQ6BcvCXyghAXRoJHxUjPejkThogJGcWEGLr4lftiIIy4eFTRyg44B+X+1re+pV7hT3/6U11bZkJTJUxAHclhWSLFe8NQMUT24dlxT+rwk5/8RG688UYlE+4X7RFGgzbxQH18bIykJcRKTkpQ2mbESbvsRMlM88n6aEHZEBGe79e//nVtG3Ukt0ruzcqTAQZvFsNmY58F55199tliwnj58Y9/rGXYBd8MVLSRchoC5zBIkNOy/WDzq9/73vdUHyLzk3hOeJEmXFYZv/zyy6oneOWAa88880z54Q9/qPX62te+pmQEaANECCmiI5GgHvQJEcE111wjt9xyi8rEhL1K3vYcco3f/e53VafQ2UsvvVRSU1NVXwDkxwDb0uAIrhFAQUjoEj4ClIJk+JAhQ5Q4SPDiEaBEHIOsCB8YVe2IXRdQdBScEIRR2JaL8aKEKOsvf/lLJVAMB/LjHEgWg2FUjjZGyA0j/s53vqOGcv3116uyQ3hMFnA9mx3BMQ4IE++N/Vx/zjnnqLF8+9vf1uuYEMHbwSAaAmUkBGIkK8EQW2qcdMmOlz4dk2XIiVnSu3Nm+Kxjw+jRo3USApKinrSTkBZPFbLBWN977z0lNtpjk+fIm/YiR/qKyQXIjXD/1FNPlfPPP18mTJigx+oDJAMZQKLW2+MaSIZ6IS9kDslRLpMx48ePV+8KncBjwivDe7fXjhkzRq+l3xmYICOugXQBfU6ozuAUOcgg77i4OLnwwgtVHvQ7GyRHuzgGmJhCj6gb5VM/ykc+gHJaIhzBNQKQFIrMSGqBcjLzh7L8/ve/15lASAriQFkgLrw+G37UBQwOY6Fsa3gYL6SGQtr8GESKckbOxOGBEY5FExy5RQwtctaN/y+66CL1Au31FoRuGBz1xGMgNIVM+/Tpo8dpD54fs3B4JNH3iwbeGz/4zGckAoGgvlfuWIBcqc+4cePklFP81yrxHe+SOpP3BMgSrxQygcTIq9E2zsWD+u1vfyvf+MY3lMAhR/rq4osvriUlSypHAvLCS7TeF6AOf/jDH5QgCREhXPTirrvukr/85S8yY8YMue++++S8887TgRJv2fY5HjtpismTJ2t9bR9Mnz5d5c456CD3Re8iPXfbPzbcBrQ1NzdXZ1AJRwFlMABAaFyDrKhbYwat5gxHcA0Ag0YZbQ4HoJjk2vB8CDMgGjw2FJBjnAdxkeSPVMaGgGKicJBbNNjHo0wkgSmf+3CPuggHBa5rREbJORYJQr7IEIvy7agfCQwYgm1opLckFH1ejO47dnVDPhhtNFHjHWHgyIMNcsPbwcPGs8F7Rb7Uiw35kaukHxmcbr/9dvVWyddxXX2AbPAOKcOCgYXcHp8WeGbDhw/XZRiQFvlU+oy8oO07yBRPC/labwpQV+pMm2izHQxZQsRAakFbKDe6XwFlICfbF1Y2gGN4tkfSlZYCR3ANAIVAoVGwSEAKKBzEZ7fIc7jOkl1DsArG9dyrLlKkfEIijI/zUVyU9MugLkWGLKxhcW/Ca+4VDRLweI1Hi5iAIVd+pOEYgCwxbuoXSS6AcJ1JENtGyAWixms566yz9PlfvCS8NEiP/ZRHH1Img9hHH30k9957r4a49YF7RMuS78gxcj9eMbnSxx57TGc9qR+IJB3uT59G7gP8zz6O0y98h4wiJwgaAtdElhmNho63BBzXBGdH9PrAcYwlUnlRPPIXJO95aJ/t1ltvVbefyQdm9siDMfpGjsrRoDzKskqL0TLDyXKUSGLE4PASba6OY3h03Kuxyn4kMPpj7Gzcn3CZGVruBTAw8kXkf/B4jhp4b4bkjhWQP54znhdAFsiH0JOlGgCZIBu8LCZ7SCXgmSFryI5EPqkFm4vq27ev6oJNK/BJuXwSTiJ7Nkge+eD5cI0N/wD9YvvHgrwZL1mA4Ag32SA6O/MLIGsGDtoTeS1y597InP/RFeqITtmZdYeGcdwSHIbCrCgzYRh0XRvK+OGHH6onQChhk9UoG/ksciYYCLNmzHqRoyLfxbmEJKy6jzSCaGCIhDRMLHAPCAYywSCZZSNRjsExe8YaJvIvnAPhcg1LOCzpHi0wehLtkfkrZnXtEgjkwP+QR0OhWzT8mvl/A+Y+gSYgOMByBurIrCTENXfuXM2JsVwDeUAA5OiQL/1LLux3v/udLgHBqyLxzywxOTgIj77kXDxoSAYZQHCEuZRLf7BxX9IO9Bk5L/rYhvN4gMiJlAUhKPKiD1l/hhc3b948/R+ShODIj1FPvDM8O9ZA0td46ZzDNSwtwTPlHO7DoEZuzRFc43FcEhzKS76MkZzk+5G2qVOnamIY5SURTE4EoHCPP/64rmt64403NIdDwhaDQ8FZOgAZkHupTxkxKvJazKBBihgnRoXBXnnllfKb3/xGlzHgHbL2jXqz4R2SfIbomgJMbJBctzkZ8jysJWMpATN7/M+sIWTI8cbAVFOqTcReFfJ0q4kx18YdmewbA+TDxqBD4p6Jl1//+tcqI/ZZcqOfmGhh9pKEvw39IagnnnhCZYmXDIHjXTGo4CXRPuut007aDEH+/e9/143/IS88KTxecmc2L0m/oSt/+9vflJgIh+k/6w1SLwYSZjv5n/6D5ABe2j333CPTpk2TRx55RCckWFB+5513KmlTf8iNiR+u5X4OjcNx68GhdCh9QxujOWDNGyQQCUZdlmEw9c7CXmZZUb6xY8fqeqPGgOQys3p4ezZBzT0pC8LEcO2iVeoMzj33XJ1waCpArngkzPDZvB5GxQSENVA8RkjerqWrD1U1nhRUVsvmggr5MK9UVm4skY27KqS0ouEH/euDJQrqyABFWIfXY0M7jlNHltdAQHjTkBDhpJUdHhneHOv77rjjDvVQ7XINPLJLLrmkdpKHvowmdEsufF599dUqN8q25RMSQ1Tohl1/xzE8SrxFJkPsteyLvJaIglwhJAkBW93jfGbSWRNZX0TgcDiOK4JDYTBcC6tc9W1cg4IRGhDW8DgToy+GRriDEkNA5FKYgWQmjoWnLJa1sGVZ46AOfAd4DRgjXhreEksagCUYPAv+534YK2SIEbKcwII62vL45Br7PRLU0RJ3ZL6H8jE8jB7jhOhYTEu9aCtrsu6++271iLiOdti2RIO78mPOFYbkEmJjJDs5KOZD8ktCsqvg0IkaQD2pj60vbeF7XcDDxKsmtGRAIM1Am7iWEA5PlEXJpAvwxCAnJhTYx6DDPurPo2f0G565DUmRO4/uMWDRboBcOGbBfWw9aT99TF/j7eP1cQzP3S4p4nowadIklSEEZwcQvHD6m8fdbJhLW7gO8qbvAeUymDETDHlbwrX14JNz7b0iYWfII+sdDa6z7Yxsa0vBcfM2EZrJM4OMkhBAY4C3QliBIjK6o4CELXhrJIDJnUByKCjkRgJ4xIgRGkrgFVmQoCYcIl+EgjLqs5g3kgQxahL55F74ZLIBQ6FsQhkMgpwba8DIGUVOXhA20S48GkgAUoKMrKHSdhSd8IxzMU7KpF2UQ86H0JrFzLSHPBOhFwZFXpH2sFSBsPChhx7SNnAf8mBMtkSiqOCAPPnAfTLv0emSlRSQ7PSgJKcEpduAU2XwxMtk8IRDPU8GB+6NTCEb6syzpDxtAFi+wbO/5KKoA94XoT9eF3kuiMqGjFzHomvkY4HxEgLi6TEJQPu5p9UBrmPwguDwkiBOC+RJWMvsKuAYco08B5LEy+ZRO+THLDQkxYBEqExfQLyUHflkA4DIKJsUB08qEI5ajxkyJrxGR1hbR440UqcIl2kTfYmOkNLg/EjMnj1b20Df05/0d2RaA7kgX+qB/jIYkJZoSTiufpMB4mDGqrEjlSUuiCUyNEBkKDFEgDeAMmNUkKAdoSPBLB8Gyr0hB8gFj8kSUCQYdcnnMFPIdRCQnVDAYOrynKgPhswnx9nsSB+J6HbjPQIImLwPr3SCRAibeWwIY6b9lEd9mOjgiQfai5GTmyNhHwkIbs5f/0cW/vNvkpkSIzkZQWnTKkF6Dxst/cZfJm0HnhU+0wf1ps2QG/9TJ8q3hhhNcOQ6CdGRCd4SAw4yQvaRa9DqAqTGEyBcYz1RSAdv1YalkbDeHn0NuD9hbyRJWEBMyJGXAHANdWEygQGPa6ys6wLXMkBB2DYdQX0gR66vS0+QFZvVB/rb/m9Bf1vz5lh0HRiwIX0IEJnT18i1JcH9bKCDjuSM9uR4IA2rEhgmXimGgceKoUPgeDw8CkToBBlGotgQ3Oz/vV/mP+YTXFZanLTJTpD+o8bLwIlXStu+o8NnNg51ERwhNPVycGgIx+0kg8NB4CEQ2tlckgWERohD6GWXiOB9kkvi0abokAvUGHLcXxWSDSVVsmpfpazcWiXL11XK1vwECQUbnqBwcGhKHDfvg3M4Mghf8I5YHEtYhMfGRohOaE4uEo+JfBuJeIiQfE9d4Tjr3RKTU6Rtx87SqXsP6TNoqIy74BIZOvZr0rZrD/19hi8Dm58ijKM+TBaQL4vMRzk4HAkuRHWoBTkbwlWS5jZPxT7IjpwSeUNmcu16wCOh2JDR/n17pfDAfgnGBqVt+46SZggptg5CbAgstmadGolwvEsIjnykIziHxsARnIODQ4uFy8E5ODi0WDiCc3BwaLFwBOfg4NBi0ewIzi5ojQb7OFYfWPKwefOW8LejA4tSWfkfuV4sEiya5AkH3grREKLrzPe6ymwsGpLBkWT3/xuoI3JkUS4bTws0hGOVXWPQlPdARw4cKGhQZ+sDdeH6r7Jfkb399a7miGa1TKSoqFjf1LF58yZdhW1XePNEwdq16/TxHZY7sJwgelU3CjBv3nxd23XiiSccdrwxoIzdu/fIyy8vkrZtc3VmMXqpRFlZudbxs88+l/79+4X3Hg5WrG/cuEm2bNlsyuENFnFKnLSBBbZ1LcE4Epjp3LFjp8pgx47tKpfIle3Mhr733kp9TIkFszwhAYFwn6ORw5eFfTaTx9FYMd8QMPwPPvhQPvroY1m3bq0+PsajYXU96E/bkfe6detNmyr1CYD62sRsLBvtb+yD6/Q7Txnw+ByyZAY3+qmAhsDTDQUFhaZu/vOlb775lhks/bIaI5NoQGo88cKM99at23RDTugNsmoItIn+YLY8Li5ebaYuMMDMnPm0nHnmhPCe5oVmRXAo2PTpf9efW8ODGjnydN3/7LNz5J///KcaRK9e/hopHsspLS1TRbbGPmvWbDWIwYNP1uMoBERpDcKu1Oc7x/HW+M5+/vcVIk/f+9W7d5/w4z38XGCpHkfpMTIMDg+OR524B3W1yy3sI1QrV74vTz89S0mXx7xyc9uYNjwuK1as1OcPU1KSw9eWhR8+P/xRGwvWiC1evESfNX399TdlzJgzVMnt+TwfecMNP9HHrJYufdsYxUfaJvvAOnWnfrSbT+qLIWNElIExcA6yspsdRLjeP99/OJz2ITuup978z/3WrFlr9pXqM5GUZfukqqpar48clHh86K67fm9IIV/ef/8DJWaMsG9f/3ciIkFZ06b9tz6JQd379x+ggwX3tW2iHbSXe65atdqQ1WqVmX30jboia67hHFs3C9px991/kKeeelrJkWdzIVvkQPuRD+fbe/A/+/lu9Yv+hiQ5l0GYVypVVFTqUyHoK+damVMGKC4uMd9DWgZ1oxzbp+x74403jZx+p/JdsuR19QrT0tL1GWK/TaVaD65jQ1a0pby8Qo+zJOjFF/8tOTn+m1esnDjPVNPcK6BRz8MP/0OuvfYavW9zQ7MiOAx1zZovZOdOOjJNJkwYrwrD+9NWr/5UWrXKkWHDhpuO4kee58mcOc+pJ4W3RQfyQDfK1KNHd3n11dfk8cf/pc9YYlyeVyMPPfSwEiTksHz5CiWNrl27yIMPPqzng3bt2urzhqeeeooaJ++De/LJmfrgM+dSPt4Zo/XQoUMM6cxUQsazgsisF4LXyXvX8ODwVk4//TRjAPwEXaWccspQJVb/2hdUyTAKjAFFjYb/AL2v9HhykyYdfJsGwHugnEsvvVh/MSspKdHU910ZNWqUvpTxtdeWqGxTU1P04fWZM59SL3Xv3n3SpUtnVXxk9/bb7+h177yzTF9CgOeBcTHAzJ//kvker6SPt4j8N23aHCbVpbUPk2NU3BNDRBZ4XhAz3i4eFe3Dy2SB74UXXqDEgyxYhEzfRIK+x1AtufFkBU9a8FwqRL5z5y41UjxC3ufWrl17eeWVV017F+uxjIx09cIXLHjZlPGM1rF161aHeNCUC6khP0gG8qyurtJBCFnQVjwxvLJHHpmh3nNycpKS9GOPPa56EQzGqQwgJDwi2gzJ0GbaRfkPPviQkdl89Xazs7P0vgx4+fn7tc68kIC22ffPQVQ8PsdgevPNN+mrlygbkhsyZLASF69sglS5PyT20ksL1EnAe0SfaS91YoBBX+ibGTMeNX05X/WJe6HLixa90mwJrlnl4FBojJaRF+OgI+h8ALH48F9myYPOKBBK+cwzc3RkAigO+xg9J070f3uSjmaEXb9+gyxbtlwNGRKDgFCU0tIS6dnzRH0QmTAZJWF0RRkxJpSLMhcsWKihQr9+fdWLQil5Ky/Pa+JZRJITI6QlLeq2YsV7Gi7w1lvKxVjy8rYpadJuyBoCg2yi0b59B30CoVOnzuE9h4NbV1b6P6kHCdqyICgIBbnSpr/+dboaODKmnXiZGMC77y7X+vHDMRiSlT1vSMHgx40bo0RHjhMjY3EuqYT27duZ8tKUAOizNm1aq4F//PEn8sknq5S8kVkodPDB8aSkZJXLwoWLlETxNBl0MEoIzQIypg7I9+Av4fuve6eObJBbcXGRDmT0EYMZZWLQGRmZ2j7qQD0zM7PkgQf+quVa4M1A1JzPgMVrqr74Yo3Kjv5hYKXNeEv0IQPF3LnPqy6kpaXqomSIApKJiwuqnnbr1lVfvMAgR34LcqPO9CGeLkQE2bz11lIts7CwyISju+WFFw79XVQrL+qIrjIg0bcLF76sJHbSSb3MgBnSN6Kg18gbGdKfeMO0BXto3bqN6h2OAW8t4ScwuZ5fJmvuaHaTDBgCLjidg5fASI8CdezYQUnDjuooEJ1NTotclx/m+cDQCwoOqCe4ffsONXC8HMrkjSMoBMrCyn3AKIbRknBFwfLzD+gnIzfGgHe2b99+zaEVFfmvnoGYCCs5D6XnXoQLFtQTo4cgBw4coGSIhxMI+CEThtqhQ3sZPnyYhq+bNqHAe1Uho4Eh4TnhOUDwRwKjPcQTDMZqTgXvBTng4eJJQAaQfPfu3VTJISSIH2Pm3nwfMKCfno/XycCAbJENcmRDVpRD23v16q2vhrJvWuFxLx6zQjbIBO8OEmJAwPsDGDKeCUA+kD3lcx6DBcYMkN+ePXv1NUUYOgTIuRs20AdFStYMTHjE9D0eNeFdZiavk89RT43+huDx5HhVELlZPC/yrJZIKIsXjzIQMiBRHjpFH5E+KCwsMP/7KQhkyfk8u4u8GGD5Va1OnTrqPdBTHnGzL8lkIIaYCJuRy/Dhp+pAQ1vRNQYj3nQyaNBA7d+NGzdEDXC+rr/77jIth/pDkqRqkMmAAf1V9vv352ud0HFkesIJPbR/IUDIvnPnTlo+Ay2ypn0QLXJo7mh2BEcH410w4qIYeAL8D+kxoKE4hH0YKklYDCI80CkgGYwQL4IwhdEdwmOEPu20EUoyK1d+YBS2Wj0zRmA8NwzZf2TI/6FfFBGDhnhQRjwiymYUBCgS4SyhLIplR/dopKdn6AsRUWZyTnhIlIGx4lEQlqSmEtZCllVabwjZeqQAmXBvjpvmq3Eih2hQR9pJDvK8885VQuR+GB3vWKPNkAB1ggQ4F4MGGAyECHlj6BUV5eoJIF+8FwybciFbCAVPhfezMUjQDgwJEqI9PNNaUlKs5Elf4H0lJPgJf7wiBhnKJQUBsfDONJLp3M8auCUUPO3ERPKNQVPXag1pt2zZas7jrcglKlfuQf1pG3XAQ8STS0xMUJn4nnQbrTNyxiOlfO7FtXhShI32ONeQY6Wd6Bb5R/qLa9ioB/eC0JAj5XNf6skgwcBFjpUu4tzq6pDKFcKlT+h/OyAjUwZACJn9h/ar9eDKdPDgvXHoG7LlnpQJoVMXQmKAnRDd4BDQZuSCx06b0GW8VQbwSIegOaNZERykgmIy2uBWYzQoYceOnXSkglQAI1pubmudhMAVx2PxFTyoxg/RrF27RiZPnqSjKR2McuHVYESQGPkgiBPFnjr12zrqMSoTpnEf7s1oz/15PxnPaEII1NGCe1500RR9pxeKjzFaoHRs2dmZMnbsGHOvDka5U7SutBGPitAJEsfIyI/hCRzMmW0Pl+QTF94MRsY9IV5CcAv2Uefx48fpG4epr83ncS/qgcFheOxjBOe+jOYQFPvwFvgOKRGWsZ/QECMmN3bVVd+Uyy+/TD0IQlKbwwLICoPxSfyA5hsJiRiA2I9HR7uBJRbai3HjBQaD8Rqm+a9u8sulzZA898HLHTbsVO0jysVTJRy09SW3Sd4R79jWhb7Eg4Jw0QfOg1wzMtJ0H4QEyeL9IH/CU/QJ0kZfFpgQFLLx2+H/KhbRBXKm/egZMiQHzACIXpDnpSzqjswhM87lXly/YcNGPcY+yJS6wmf+fQKm7ENXB7AP/bzsskvl6qunqry4jjwgEQjRBfcDyBidRgaAcrgeWSCHjz760MjtC/U6zznnbCVAZEv70JHmimY1ycBoB/lg6BgXCoOrDUlVVvqzVSS/MVSMkBCVkSwrK1s7H3LCSJgFw9CYoaMTIRPyIii2PzKHNGzCcHH35859Tg2PlztyLQaBUeXktDJGu0/L8cmQV3z30nAMjwqDfuKJJ9X7IwRhhCVUAXiOGATXQI4oqvX6CEn69OmtIS8eKu1i4oBwBePFk4LQSRwDcjkki8kNQQwYC8TOQAAgO8IeZIDc7PIIyiW0QfkZ1TEojJe3CnM+JHb++efp/UjM2zAPL+SKKy5XGVEG3jKTLVu35mkdaTuGxHHOxegI4fEOSPpTLn2BYUG0EK8dGPA6mCzg2Cuv+PmiwYMHab/ivQ4a5P92BblQjBjimjjxLPVMIGlmW/FER48epQZOuAyBMIDRZ1lZmebaQiU/PEu8I+pGqEqZvJYeoqQvGDAYSKz88XSzs3PUSyU/ya+q4RlxDmRIHdCR/v35ScEE1QtIi76kn/FyydfRN4TipAL4sWju57/JeZUO1uPGjVW5cC4hLgMnYTBA39FZiA8dhviZlKLf2I++UwaDByE9NjJq1EgzyA5XoiX6oR3oDn25bVuekcV29eaIVMg/Q4rWlvAcyZGeffYkvX9zQ7N62B4lQmn9MCNJPQ1GF5SHcATXHEVm9ESB8ARQNDoLQiAv54+w6UpSKCdGDSmgGHT4jTfepAowceJEHc3obAwADwPi4r4oHiMcox/uPMrH9UactaEd9yZHA/lwHqECdeP+AO+DcArDhlj5zr3wUFAqCBXDoWxCG/ZBWISn1BPS4D6AcpALZdBWruUV5xABQB6QLAl+6mlHZLqekJx9EAvXUQeImfr7oWorrcNtt/1aJ1omT+ZV4jFKitQdI8Mb4h7Uk8GFkI38F+1FvhAefQVpQSoY0733/rd6nWecMdp4lOdofQB18nOou/R8vBZrvMjaeiKUCWGwQdq0CTlAwhAc9ba5svh4PKGa8KDoqawgM2RK/fzvRdo3kCukTNtoE3WgjRi/bQv3QEbkrpAXJIPHiLdD26gr5Ej7IHpIn/CSGVHqyHfqRv+xMQCx/IiBlQGQvqAuDDK+1xqr9eNa6kHd6B/uu3fvntpBi76nfXiB6Dfno6/YB/oC6THZYb1G2sIMPP2OjLkPcsdmqC+6TJsJ+etaotMc4N4mEgEUetasWcabIVnbq9YDOp6BITEQ8BsAeCgsQWgKLDAhHsDLw4gdHL4KOIKLAKJg1GPUas55h6YGcrF5o6aSC6En5SFrB4evCo7gHBwcWiya3TIRBwcHh8bCEZyDg0OLhSM4BweHFgtHcA4ODi0WjuAcHBxaLBzBOTg4tFg4gnNwcGihEPl/bVLMhwY/aJsAAAAASUVORK5CYII=;" vertex="1" parent="1">
          <mxGeometry x="110.00000000000001" y="610" width="170.97" height="40" as="geometry" />
        </mxCell>
        <mxCell id="odeWDLO1GaSnZR0GTPzi-26" style="edgeStyle=orthogonalEdgeStyle;rounded=0;orthogonalLoop=1;jettySize=auto;html=1;" edge="1" parent="1" source="odeWDLO1GaSnZR0GTPzi-16" target="odeWDLO1GaSnZR0GTPzi-8">
          <mxGeometry relative="1" as="geometry" />
        </mxCell>
        <mxCell id="odeWDLO1GaSnZR0GTPzi-16" value="" style="shape=image;verticalLabelPosition=bottom;labelBackgroundColor=default;verticalAlign=top;aspect=fixed;imageAspect=0;image=data:image/png,iVBORw0KGgoAAAANSUhEUgAAAJgAAACYCAMAAAAvHNATAAABI1BMVEUySl7///8rO04xuv35tUwrntj/0V0sot0xSFv+zVv6uU4AIk4YOVEtRlslQVclOE7/u0wxwP9ASU/IzdEyRFUZNE6iqrIyNUArICfw8vMsirwrQFQxdp4yP0/Vtlri5OautbyIk510go1YanlKXm88U2aTnaZBu/X/00T/0lZio8D/tzUrNERse4jY295icX/zuFWFbU7KypUwa46ZeU0ALU6Fd1MxWHIrlMoAIjzqxlwSK0L7sz/ImE0xY4Gu4P7J6/6K1f5zzf7e8v8/kr2Cc1hfWVFWUE7cpE20i05wYE6mgU52pbmhqZvctGzArYTls2JDo89dveqkxbnmzniYxMJ9wdbRvW79z477wnD83bT979q6pGLJq13+9+1iZlyajV3HAxOYAAAJCUlEQVR4nM3caXfbRBcAYNm1axGkkRJb6Ss7Rpa3Ekjs8JrUSRSHQmnSpmXfSguU//8rGEletFxp5l7JhvuFczjEPOfOopnR6CqVYmE7k2Zv7PYHw+FIUUbD4aDvjnvNiWMX/GGlwN86vXF/MGKapjGm67rCg/+DBf9iNOiPe87uYbbTO9UsjXtUBQyVC/l/cNqjpo4Ea46nOkfBpGhwnD4dN3cCsyfuSAoVwY3cCTpvSJjdmzIto/WyQ9XYtIekoWDOmGFyFc8bG6PGAgI2cZlGU4WhMXeyBdikz1gRlh9M60vTJGGOW5wV0Jgr2aBSMPtQL4UV0PRDqWEgA2sOCvWtZGgDmYlNDLNLasVN8PYUJ00Ia45KTVcY2kiYNBHMpU5c+aEztxDMmW4hXWFo0/zhmQtrjkruXdFg+c2ZBzvUttKMq9C1Qxpsyy6BLBNmb697bUKbZs4bWTD7dAcuLjvNkmXA7OEWu3002DBDBsPswY5cXDaAZSBsZ/kKZHDOIJh9ukMXl4H9DILtYjxGQ5vKwQ537OIyYD5Lw3bvAmUpWHPb8z0UupZ6biZhzuhfcHHZKLnWSMKmOx2Qm2DJAZCAubQOprYigd6oB6G5ebAmJV9qtzu/OfJj5sfNXO9SbKyZDbMJHayl3rQb+w+CaNTDaM+UFvqH9JGdCSM0ZPem/mDJ2sDqjYsjFZ21eGNGYfiGVNX2hhWB+bQ5OmmxxozA8EsKValHWDEYl91gZbGFRgSGn/LVuCsG4zHHtmb0AbCBOeiO323HXUnYhYKV6Q4Ac7EN2ToKXY+/ePrlPgRrHGFhkW3wGjbBT2GNQPOV/9fPIBihMdkkBeuje/4sTNOz4M+/gGCN9iOkjPWTMHzCHoU9/3H490/BjNU7VaxskoChe5iihx1+Pxc2O6nixtS6ly1hDtrVmi2H4tPgB74EYY2jkyoyZ8yJwcboOax1tITtP1t1MQDWrlaRMm0chdn4IbmG8XH5FTyPrWA4GbMjsF4hWNYEy6PdQctYbwOzp4TlDgaGkenhQYtCnFyRMIwsnDECGGVBjYQhZOG6LICNCEvhVns/GbkweZk6WsGatB2Inoz5RR5MXhZsMn3YmLZla1VPqtE40fNh0jI2DmGUMRlGJwarimCyT6dgXCqYFaLa6j6Kxf9iURXBZHPmrxc5rCfZxVrKzdFFeihKjkqMTOsFMLljOrU7qz/Yz3VBMM1ahmHIy9hpAJM63mnNGwIVCPv6+WdhPL+961qWpEzXfJhjSfyn3ZkoWzDskz1zHS9e3p9bcjLL4TCZLgZN83Kws9omzL0Xt3Iy3skUmVmsdSPlEsE4zXxlGRIyPpMplb6wi6mKnEsM47RFVUKm9yuKPRDCWu3yYFwm0Zr6wFYc4RNcnUu6pGA189W5UKaOHEW8FlvtuEuC1WoSI4BNFPHSotsoNWO12kI802pNRThbqHPZhAGw13sAzLw3RDKtpwg3brJzBQwDXDXz5bkoZ9pYEW7BJSdXGPbNNSQ7s0TPTeYqwsOUQrBvTQhWuxM90VlfEU5jRWCvPwVde/eWYBWkD5ThFmGNjISZn1mC9Zk+3Cas8R3Yw3isYVkyDhsJXHRY4zs4XzFYlkzIosIa9dffZ+UrBsOe7CFgj9fxw4r1w+tvvq1lu2Iwcs5yYT/+9PPxx+v4dBM5qiQMlI2Kdf5fro6PH67jA+j5IwEDZAVH5f8/fhgNMiwt4zDxBDvLcv10/LAkWErGJ1jhI0nNeoj/Gs9XIVjy9IA/ksTn6K0M2M/HVJiZhiVyxh/i4vPq7gW4IPs16ZKHrZ+VmTK+7BFvK1fvZgQ9DNOUB0YaFpPxhaLEqZ1aB4ckGWYuzgFXTMaX1hIHwy0wZQVgnwMtGZfxzYh4+wa8MS0GOwNbMirzt28SG16es3paRoaZrzIStpH5G16JIwL/kCA9Msmws25WwtYy/4hA7mhYbbWT51BkGDRXJGTBoYrkSWfrpl4ODJhcU7LgGErq4M5P2sm83Xiwed1Agpm1e3iqiMuCgzu5o04/qif6fD5bxW8EmLm4E+QrlGmIw2E//CPok2V0P0q6BDDTrC2en+f0+00sD4dlj9OV2BsHNGzx+V1XIl1+XPaQLyCiMgB21f0wJ84tqWz5YU3wr2zWMgh2J/2/zg1jaBNecq1kEOzAMhJBgnku6bVgJxt2e5CMLgnWpL1I7WTBPjBTkbWOyA2D+uq5kwVLj0oKzOuTX9Z3tgvbvKxHv0rtbBFmDDbXG/AXQjp5MLMQzDssdIWmU82CXdfe/H5dBBa9QkO4dGT8CcOu3/Kfe3dGhnluwWta7A8Qdv0m+L13YXOa+YtCKKxJwYtt7AmcsXfh7y1Thp77vdVdQPJVQF0Rw7I2kHmwZgKGvzx5nupkQVO+DX7trz1aS3rra/3066b6e7jzByl7E7heYPO1nFxjMEIv+wM+H3vz7u1Z0PfBs5N81/q2aZErzfrBFQi7Xh7ALt9lYcKArjTjL4Gz9yBsGeYCy6pejisQDH9tnr2/Os6CmYu8DTecryF8bZ7woQG7+wiGmbWXVfTy1cr40IByJVC3/r5Kw0xzcYvuX9Gen4RRPmbRDp4sJ7Tjh+F9mdqLl7cGYbnTyf6YhfT5j259aNw9f+JHcL3o/uBcblubTFjO5z+0+51q1TCsSNC2RpduJQ9G+sRMJUniYQwr+TDSR3llyJKlQ8r5jLGw7FL4GSPxw8+CMm+cYpT1qWwh2Wo5LYDRPi4uIPOgT8XL+xybLPPAggQlfsBOlHmq9Afs1E/+STJvCFcKKbVIAkHmqRkVTMotK4GWwf0rD0YsxIGUgeNRACOWLkHJvJzCQqUXe0HILtPzvRyMVh5Hl2QZVXJ5HGJBIbmcXQ7zS5FtowSThMyAHo8oGKlolVDmdQoXraKV+cqXGVa/hDJfFVJhtDzZ5bCcwmgVUim5TJlnjEsrJVehFN+DZZ7XL7P4nh/ocoWAzPOmZZcrDGjIAo9JGc8WopzoNktiRmWG52HqTm65iKi6SdZArnoiGYYsu6qGuTL6Wy+7GoZ0oVqFXVpDdzeFasOQL+2Lz1UhWBD/xWLI69ha+eh/AIAnQ2Ci5L8gAAAAAElFTkSuQmCC;" vertex="1" parent="1">
          <mxGeometry x="427.42" y="519" width="62" height="62" as="geometry" />
        </mxCell>
        <mxCell id="odeWDLO1GaSnZR0GTPzi-17" value="" style="shape=image;verticalLabelPosition=bottom;labelBackgroundColor=default;verticalAlign=top;aspect=fixed;imageAspect=0;image=data:image/jpeg,/9j/4AAQSkZJRgABAQAAAQABAAD/2wCEAAoHCBUSEhYSFhYZGBgZEhISGRgSEhIYGBUYGBwZGhoVFhgcIS4lHB4sHxgYNDgmKzAxNTg1GiU7QDszQC40NTEBDAwMEA8QHhISHDQhIys2NjQ2NDQ2MTQ0NDE0NDY0NDQ0NDU0NDQ0NDQxNDQ0NDQ0NDQ0NDQxNDQ0NDQ0NDE0Mf/AABEIALABHgMBIgACEQEDEQH/xAAcAAEAAQUBAQAAAAAAAAAAAAAABAEDBQYHAgj/xABMEAACAQMABQUMBQgJBAMAAAABAgADBBEFBhIhMUFRcbGyBxMiMjM0YXN0gZGhFEJScsEjJDVUYpLR0hWCk5Sis+Hw8RYlU8JEY2T/xAAYAQEBAQEBAAAAAAAAAAAAAAAAAQIDBP/EACIRAQEAAgICAgMBAQAAAAAAAAABAhEhMQMSMkFCUYFxYf/aAAwDAQACEQMRAD8A7NERAREQEREBPJIG87pWYDWGsXK2qHBb8o5H1VXePi2Ik2lumfiQND3ffaQJ8ZSUcczLuPx4++T4WXasREBERAREQEREBERAREQEREBERAREQEREBERAREQEREBERAREQERECLe3S0qbVGO5Rnp5gPTMFoqi7B7h/Hchvur9VR7sTxf1fpdwKS76VNssRwZ+GPTjf85nBTwuz6JrqMzm7Yhav0e4DnclXCvzK48V/fwM2SYK6txURqbcCMdB5CPfPegL5mBoVPKU92/668jiS8wnF0zcREjRERAREQEREBERAREQEREBERAREQEREBERAREQEREBERAREQKTB6w6RKKKNPfUfcMfVXlb0f8AMyGkr1aFNqjcnAcrHkAmC0NaPUdrip477x+wvIBLJ91m36jIaIsRRphR7zznlMnEypngmGpNI9VcGYzSVFlK3FPx034+2vKp55l6gyJYiXSWbTdHXq16a1F4HiOUHlBkuamKhs63fB5JyA4H1G+0B/vqm0o4IBG8EAgjgc8sWEv7XIiJFIiICIiAiIgIiICIiAiIgIiICIiAiIgIiICIiAiIgUnio4UFicAAkk8ABxM9zVdN3jXFX6LTPgg/lGHDd9X0465ZNpbpZLm+r7ZB7yhwqn67c5E2RE2Rj4yxYWi00AAwAMAfj0ySTLeUk0oTPBMqTPJkaUJlhxvl/ZPNBoMf+YREq0w6lWGQRgiRNCXbUKn0Wocqd9JjzfYMmtu3SHpK0FVMcGHhK3KD0yz9VLPuNllZhNAaTNVTTfdVTwWB4kDdtfx/1mambNLLtWIiFIiICIiAiIgIiIGgaxXtVbqoq1HUApgLUcAeAp3AHnkrVK7qPXIZ3Yd7Y4eozDORvwTJOmNXKtau9VWQBtnAYtncoXfgeiXtAaBqW1UuzIQUK+CWzkkc49E6bmnGTL2bNESPeV9ik9Tjso79OyCfwnN2c41/7oD0KjWtqQHXdUqkA7DfYQHdkcpPROb1NY71iWN3cZP2bmso9yqwAmNqVGdi7ElmYuxPFmY5JPpJM6Z3M9T7e6t2ua6d8zUZEUswVQuMkgEZOZ21MY8u8ssuKj9ynSlxV0gyVLitUX6LVbZq16rrkPTAbZZiM7zv9Mz/AHX76rRo25pValMmqwJpVKiFhsncSpGRNs0VqzaWrmpQoIjlSm0uc7JIJG884HwmJ7oOq9XSNKklJkUpUZz3wuAQRjdsgzG5ctu2spjr7ch0Tp27a5oKbq5INxRBDXVcgguoIILbxjkn0bOO2Hctu6VanUNWgQlWk5AarkhWDEDwOOBOwxnZek8cyku3qIiYdSInio4UFicAAknmAgYbWTSZooETyj+CuOIHAt080s6E0cKab97He55zzdAmL0Zm6uWuG4BtlByDm+A+Zm2ogAxNdcMzm7J5Vcz253SicJGlQgjErEBERAiXtPg3uMiZmUqptKR6JiMwlY7SiGmy3NPcykbWPrLy5/31TZ7K5FWmtReDKD0c4PpBzMO4BBB3gjBkXVq5NGs9ox3El6eeXlIHu6jL3Ger/rbIiJltSWL2v3umz4zsqWxz4l+QdM+bVfVt1Ql6YRdcFJA7028geMP4TM6R0tTt1DOd5GQo3s3+npnN0OCDzEGTT328rbhtM37qqPTyATrcY5TOstX1wqE+AiKP29pj8iJ7ttcHB8NFI50JB+BzPVLU5seFVAPMqZHxJmD0roxrdtlsEEZVhwYfxiTG8JblOa6DYX6V020ORwI4EHmI5JLnOtW7w0rhd/guRTYc+eB+M6LOeU1XTHL2jXtJayrQqtSKFtnZ3hgM5UN+MvaH0+LmoUCFcKWyWB4Y3fOarrR53V6afYSS9TPOG9W3Ws36z12xMr7abrdVdim74zsozY59kE4+U5fd91inUpun0dxto6Z74m7aUjPznTL+mWo1FAyWpuoHOSCAJwJdQdJ4H5q3D/y2388mMl7a8lynTWwJvepmvq6Ptvo7UWf8o7gq6gDaxu39E0m5t2pVHpuuy6OyOpIOyynBGRuO/mk7Q+r9zeBjb0jU2CA2Hprs54eOwz7p1slnLz42y8Oz6oa8JpKq9JaLU9mnt5ZlOd4GN0l6461Lo1KbtTaptuUwrAYwM53zVO5jq1d2dzUqXFE01ajsAmpSbJ2gcYViZc7tfkLb1z9gzlqe2nf2y9d3t6s+6tTqVEp/RnG3Uppkum7aYLn5zpM+YtDedW/tNDtrPp6M5J0vjyuUu1YiJh0Umva533e7fYHGo2x/VG9j1D+tNhmj6zVO+39KjyKFz0nwj8gJcZyzleGb1etO90lHLjf95t5/36Jl5atlwi9GfjLsVZNR4qndPS8JarnhL0KREQEREBMRcrh2Hpz8Zl5jNJDDg86wlR8zEacUpsXCeMjqfdnd8+uZLalu5QOjIfrKR8ZZxWcuY2KyuRVppUHBlDfGSJquot0TSeieKOSOhuI/eB+M2qSzVXG7myQtNebVfVt1SbIWmvNqvq26pJ2t6cym86nW4W3L43u7b/Qp2QPiDNGnQtVPM6fTU7bzrn04+PtmJrGu6jvVNuUVCvuKknsibPNa138inrR2WnPHt1y6rULM/lE9ZT7QnVBOV2nlE9YnaE6oJrNjxfbnWtHndXpTsJJepnnDerbrWRNaPO6vSnYSS9TPOG9W3Ws1+LE+X9b3KSspOT0PmzWz9IXftdftmdA7ini3X36XUZz/AFs/SF37XX7ZnQO4p4t19+l1Gdsvi8uHzdTnM+7X5C29c/YM6ZOZ92vyFt65+wZzx7d/J8a5bobzq39podtZ9PT5h0N51b+00O2s+npryfTn4eqrERObuoZzu3fvmlKzfZaqP3MU50QzmWhH/wC43H3rj/NX+E1h9sZdx0ZRgDoErAiRtGuD4Q93XJMiXhww6J7e7QenohEiJjqmkDyADp3yLUu3P1j7t3VGjbNE44zw1wg4sPjMAzk8TnpM8lpdJ7M6b1PtfIyDpGur7Oyc4znj6MfjNf0TairRavVuKq/lqlMBCSNx3DABMkGzt/1uv+6/8kaTdqXtRtSEbe3H/wAu4/dqfyRd21vSSnUa8rhagyhUO5YAZzhUJG7nlRa1RqbN/XTkKv8A4WH8Zvc0TRV1YW9Y1xWrM5VlO3b3JztEEnyfHdNu0ZpOlcoXpMWVWKHKOhDAA4IYA8CPjJl2uHWk2QtNebVfVt1SbIWmvNqvq26pmdtXpzKdC1V80p9NTttOezoWqvmlPpqdtp0z6cvH2zE1rXfyKetHZabLNa138inrR2WmMe3TLqtQtPKJ6xO0J1QTldp5RPWJ2hOqCbzY8X251rR53V6U7CSXqZ5w3q261kTWjzur0p2EkvUzzhvVt1rL+LE+X9b3KSspOT0PmzWz9IXftdftmdA7ini3X36XUZz/AFs/SF37XX7ZnQO4p4t19+l1Gdsvi8uHzdTnM+7X5C29c/YM6ZOZ92vyFt65+wZzx7d/J8a5bobzq39podtZ9PT5h0N51b+00O2s+npryfTn4eqrERObupOWqe9aWqofrVa3+P8AKDrE6lOYa+Uzb39O4HBgre9Dhvliax705+TqV0G2rg01Ynkwekbp4qXR5N0xFhdDcM7mAI98lu0aa2O+ZZZodpZZ5UVZpbZp5Z5jtJ6SFAJlGcu2yBTAJJ6OWJEtZAtPO1ML/TT/AKrc/wBi0f00/wCq3P8AYtLpncZHQb4sif8A9tSTPpXpmJsNpNHqXRkLXzHZqKytg5I3GU7/ABrZvUjLPdbjv5DIlGt+b6NbnoVPmiSI9bcegypfFno0/wD0N2FjS7Zb6V6Zk9WDtLWqfbuXI9OwiUz86Z+E1KtdhEZzwVWY9AGZumrlsadrSVtzFNtvvOdtvmxmcpqLjd1lJC015tV9W3VJshaa82q+rbqmZ23enMp0LVXzSn01O2057OhaqeaU+mp23nTPpy8fbMTWtd/Ip60dlpss1rXfyKetHZaYx7dMuq1C08onrE7QnVBOVWnlE9YnaE6qJvNjxfbnWtHndXpTsJJepnnDerbrWRNaPO6vSnYSS9S/OG9W3Wsv4sz5f1vcRE5O75r1s/SF37XX7ZnQO4p4t19+l1Gc+1sP/cLv2uv2zOhdxM+BdffpdTTtl8Xlw+bqU5n3a/IW3rn7BnTJzPu1+QtvXP2DOePyjv5PjXLdDedW/tNDtrPp6fMOhj+dW/tNDtrPp6a8n0x4eqrERObspNV7oOizXtC6jL0j3wc5Xg4+G/8AqibVPJGRg9G+WXV2lm5py/VPSPfKPeyfCTC9K/VP4e6bRSuNoYPHrmi6x6PfRd731Rmi5Zlxw2T41I+kcnu9M2O0u1qItRDkEZHo9B5jOmt8uUuuKy7vLLPLK188Z5Z5nS7e2eYu/f8AObP2pPwk1nmMv3/OrL2tPwmma2mtfVGrV0FVkCVFQBVpncURvrKeVjKGvV/WH/co/wAkw9Wvi7vBzXCf5NKXPpEz6tbSK6NcXFG2q1HemwquR4CEMgUqQyAH6xka4t9GI7U2attI2w2y90QDzZG7lnvRdTav7f1dz1JMZc+c3PtL9Syyc6S3jabsaL+1X+N5MlajR9yKNou0e9Ie9qRXQhVAB8M4zuxyzX5P1b89p+rr/wDpFnHZjeeoz/8A0jacqE7wcNVqkHBzvBbfM/NZ1j0xWo1Up0ygBpl220LHjgcoxwMs6B0tc17gIxQoELvs0yCBwUZ2jxOf3TM6tm3SWS6jbZbdAwIIBBGCCMg9MuRMtIn9HUf/ABJ+4v8ACXqVJUAVQFAzgKAAM7+EuRGxWWa9BXGGUMAcgMAcHn3y9ECINH0QcimnP4i/wkuIgRaljTYlmRCTxLIpJ5OMrRs6aHKoqnGMqoBxzbpIiNmlYiIGNq6EtnYs1CkzEliWpISSeJJxvMv2ej6VHPe6aJnGdhFXOOGcSVEGlZFvLGlWAFSmjgHIDorYPOMyVEDGLoK1Uhhb0gQQQRSTII3gjdMnEQEREBERAxumtFU7ui1CoMq3AjirDgynkInH7qhcaHrlHG1TY7mHiOPtKfquBxH4b53GQ9JaOpXFNqVVA6MN6t1gjeD6RvmsctMZY75nbnthpOnXXaRs84O5lPMRJffJiNOdzevQY1bFywG8IzBai+hXOA3vx75rx1hurZti5pNkbvDQo3VgzpNXpytuPcbuXmNvW/OrH2tPwmHpa40T4yOvQFb8ZWhpuncXlkqbWVu6ZO0oHH3y6T2lbVpPRl4Lu5dLZnSpVR0Za9BcgU6aHwWYEb1MsfQb/wDUm/vNp/PLTMz17ks9TdeXCDFWoAFDblADYAnrvX7b/wBtV/mmZvTV1tktXtHXYvKdSrbmmipWBZq1B97BQBhWJ5DMdc+c3PtL9Sybq8zLf0lDPstRuCQ1R2BK97wcMTwyfjNiutVrSo7VHpnadtpiK1dQTuGcKwA4CTery1Md48NPk7Vwj6dTGd/eq5xy48AZmd/6SsfsH+83H88naL0Rb2213lApbGTtszHHAbTEnHoziS5TRMLtreuDbN0rHh9HQekku+ABykzP6uaNNCllvKOdt/RuwqdAHzJPLLlfQyVLlLlySUQKqHxAwJPfCOVhk4zw48ZlZm3jTcnNqsREjRERAREQEREBERAREQEREBERAREQEREBERAREQEs17dHGy6qw5nUMPnL0QNcutSdH1N7W1MHnQFD/gIlmz1D0fRqLVSgQ6MHUmtXYKwOQQpcj5TaIl3f2z6z9OXkla9yNioxN3ctinQrPkFjgjYU54fKS6VpXqeJb1el1WmPg5B+U6LEvsnp/wBanoLQFZLhbiqUXYSoiohLE7ezvZsADGzwGZK15GbMg8DWtgfSO+JumxSHpPR9O4p96qAldpGwGZTlCGG8b+IEm+d1dcajmyWKO4Rae254Igyek8ir6TgTbNXtVVoOK9QA1cYCrnYp544+037R92N+dgs7KnRXZpoEH7I4+kniT0yTLctpjhrtWIiZbIiICIiAiIgIiICIiAiIgIiICIiAiIgIiIH/2Q==;" vertex="1" parent="1">
          <mxGeometry x="418.84000000000003" y="690" width="136" height="83.69" as="geometry" />
        </mxCell>
        <mxCell id="odeWDLO1GaSnZR0GTPzi-18" value="" style="shape=image;verticalLabelPosition=bottom;labelBackgroundColor=default;verticalAlign=top;aspect=fixed;imageAspect=0;image=data:image/png,iVBORw0KGgoAAAANSUhEUgAAATEAAAClCAMAAAADOzq7AAAB9VBMVEX///8AAABIfCtJhzYyHg1JgC9JgjF4QRsiKztJhTWERx1JiDdJgjJIeypFRUWTTh5hYWHr6+uAgIDb29tBTWPKk2nWn3WtAABnOBhnZ2dvPBpOTk5xPRpTU1PZonj4+PhbMhYgICC8vLxtbW3osYhhKgDsy80rKytaWlpjNhg5OTl4eHjt09To6OhAQEB9QxyQkJDT09PBwcHtto27MjtrNQyXl5czTR6mpqbanaDEYGSioqIASYczTR+lAADz3+C3Jy+yABMcAAARAAArEgA2VyRjIwBKKRKdUyIvNkQzPlIAABkAMXaxg19+YErJnHqJZkqkf2OjdE48YyU7dxlCbydVJwAmXgAiSQA+aiu5kG/BTFPcoqW1FCHlvb8UFBQfISkAFSonNUoABiISME8KN2FfboBJYoMALGQOHjSZoq4zV4EAPoEVGiKClK6qtcMADC8AGVEAK1NddpcmUoNBNzErJh1CMiVYQzI/LyOkloyFWzmVdFyih3Pou5nBqJZuXVWHcmPZy8FXZ0wAHQBkZlh4ZkJBUTAlNxpeYTcjVQCBalpQYTF1f2zKpYpdeyiqoTfLwlDx6nZ8fF0cPQCDhixwfis5EgCupTo5QxIAKwkuQiPPgINVPya1fU/KbnNZc051jW0fIxJojWBGckBNFQA/AAAFmWssAAAeXUlEQVR4nO2djUMTV7bAkxnm6jgTJMkGRCCBQA2QBpNgSRSjrTLL9iPhY2aAoCu1W/fV2r6+t/tq0eLzg1UrLdu6z3b37drWfVv9O985584kk5BAQCx05LRCcjOTzPxy7rnnnHvuxePZBklEk/E3uXTER9OR7XhPF0sw+e7F995661eWvPXW/osd2T1odSXV8fbl/fuBWJkZUHvv7YB/p69sd4q/6+39XN58r4rZxeROX9xulKh3v0Mqmf3qvcHETl/frpP42/srpbJzvnUxtdNXuMsk+bv9a6VC0S4Hd/oad5X4K7rk/jeH3tx/uVrR3twbMx2SvugE9u5gIDCaHby8/82KUSC+01e5myRd6pTv7n//0qWT7/w+/W8fBEYDySFH57y8Z/3LEvFauC6dRHnnw8SVj64EL310aXT/uy3NVud8a3SnL3M3SRaGynffP2lJyvPhlZNXEh989E70SjYeaLH82pGdvspdJaPej21eJ6/8+4efpKLvfBL8/YfBK+l3Pki+SaPA5exOX+TukmA/0bp06Q+XL1/8D5A/fPD7Tz658lHqg3eS/e8isrf3Bssq+c+Tly57vbHmrv6OocFYz8KC1/u7P3z0x+CHwf96H5B5ozt9gbtOYl6QfGt+enLx048/XlhY6IkNDl69+KtP/vjRyff3gNWQFgC2EEJpbQ1NFRa8HwOx5o6hix+dPOlt2XMt1ko7ECtwYCjhfCH2LhDrb2m+9P5eiFRLktgpbV7EDKANDnW19LbsZXtqSpY6JUfFBR/nC0Ndve2Bnb643SipuNf7mQNXidoSdNbvd/rqdqMkQ4vea+FwYamvj7PqC09MXVsItea9i6G9gbKGBKcnr3lDUz0L3qsT4T6QKe/i0kRoMT/hnZy8vtNXtxsl8fnUorcwGe6bmChMDff1TUz1tebz0C2nBhdDt3f66najRKbzi4VCX3jp2rWlvqXhvuHhpUBsYX4iXCgUQjd2+up2pUzmp/KFcOt/j3jn++YnhkHNbnqBYHhycim0517Ukmz+y9YCGHykNTw1jEKDwNRk4fM9j7+mjEyHC2jyAdXEhEUMkE3lp/cmkupI+svWMCc25SAWur0XI9WVZNgitjRcJhbecy3qS9QmVtgj1phEQxaxRTBl83vENpZUyFKy+cIEVzEg1vpSELtVuHXrVnrTpyWmiVjfsLNTvhzEDh88sO/XW5j7mcIIvM+mNT/xchF7ZQvEblPO4lYyG72TTkevE7DQSzFPuVVi6Twhu5FNJYLReQIWntz+y9uFslVinhHKKPb1YWZxghKK+ZfD4d8ysUgHT8JOkAkDYKHml6MKdovEsst/0gshZ8o6VFhdfimqB7ZELJ0zNOFeCJBhn+TzSYXQpGEsvwSB5RaIRe7OKoLmm84DstIE3GQ+nzcVZcX9+bHNE0vNGbKSYz5AZCMLAbBQPq8romQMbd4d/mXJpolFV0RRKeqCbxonxSfzwCsUmsqHQqhjoiBos3fdXdqzWWIjhiKCikkCu4fEwlNLk/DfPGKbhFeYlJGM+64eNDdJLADARFETBJnpWEhAkRKESahp0CkVVchIgrH8Ai94x6VzU8TuGpIoSr4vTBN+3wMjZhMDZA+YKMsS6JgkGW4OlzZDLHLfEAQmSoJQLOpfqL4l9C36eKYn9EASJCYzlhEkWdFc3C83QSyRAWCSLKoSMJNyTDbzrRQoAbB5nZkZTQPd0xh0W+mRe7WscWKpOQZqJCrY9wSW8cki00NWvUreFJkA42dR10wGlg46pmuXQTRMLLrCGJgooEaiMXgoPuDlY0sqEwQRbD6+ChZOhA5quK+oPzqSTTRObHQW7ZSFCx5qGVWRFYVcjHsqtiMx/A1mjCG3OZe5ZYkv4V6n44nGiEXuGmjwsT+SKWOCpGqarMjqUij0QMFWWdRNaIWHIh7qkw2XxeVfUuVv6LNDQOy1QCq9bgidBhMm+RCVDCzAUMnwmPk0TRDN6a8UFV5iiqKCm8ZkH/ZK7JzK6s91Lz+LJKY5sdbCawf2HYbwMH+jfsVEYJahDVMBhagCC3C8JAmoSL6MZmoKxkY+s6gBQAAJpk6hw8SMqxIZnBha7amZfU3zNN7VKS9M3DcUGbQL/tEwKTCVXFUf+P1iUZeIlVY0eYdFU8dQySQl564I87YFLNw6OcazqHWmgqIrisrABRMBGngNgAIGRgktGQDUc+CDqbJEbq1A6gc/fKBnAM+U3BUu3ea10n/2FCb6LKk1px2Y5eZeoIEQiQmqgnYeNU7KSZL5Nb4kAzb4JzNFUmU6XBQVWXST9b+eX0LnszWSLQEDZNU3GFk2BMlyKbgSSTldRGKADHyIjGR+8/AbNPxwFFNlRdJ1EdVMUGW0ei6y/rehSyKyO8E8n9TmU7XTlYYnNQfAZMFXJsY0RchoaPZlVKWM9PXDvzz0gb33oREDi+Z7smIwoqyCmZO/cIv1j6IRC0/lw1mrmmnCKjSsULLsLLkJcOuAAJwweGIWFfiNsZCMIVOGmd8+/NYHpp5JgEuAAUHzJGfBjAkqUlWFzE7d4jbLHSIWnh+dHHYQA2Shcs559FNDUVCRYGRUZXAtwJU3MuA5wDOmZ3QYDRUNXTMVwiUFIMrkya6A+7YCyqggZ0FwiyWL8nHyTnA+TLUT8/9tF5yErlM/SoxqBuoTKA0SY0hMVFaiGhJDjJKpFYkYHuOTFIwzGXbb2SCFVIxxYpJbLNkU6ljr7ULYf6e1VJvJM13T/xP1tMyBD8ZyPnAnVNAW6JPgXxjLfk/6EebAyKQh0Ay4tgwDAUljGIaD94rEwCMRVRWPk9iTnb7VbZLIjR9a5+f7pibg4Z2+vvlhXmXOp7dD+YLGVAgRcxL6EzI5XGwWJ9YiKxkf5TCAEVi0DI0G4OALuqxi3ow9QhXNgWfBQypJeLLDd7p94h8JhcNTYXD0I39Ga9YX7rOqwHA27QHD/mjqSATdBKZovKpiTtKK3DUDYlLGcjnALfMxiApM7QkckzUAMPRkHCoMt/RKkOvQLyfy4fmbE/M35i1/zAIWCt0D+w6WKcdjHlEy7IBnToKRElt19FHhkekTfJIqqbrEZDBt/4RjNJGhWqIlc43lR7lBy2+nQvnFyJ15m5cFLHRPweQ0wwQOuKJsxb7v4CyQNNF8aaBTTAMP9puv0dPAhxnwN4DYqIFRO/ZdUL+5Hb3H7ZUsHy9DUxN/nph3rCwNcWI8NspAPKkY90t+6IjB0OPQVIi8AZTGvn34l29FEQBpmo7DBHTCOXiB8dNdpWKgZIgshOWZoQkbF+dFOkYWKgNda9axLleD0VAGj1XPARRR1OTvHj78FiIihUHvBK9VXAUVQ5dfokBBur9zt/ciJL2Un5pH33+pghYRA71Ba1UssjlHIUXcAGLY2RgG46BYsvrddyZ6sOhxoGu7CpYOhwJ0NiRp1m1FeH50y0KTfy1Q7cT1mzdvTv3AiT1A114QfBo6YSWJzkJ/UynhgzGSLGrU+zBnQXElBAWro0Yuo+uSrIDzwVw0UNqSHf9+/FDn4vTNlDUWRlJ3gNukhgOkNOudq5gRWlYw9qHUD+VzuHcBnRI9MgEGCyC2CvYf3BJNM0U258KJXv+vKc9f1Zr9whQVY2W5uk99JWJOH8QHVLBXZmi6BEWgDJAgrMZNSixCZJ6bc2MxWYKIVc/Gpr2iMZdcm/jXJLJRmJMlMy9naJ4Em3DiBMeC1WWMjTCoAuauGigtqU3ME12tebPL5OAzEfsfIoH4W5CBmA9MmIq+rize1XHAQF9MUlbclOa3pQ6xOjJi0OwH5ftp0khTzO9MzMlKOHcJ2sW+4JEmhkwuSsA6hBPrbfBoIIb5aSSGCUOJacLfHv7NJ9IEL3dHNIXJaMcUw3BnTdRmiYHqMElVZEqcCVLOfPiXh1+TWnEnn2kiMPXpX/3vyOiIWzLWFeLfFLGkwaiCAHqc6gNkPk397ptvrRkA+ilrok+7lw+5d1HX5oj57+p60TRNKq2A+Ek3wUGzZttwshx8ir8/QK+4ddqFnhiXzRHzJFZUUC7M9pi6KSg5rHuCkZFRFMBMXS9Yu2y5rxTKlk0S82gKSBHrx2S1qGk415QrFjXdFGUfzo1M8imXQsLjViWLbJLYP4qmqmjg9OMsXKaoQHyp8bQP8+ngbyAxrPQsTE3fcFsUzmWTxJKGohaLJsOZpKKZ07HKRzN9TNIZk3XJV5wM8Wri4anhvrw71WxmM8Qic1SoKGMtrGCC2QK/i/lMvahjLb+u6+o9C9jwxPx83p3GjIi1N3gw+fzk9FM+zKdhOQrYfoiXcLkIBAFFa1HE8PD8cF+rG+PKzRHTmEVMxqSP5NOwnAerFtGjRS9WFAv2gnvcmWy6+g2Ov8p/nz8OcuE0f3L6eCn+fPX44+PUajfhs9PHuZx+jtvcRtkMsawhquRICFhgIYuqTtVRmMXABJlEJRm2jk1Bt5ysUrILp47xB8eOnThx4vVTj+nJj6eO81b/sbYTj0+cOuf3RE5ZeE4B4iNtJ0iObMPtboNshliOZi4xO4aVK6ooFLFU2Id2jfkknKaTYbTkxHArt75wqNKUvX68jSvZsfP489U2/BVpO99GjZG2E/Tr3JEysTYith03um2yCWJpQ8ZyFR/mJnCWXCmaFJhjdgyzslT1KRY5sfmbE7i+q6K86tU2z48ExXOMa9Xxc/zHGwTw3LnSkS4htsxkVcUiKFViEG2DmQc3Q0CHn5L/VObJmDiJW62E5yMpWj3udMrOPfacPkUuh0Xs/Ovwo+2I5/xv4ffpU2VD5Q5iqVkqvlOpMgWDbkU3GWUYZSrEQDsm+SDKnKJdVm6mJ8KtoR8c+QuidY5sl0XsMWgc0ooANc8FBxjoqRdIOLHzKBe28a6fRxontspgXJQk0TLzwAhCSyszZo2hKqpcMY/D5cR8Pp9vrdi6E/lYCkN2LHIe7fobSOLxuWpir3PhxM6hPN6+m34uaZhYYhZCIh/WkaEjgVlFQfcx3hf5kCmRS1bMW6u7cAJ02qFikbYLp0HI2h9rI7mAOLDxQttpz6unyjbPFb0yKdLUrkTFneh5AaOcjHV3mI2lfCKYOUH8vrxBeOgH5xKB45xSG9qsY49fPXKEoJyzWn8EOsdLx7qBWGROIc9CUlWGNYn4RNK/0H3ow8IogDl+GA9E3X/jB2tPh9B0xbYEbdwQRfD3MRuObe6PtEXAW+NHXPC7gljUUAiYqKgSX0gD9h/rorA0T+IrkZgosGXwQvjE+vT1iki8ZKYeH3MQs7wNdNVgEDh14sKrF861Han2YC8cQdlNPn/LxscBMct+KbxXYpGBnsPCfSzsFLkdU/VH6OYn0ul0qmrq7VxJrcBmnTvPH0csjxaAvoEv/fhG228fR7DdqWNvkLTtEtPfODG+uBLX1xAxcP2ln5aZoEKHlKgmG9c9m2zFnTmeshCxWxsfF52zCoat5Uc4XSk+WRXBrmHQJDDJzOkYASjLbpzXdUh3g8RGzFxG90lM8FElAa6jUZQnq4zRM3jKeUGQabhqxdtaIR3r3/CwxAqolKllMkXy+FXyXIEY4EI3X9KxjpgK/2XRUdLoRulujNgyle5A9G3mioziblxE8mTEwNVHopgxcSITGIKYxbl/uFnLGiMWnSXfHlOtYpGq/AnfP0dxsaos5bBEiuEOSJqmmS6r5KwWIta1wUGRObDoioL15hL4EjkTf0qqsjpqgGehShlcgyphlR3G5G4pgkoEg0EPGphgRZdpiFjLI1zYrOmmRK69lKMHAgtEDXI1GFgxLErkiwZFl6zcjfYOJv3eUU/aW2GXGyLm8WRo8ZaeyWRM9P11Cr6NQGqWCghkrajJClNB0VSBKW5xyYIBT6S/xzPYu5ZYx4bnzjLaTgX+13M6AzcDY28kRoEAM3WRV8jKuAjfqLlGPxIPVMkmiz6jcEr5uxiFZ/EXO8KkgFh7tiuQ3AKxrMFTYmDlRdHM5YAcEkv6VyihISsaU61JEkBbewMav7daYpu7gTicUl6KgW/wgv84ExDz93u8kUDF7H5jxFYNqn8VMZPPlyuhkhlJj0a5HpUvgsMpTOKm1do747mJBRzEsnj+ix5hElFPJOuJeKIVt0PEmjc6V+PuPCcGfRCLqWmngWWFx5l60UKGAXrtTe783h6H4B03EM46xUEsiqfvUAkkEft0g4NSBoJglH9loqT5wL0Hew/2apXh9Bv4/xkqUvTJnOCGG0M1wx33bPJSy8TSCGyn/iZfQ8RWRT7prTIEheseQMdUtPCjaOBEVVQ0WgcBHVduZAFXL96yQ9cT6Wy0Oj20prFELIVnV+T0IqloNl01QvvhdEcbeFf4gf5oNlodxAUr2iKpVApPS9W5ByTWuQExdGAJmQqWH3z8DJahi4wBMawlVhXw9lWdSu9w7hIX4Kw/DI7iLZcTtNkebtfanfZibaNNLIjNTtObaOeHOreiDXbxtg7bauNzT6SFGnucMEYsq2pfcpAsZDAGh9eURojRSCmKqooREVN8ukQbquA6rVEDZ8RVhYk5wadiKhbiclWVVtb7S1OpCisUGSyPBaU7iQytbbSI0Qgy6Ly88qElxUuW26zeC6xikVJjCXiip3xksEQsSpe4dWL3ydPC6VscCWXNx+eSGGDJGlTUA4pl6jJlsnELAiatt9jZX3FvkQW62kF+5aO1GkecxOilHkdnHeWsemMOEniod6G3l86Pl4jh19DV4XUgT9CT5nhXGRkS43q3ZWJRQ8YlNKLIV3GRJ4GemTDrx8oCa+2plFNwXy2zqOU0LZP5U33nMlahIzgGDGLXidBlpuo3IoaEhyA4TBZpA3XH4KCNHIfSHjop1WO/yvsjeXDZcifEawnQpaJWxmxi2Jqq0002JhaZIyVifCM2JIZjAE6P6FiLwXegwRWXOQjFM0Wa9V1Px/orbhlvzg7ScAjsqdUYKxELDlV0Xg53wf52eizFWCh/JRH762kp9ztOOWJ9kO0GJy22QUcP3Rqx7N9NXDmIuQu+gyJmx6D/MZZDYkzmbgWoF4SWDFc8A9WVup+YLCsNypB17aXXUpzC2kYiFuMK4BgCHfdMAFIcSEVw4LeIjTjfE7F3lL8Zj8fqwEGvd91oooFeGWzPaBlNN2WgJiqCxidz+eYfUUPl9T44R44ZMlpso4p1VSxdqSOoAmXHys97S81GyzhxGSq9GnXaGz+/1xFnW8oC3uL8FiIWnYprge8JXXkktrAODiJ2bZ0D8D3mIFpUaSs7vvWftSJ1lfYdoLoLDAZkGfwyCsjl2XoqliibYv7Wld+nlwKBqsYFKzqwiDmskIfTabZliBPAALTDbhu0OltLhcsM/befEx4snW315aB3fe+4AWL+OQyScEgEHrTfH0YAqqoE+NouXAknylSJIWASzZSMu/XeCwc6Z0yW8jodMzTEXbUaO8rEUpX92uFGcBnlfyG+Qixijg9upvdcE+raxNZzwBsglmPFImbBcAUXmiwmWo49mIVRhRFLiRer4NLeYjHzqJ4D22GbXFsa1LH2ErGo9S52vxmpvukRrmMVEvXU17EK6Vl7SVsgdtfge6tQ7pAW6PLtoWijgVWFl0aJOJpaS7ogWDfu13Qu6J4rOqxtULg47Fi5MeF12LGsfZLt0EWrvgKb4prPRjtWGjBsS+kteYBlaYTY4fWIJQ0scSJiPkartvhSSknBGZBlqovFanXcC4rvpwWerlFzdiTqXXsxFcNiwOpuHbUaLX8MJVV+o0SN+7ONfYW0eB3Wz/YkOirDLZKGiDXVfz09CwMh2SmyVirfewAn4GhH+a8YrXmjbWIlcMVMEF37ombqgobt6v6KY2eH43GsujHqtZ0rR7aHrBfXmGaH7vitz+1xRAVB6+7JH0uV39NrPyjZrGSkdJkb9sp1iOHua7jdBxakyCLVV1DsKMzSu87RlpNWnSfu2aDpRVVW9eXsmm5JfWkhHXUINqM+kXvvd1h0DFpi6apGZ0axo8SRvgf+aVH79svKHBm1BxHu84/Agf6SQfR4cCTtJcWF0L2jYWLr6RhYhRWR9ItK07GuR/JRgiKXwPw/uGWqKlpmH51cdMpghDC06k9dM6rxrznSQw9j/Jf1hVc2WprjJBYp6yuPK4e6eOzuLx0KY2PXYOljyPIvlN/TWljE48pYR0dP6YOeW8c8/kc5k3F7j7SozIL5ZAHnPyBIYlR7RyYfp8wxnU17/kizVR9bh5gn0lxuKOcuajQ6iXFTxnXPkbtYCK79sFjCJhbzL9iNpYElESsfyUOC5yfmWTX0XBH3amACZsVw8i2nM8GAqxuZxdyixANzgSmK+X+5TLEoGYYxq1V5sfWIQSeyrjruzAlGB6sbK2ZG+Nvxrp/o5Yf2OMxnsJ+3Ddq8uXfBL2LQWTw5amGMW5F3Q8TG1iUWyYgMHf6iD9xWsFWZjClKc7M5fC3VMWfKVG8BLIViLmPCAGDOjUTTayL/iL9ayof4wbytCROqG/0Jv/NNE/AGtrGMpKLRVFUOtqrN9sdSay8tkY469473R/zrzeqRHVufmMefM0QwV9ywm2jTwKm3kyF357C5CCA1zeSe7coLnhXbkrRsfmLBKakRG3QjxMCErCjYHXEDU/hnVOx/lFqeBQXDIBy6JfTHuYC/7vvsoDwnsWgg3t/cG8hGg40R83xeWH7yr3/hMGis3B+tUtpE7wPtp59+KhZN/dFqdJdWQj0nsWQyEO9t6WoeinHvojdOMlRXO263hlunlm4s3WuvnrJBSf2Af/YN/3Te589xUS9WnpNYLxJr7+/qGOJj5VBzR1d/S3t/3TxglvYm7gv/UPuISVrrHG4NLT3HRb1Y6ffWS9w3JC02seZrhwYGuq81c2Itdf+SYtckEatH5HorEu3bzX8fO53NPs+A1E/EWoBYLNYTi8UsYu318kKBM2dxRdukt069wUgrV0F3rgxHqUesXl7rbFPTtenpybNNZ2tqYdybt4htXFH7C5UyscEYimXHeuvUjgS9TU1jB492w89aW5VFvWOTfI/n1rXpJpcI2LFAvL2lv5pYf23XIH2mqenqwaPjTU1NtSZRPm0aK/AFgnnv1Rd74Tsm7Uistwax2rOaUSA2doCInV37agQ0sCkfAgdj8rMm7650X59f4twhQ2KL1659ds0m1l57OEFiCwcP1CGWQGJjZ8bGusfgdeca1F3qzG5FAhaxrubBAweOWv5Yf0tvb+0qtvTZpvHx7m4kViM88CMxFDygRCx7a+bZs/FbuzHE3Iokk5ZD1jyIf8XMJgZKVuPg1K2nA4dIBrrHa5Vl28TGgZiVgAl+/8preMbMzLg7/lr2SLLk9I/jzAgQq2v6e5/CnR8mgQevfLbW1J116Bi3/Nmnrx3u7OzEMwaeuWIf3WyZWIzrmG3I1szBLM4Ar859JITgr2uQzYxzYp0DTU3PUviXHn+NJxylMw4NPHWDxxFNlh2y7qMOYr3VdxeYIV5Hjx4Ag0cEDo1XHRJ5ip5a09jAgaPd3YefZm8/fa1zHx6PZyCyZy4YP9OBMrGefZ1Xh+zBMl61FVni2cAh+/ZtAjNVoVD6lX0HDh44evAgDiKgUtAh6QxqoBNcsDFsykFssGnf1cESsSpDNkoqRrd/kBMAJbtV+WaLrx2Fl3/zG3j9aOfhge5DhxHYOif8EgWJWU7/0GDsak+JWG9vpTuQfMW+fyJCAAaeVRwy8kqnk1j3AJ2BDdSyr/PQocWf895ejKQDJacfiMUGy8TilYVAt2bKxH5jq0wFgMizw52WSh1wEDvgMmKe3pLTX02s0uEiw2/3MYvYzC3nEdkSU/7q+IAre6XlkKHT7yDWj8R6KzzOkZkalv+W84j4zIBl6enVgfFu5xnUVHnCL1SswbKKGJr+ym6JxBAIJ8KdhUoAt/gRcAj3vpAYf37UbprZqQUx2yrlTD9mLwZLTn880O/0nkZnEIDTgx3oriQ2Yh3BXXyIo7q7B5AZntKJ7hucsHtz2ZuQbDUx272IVywUTc1wAIgEw6SBge7uGeemYp7UUzrCiju7kRg08MDKapppfE/jXSyJuOWQrSXmiJQSn3IANhG8/+7uoYo4aWycjkDptonR80NW03jTmY2XVf8CxOHCOgdLIBYo5xWvjlFKokIgHnLOjyTPNG0sa0sGf4lSm1hv3LGAO+itA8DxNnUOqZQz7kj5jLa013RhAwE7Dkw0QOzTsUZ0bL2lcL8gSQRghKxBrDxa9tfqcmNnnFNOKe/ZM2MgdWmNjZ154Su6fz7xZ1tiOGNZIoaRpXNhaPIqACEiXM6cOevtqEoRprLx3t6WT8fO2oV0Z8sCz1oCURdkexwSSUUDvaBlMFiCSxZIRquMdCQYzQbiwATUL57Mrq2kqxJ/AiXIJeGS3uj5f0xsUxIrckenAAAAAElFTkSuQmCC;" vertex="1" parent="1">
          <mxGeometry x="202.72000000000003" y="690" width="155" height="83.85" as="geometry" />
        </mxCell>
        <mxCell id="odeWDLO1GaSnZR0GTPzi-29" style="edgeStyle=orthogonalEdgeStyle;rounded=0;orthogonalLoop=1;jettySize=auto;html=1;" edge="1" parent="1" source="odeWDLO1GaSnZR0GTPzi-19" target="odeWDLO1GaSnZR0GTPzi-7">
          <mxGeometry relative="1" as="geometry" />
        </mxCell>
        <mxCell id="odeWDLO1GaSnZR0GTPzi-19" value="" style="shape=image;verticalLabelPosition=bottom;labelBackgroundColor=default;verticalAlign=top;aspect=fixed;imageAspect=0;image=data:image/png,iVBORw0KGgoAAAANSUhEUgAAAO4AAADUCAMAAACs0e/bAAAAkFBMVEURHCT////l5eXm5ubk5OTj4+P7+/v4+Pjr6+vt7e3z8/P29vYAAADw8PAAABCbnJ0ACBUAEhwADRkLGCHX19iChIZtcHIAAAyHiYoAABIAAAcZIim6u7zExcbIycm9vr+trq+OkJI7P0MiKS8qMDVfYmVKTlJydXc2Oz+kpaZnam1cX2IvNDhLTlGys7R8foHOUF7AAAAT0ElEQVR4nO1dbWOiPLOWhJcAQUWstrZatd22tl37///dCWHAgAkkgNDn7D0fdnZr1+EimVx5mcxMLCY2xljQLtMk1Qgjn2lP0BHTIdMB0wHoiOkQtMe0D5pgbLug06/HoBHo4c3iiYHdcBy4PZqth2t3fM2oHdzbmc3gOggh0DjTNrcL2mOa27WRze0yze2CjpgOQXO7NnK4PdCYaW4XZdoGPbxZNLFtO7Nt21jQLtMENLfp2A7vWUyntgOmA9DcJtPcJmjCvtYFzW2CFsyNYXbCWhhVehYRepasR0VCjwoUPSrVeY9yhR6FLx15DLM1cBG3a7e2a7eDe1OzDC4CuwjsIqldG+zaSrt2bq9kFzT79swuyuGOYjYbqljXBp07Uu5A2ZiROZAHDhQKDsTHDHCk3IF8wYGyMaPsSILfDmzW/o93ix7lCj3KkADtdrx7a7MZXAR2QbPXm79mDPYwvGYMdnHJLga7GOzi4jXnwyQCuyU9vFncO+/a4/Cuptn/eFfOCPp25YzQCHcQsylcnPfs1B6G14zBgQTN7YIOMDgSaOZAmLMC0+BIGF5zoQUzhd8ObDbnXQRaQYC2FgHaxrw7sNl/nHdRRwK0pQSImuAOZTaDK3Eg3psMHSgSHEjHkUYwa8C7di0B2noEiIx5t1ez//Fu/UpMbVdvJWbIuz2bnRACDkTAgQg4EAEHynTIdCTogOlA0BHTIejMgS46e90Xze2PY9aQd20pAdq35t2+zBrx7v+/bfV6ArSVdm0tAkTteLc/s3jiMsGEEKusfaY9QUdMh6AD9muB5Vpcu64VMf8PBe0z7VU0+1aLkMyRfCapfX9As5kmKe9WN4waCNBuRYAoa0kHP5+3TM5PT+et61kRe6hbmh2Bdy3+fNvT4ef4QSnd0PQPJkxNju/3px37QkKG5t3b7IBi1hGXp/cjpeuHeZJMypLEi/ma0pf32XMU9GlWtfGa9ujUfwXtM+UJOmI6rGhwoEIzByIhaOY4rs81e97l/pMhXVRxVlAvppR+7Zfcn7ubvegqupa8a+sQYBQtD0e6jmuRXiTe0Nf73cV8W7Mq3rVvy7vB6YM+6GKFVp7TlxOKyK15FxkRoN1IgMTafdJ1fQ9WIJ7Sv09B1M5syW+veBcB7/bgtyVHioL9hC5aYM0kpvTEXraxWQ3/7cC7cLZcJUDWQZ4faZuGFZp4Te/41F/f7Ei8S6J9V7BcHujMxKw+79aePLoqArw4UsmBvO1LH2BT2cR7bl7HbBverfqtr+G3ZQK0yFdfYJkk9GUZ+hpmm/3XL/EuAt5Fdm1MiAMxIU4REwIEiDJH8u87DFBywO/NZtMQlNpQFNBscoH65N3l67pXsKk8JDvmeD3zLkT6gHaZJqAh0qfQEPGDShE/iEf8HHrsxxdJ6MondWa5zuAi8NuLzvwWAe+y1vWYELYAdSWaqYjpsKIDpgPXc7n2Mu2Sv/QGYFN5eNmFgcJsqiOmw4pmD+8yRSranyDALvgtFvzWFfzWBweKhFccgAM9z/v1WlESNuuw5WYjwW89wW9JxW8R6J54d3aTjlwIXRHSD+8iiNQT/Df326r/5g5Ues2p47irW3XkXKbHJamarfpt1X9Fv831xM96uifRkQf+KmhwGFFHwff0xmjZPDpZehLzkaDDipahqoSA6vFuORYTU7NVXjtJ6LNvV0NAzXgX9cG76LZuexH6HPXDu47afxW8W7xmDw+FluE9RF141855t8Ffa/w2cIZDm+J1Ff5b9VuV/xrzbpkA/SHRMrxbculYRryL+uDdAXsy4H32O/MutK4u7xatG3pDo2V4d6TUupq8W7Sugd9W/DcKP4ZgoLIkiRN28F8j3q3cgfi8/eziWuIP7/rqRT3vona8Wwlwmt165iiX+Vc4GO8Krfs0DlpOv+XWbebdS+uGTCImnloHgg5Ah3gzEtp0uAqCMPT44wg6fcqwQV+NzDW8K47M7nH4YSqX5MULJFempLyL+uHdkRw3k4eV1SPvqvarhNZ1xkTLuvOJVFpXzbvl1oWeHSp0IOig0NaIXTnDiwPhcS46ErQMVasrj/5hvHEqk/lK48oj6sa7hf8ux0abTp67865k3izj3dG78iQdna9bt8K70tbV9tdCe8/jjlOZbA6u/PFK/lv1YwnvIinvXmZU4WTwdZBEko1X9lv7NrxL9r+hcdlo9d4H7zpK3oXWjYZf5MqFkuvWFfxX3rq8hzMRdFCnvVn/x3zthDVv4+NW0Sl4F5V41xb9N/4ljcuad4luzbvhaOu+a5nf+b3wrnPttzn/eq+/pnEnkymutG4z7wZGEu5+T+My7j15Zo8f1PBu3sIl3v1zu2Ncc0keA6TgXdXIbMa70W9qXL7N3hPvylv39FtYKJPFZ1Rp3SbeNer61uMvGqhSob6h7zaMzCXexb9qoEqFbqUjcy+8G5L7+dj4KhJ/9ci71VlV9Nv6Mmte16x1DTp+uPxtfZlR7zk08t3mFVExMof7mnE5ubpF0pckdV+9+PGNVkQGvOv9UWzaJGu6eXy50fQyeXx5mdON6sup3xPvVnczEFE07iKecWd562MLK67ewaEMhhudPxSORHdGs6q0R+uteb2t3OL6KzXA5G93uAn9+/5SNpPCTeWksH72DNa8JisiuesuviyQ7q2bvKT2y7tDOVxLvmm0WHkmO5EGvCt13aR4nB7gUn7z05qJ5+SX7/+S2n8JcGfetWW8Kx0gp+kNCWv5MZl0J+X4LcNFyu3IvvfAH0vavNTBBrsZNXvM5b3mQM66NP0qTOM+iGjxmcH1SpZSIkovFlnWh8wEG6v0z4r0dyKxfDed8t7Xz0IpmWRwr19s8pj+fCVbbK9PlsEJoDbvEvniL1E+RwvZcM+QHcps0vAE6ZR9fm/dgnfJuwxTzWtvI/Te9pdHCap1qIKbHC2D03vts105pma4tU59NUGcUyqNF66B+xjqne0qeVd+Aig9PaiHmz786+trTKnwoIv0IvpmnnIYnbx+r8WboA/8MwleNdx0aFbx7nXkTcVv1bzrSg91a+AmdPqz4wekVrj7WeSPunh/fmJyeKAfT5xSyWme8+zDLP3oWULwdXB3PfMu918566nhzudnS5DgHf5/RtTWM51dPryDz+gy++c1rDq4W6wfNQcxU82xVXLaVcJdr1yrLBDhAHDPpZdxph3gPrse+G1TbNU176oiXhW0q4Ibf1pXki0hAG7lZRxoa7jrvUHEqy7vYvnhUDYzkLQuxRkOx3FySJgKcKvCubYD3Na8K4+aU8CN/yrg8gnh7itNCbK+A0h8jn+Bu3t/+zrAW7H46rIBrnyiw+HqRqvr3kVwFXNI/vCfkqGKLsM3oNDNRwaJr3RyuP4bncfxNJsNM0lXGGq4fK0kv/iwPgXaMc36Ea9SuPNssSv7KDk+Fi+BZuPS0+YC11/Dp/TZKjDWwN2mH+xlYSGLla9/04T/RYd3ZXA3T/zxTnJKTicZqcwn86w78115gFv4RhJncM+bOriwNgwkD7F499vybk20uhQubzX5NkNCP7f8Nv7uh9IauGyawH+Q8roa7mTDBwkshUv0b4lp3v0LI9lQBa0rc934ZWnl4v1553orhZv37lq4ScLzPBHJQ8x/LP27COjSs+t5VwY3/sPxhtcfJUlgCbKtaV32uHk/rRmZ97yhfmSLpfNgvBtnQ8j1LhX00LIo4N5pwOWbJi6VEW9L3q2/JYafpONRzIfmK97Nd53c2ZEu/uZcI4e74Q3H3VINd8N5V/oIXXhX6b+u/LAzeZXCnQLC73QxF9PHqAYuYFzWd2Y+q3qQPcJmH2nd3S14t5JZQc67tsmcGfpyPmavM/eUDlXZvIz9bi0R1a+IbsC7RgtAeO58ZJHwrvud9cyEwpw6/Y6WcIkp7+pkRZkb7GbAVOlcbl0RLnt4uplO6TznK405swLusmG9W+VdnZwZxJVGByrg8u1BJkcaJ/GcfocSuFa4n82e83/wYagdXOLq5MwgOe/qZVbwTXYisx+n7fv34+Mnx1SBWxK+RdcGLh8sZbxb2a9SJSxW7TPPZOOianm/kYES4eLyR58cSRu4nPMMeNfWu51N9jLWU27elOYZ7ukK7vleRHvffvPm4WAZZEWpyVVVzjUnOcqogzsRtt6W0hXRZ3G0R47wJmGUlsBaK08RNueonLNKlauK55rLOrBOJkF5gCA/IzrI+jl9nTmBFzj7N7p4O6TCvb+Au9jcLQM2Fj5/Fhvpix/+e9dz0myVKN3fpTtskEkwg6l1visNvuDHr4oZ15StdSnPixlPU+FPe5lmpAvi6ZqKKb0W/Peu7az5kkp6wEux8fmuXhZQ2TIU1oD36TJe78TzahLZJOlXH/nKWepNH6FJFtBKFtQa/42kwQowB8S77e6ohdcULt3unrMRbCa7/D6/cxtyzZVyvOpnEsSK8+xiSJL2te5w8x1p2U5G+jaMMgnqx1XhSH6WR/PzAL3YDGO4MIDbEpdOP3aM4qoMsoB6ioM+usLmrat9s44P/VaoyGSXfERGWUArOV7r/Nc7K252Luj35/v7j17YnCncxer9ffVGFUkrpveWrt8a8i7r0MpHTBZMNEdmYYalh5eJst+wiYl2Bt/rQgH18cyRXnetl+T1mMp3PxGUtE08s2b2bVwX8qotSSY9fFO6x2yYfZs0Fyfwi+IEsk38UYXu/KI2QkNNBAy8a5I5/xfcyy7J2jesWGN2j0gR9DqWPBx8w3tEhtm3x08yIApdYsPs2/yH5aJAbqUokFcUBcLRr7prku3p5zWJ/EpNIlKpScS6K6kQUVPmfMW8eSTJ5svGleIM7u+6stO+kSRJonb3d/WrXijCfEcReiLG1aYwLqrkZX7bUEwz6OWCRR+SbpOpagGKNQBhhMYKIqqvWPN77gHSvUaF1m68a4Uo+CVTjeRF4rc6vGtWbhH/kqlG2rja1ZXLvKvnv3kxzV8xOMdHT+G31RqeArpWldFHTkWWCd2G1wmceuXdPM+cdTf+lfTFV4d8VdfzZgXvZmWOo5fR7/HS4FJd2WnBu0IRemjZfGQuitBDJkGmRx+t6Mkvat5D7WwEflvUvAe/zWveowYiqitRvpIGhQwm8d+gfWX0Fnki3XFTdLGFX8s8kfq860DZJ+6/oyZgo3s3r/KY+61Tz7u2yLumpdPSVzhi7sTFV9CqZGnTgad9vQC8JCwebS6ZJA5WJCwuw20uSGtQF4Eor8PfWOiOdMzP3Mi7Tol3szKLIy2N6MyHKo9teFf36oVdTlgc2MhX3Ia/rWQRaTdIWIyaCgXk8TJDyvwYNRQKsGuJqB3vQl2E1dDJ5ONjhDvVRRB4V9yvEnjXkfEulEn9HnYtmFAbl6srt+HddkMVs4mi1yHxJlQsKH01VDnyoQqJQ1WlI+ssAIUCPTgYsH2TtdNzIXiDaUbuQN9DrRbiuYO14DZNM0yzb5eqTbmfw0wnF99LXK02VZ99W3Z/t+US4VKRHYWfQ/DR9OiWzLYcqjoRUabdAaoG0JUfVMx2LARvsryv2N3fOokxvQ906wA2TTNqo+Y0C9AvH295EBrTc4T6qXsP/tqOdwsCxN7NSngyt/1YhnKz5kuESkc25N2CETxrdqNygAl9j7DKbE+8W7utrrDrfN+CkR6SbaRdf1dveS9sumLrsunqCpuu0LrF5mvJLuyTuYfeG5g1beA2mI2ETVdo3WLzFeDmGnfnXZEAnbd+h+j1+jlCzWabj8T65F2xR+1VsZotZD4/iIWkeyoEr3ecrQk3CO6mD7208IKuApO699rb6sVxoKURrAA6wOBIoPOoAR9H+H7dfdWwoJ+OkVn5YScpo7MMQ1FUvOuIMSEhvqfdzggf6IqUhg0ds0PybqlnYR+f5Fm2dCTZ0HunjVlz3m0I3260mzsQ6yzbLyq/PVCP9YF+77Hf0qzecbbEb0kLv61GDdizF/pg0sYMa3xw0mbpYrbOf81DURQEaEsJ0Dm80Y30nvOVLNb047DzfdyDWXUoSs+8WyXAKFzufxaUTutaOZ5uKP3ZI6s4Te9qtjPv2o12VSsx9rXOdvbJMG/W83mc5Le84ziZz9drSumf2dMu5P7ao1l5GBkh4LflIF+vEuQbFkG+BByJgCMRcCQCjlSOsvUhujaKAn93Pt3dpbcussQ/b8fj3d3ptOU33gi+iVkxyJfDBX/VDQGVEqCtR4D82kPe80KXvQLeorc225Z3NRhBlwCrw8VAZs1411baNTtGB/vDm8X8UhxuvlwTFZdrXDdgvxZYrsU13GoJBe1r3HKxRjFLTK9ehOBIXQlQsj02hNlb866KAO1xzBpem1JtvBrvgNrjmK1eRpcllbgkk7hocKBC190q9a7vzMr0EGZb8q7dhQAVJ+gDmB2Ld+1xzOJWUXN2MwE25OuwxzGLq5fR2zpQR/8dymwH3oWz5aF5t5PZf493ddOElAnw4kjSiWsz745idlLjQL6GA8kIsM6RJNkdhjRrkFqP64wAi1AUIEAEBIj0ctyBHt5su0Lw/+u8W06LKSkkXWgINEKliB8EET+K/HaS/LL2OGYRT3paTZqoSp4IOmA6cD2Xa++ixeyFTVkMZeZub9bXTmkLOnSKeObCkSCWq3AgaWBxJcedM47Zf413tdNiXhyo9JolDlR1JNGB8CU4fgyzsmTjdUnHwWGudCRo3ezBI5jVTyUvEGApBLQFAaLCfwc2+0/yrlYZiJIj2V0IsNq6w5lF2kU+ahwoqHEgTf8dyqwx79pXBGgbESBqx7s9mf0/PwGY7NraTqUAAAAASUVORK5CYII=;" vertex="1" parent="1">
          <mxGeometry x="418.84000000000003" y="245" width="98" height="87.29" as="geometry" />
        </mxCell>
        <mxCell id="odeWDLO1GaSnZR0GTPzi-32" value="" style="shape=image;verticalLabelPosition=bottom;labelBackgroundColor=default;verticalAlign=top;aspect=fixed;imageAspect=0;image=data:image/png,iVBORw0KGgoAAAANSUhEUgAAAO0AAAB8CAMAAACyqcdbAAAAxlBMVEX/////S0z+jIz/x8gAAAD///319fX6+vrynZn7P0K+vsAgHyhnZmoWFCTi4uLDxMUcHChxcXQlJi08O0UZGSPt7e42Nj7Pz9JJSU4GBhkNDxfX2NkTEyCurq9iYmgAABNWVVoAAA0tLDMkJDCQkJKBgISenqBBQUf16unstLPtmJz53N3w0dL65+X+hob2iYzvqqjofYHmKCrmhX/wVFT2ycn8TEHpW1/hop7zj43pjI3oQkXsNDbra27ou7vseXb9dXUdHR/O8feOAAAIIklEQVR4nO2aC3ubOBZAcSKgAfMcnkYYY/FwY8fx7CSbpulkZv//n9orAQYcJ9mdFickOv1aUxmMDpKurmQLAofD4XA4HA6Hw+FwOBwOh8PhcDgcDofz6xDFt67ByfhEqgxpJb91FU6DSNv26+WaHX14RPizud5+kT+JrXB1uT3bfn3rivxKxKrpjgUk8esZcL0WnnZmdvoI2xxsN+vq4JDNNbU920lHrhIF+WqMIVuUfv/XH+sjoXdVyUJfFp8+Cvlqc351iur9WsBkN7m4uV/3+iYcyLuzmvt1p6NXR+B6fjvOyenq5t+Ti7tvK4G67LU2943t9lLcv8FeV+tzYP1W9f05xO8Xk8nk4uHbldg24tX3sz3Ql/florDa3FLZ89UYxy2w+TGhXNztVuz/VGO3bW1pXBbrwSuxdgU28khtxbtJzZ+PMu2skFec9fgiVX1YXt/WshCjxikLDfmj0Z3cseBzddm3ZTmG2HEda4yiXN3sbS9+/HUryb1+XPflrit05Leu8z9Hur+YtNx8310fyJ5td+vNeZcRTrZ7Hh8mXR7uDtv27PqyJ3s70hAlsFnlr8nkNd9dr2lHK0uD67eLySGHvvfdpj2SO4+I9Y8ntpObvw+modb2WF49Jv582riQXv3da999X75dvXV1f5LHI43L2nfb7cv1HLSRRrm6bVndHbXt9+emL490QbBHlHfP2PZ8d2PPoxo2N8/qtv35fux5VIP8+5E41fBws71uc4wx51EMiDmPL9jS9mXNe71jHXnUIYqtaFcvdGUG6873NI8ab9pYQav/x8uNWw/fLzDZjlxWoL6b41Puge/141g3LfrIlw8Xr/KwXQuj78ls6EpfL7+8xuVG/ACyNfKrfJhvdcUXqd7+XN9hfyJVzjuhM75O1f1c34/k6uDUWzlUMYqLIj7dnQ1vadGb6QvPck910xqpKFXVcVTVtqLT3FFx8JTa5ikJ49PcskEPkJmEhGiJM0uKulDSdX24tbiiVrYZImllC7c7Sc/SA4y9QjEMJV4gguJq8PpBMGAfU1SN2epTO2d3kadB6Q92uxbJCp25Xh9nIVlWN/UdvBjeVpDcqgPJAUansI0QKVutDIc5u7+vms/ZsjxJeBLAxX5eLDYZ17G397Zi/UlyYIb+CbKvIgmztuKRZwasoant8YF08MuKZ958OXHc2+5htgefMACWlsTtLeQAQY+Soii21UDxfV9nkyOtiBvndYc3sjzP4l7LS3G3TI4Mw2VX5JlRn6HACUVzTWMrwbwLr5HvlyqOIzoLD2yLw6LzQOniBVoYJbZNUoQQxGgFoVLWLRSykeUWGIVAiqZ6cxG8mUKRliCLlclThBQ5h0INIxoI5ALBRVqIcqlnqyNk64JsIaQSEsLtBowVjCI1p4dlYAszEklQSm2NmTl3F6GZUFt3jkjolIGXmLOlwn7SKfhlqiZeUDqYJAEd9bLl4DhHCfbsFCY2XbKQliyXCSbI6tva6m/MNiXUNkXzgW0hSqmHE7xrGAUhQawois5sp1aKFoXiCu50RlDuw+xoBImpVq1baqanQFEE0yd9PNSWBFgtfBgRWHXmWYimRhT5VkqQ8tRWiBTFI05hKIo/7H67CDMQmc196SAk+WQfk42ZbeOyGn8wRTnNs5lqzpxWLoZ+UF+dY0Ibl9riOtJHKlHNpL7GCtUFfT2wFTpRalBEyFVD20HeFPJkmj1Vv90UfLNrS5Y6C7K6pzpZM//opUnoM4BBGle/UhaikJR6Zavq9U/E4AGFeTUDUTsvemrbzkDDL0t0GGGmqUHyGFhx08R92yqhFAUlJd4+NsHkjGm5UhSsjD0Nk9rQcWs1W+cxphlLdezOHaI8tRVq25Mg61npOKYGys6ynjH6tqhOBSzsdEJaDNluN6qw5q5tU6WZcA02JqpjycIm7dRvaUtr4hpxPvdgBM6qIdazVT25ir4eCQvJrZGUJhWpXGDyam3D1tbW5u/JtkHys6WpLtmqr2drLuQqXQyhnaZ7FqTp17JfQPKQ59aSPGNb3+Ed2dKqLe0kowfHbAUBwbow3INNvGR1LYKlBqlImiZkRLZQvWJmlvT1eNsiYs6tLnS9pi9RaC+sPMuy/J23LUzsvf0KH9nh87Yhebouk6ZYWyjVue6z47Y+941ti8TpJY4uIunztqXZXUJUKNgMqgfWjcnv0zaidg1QPx+GJj08bpslvaSaLiHkLISEo/pyQNB/e9+2Aktdxb1thjXrOVsoDdm4rPGzvJDkHDv1ZhbkUvh9j1shS0nQpgiRRxDLL47bunPs5O2lCOWywNq2Jv8ZW0MYHrfUnEVU7w4ZnonZRi/dxLBpjif3bAV/CUlvlV3KsaPaBs0MzUU96xbon85ANEtrH+NgwEj1TCe0YsVQ4imsXeuaS5ZmlrERF31bIU5JGsSGbyh0+UYbVQ9MvFBgPRcv0NI7YgtLvtdtY0TszFCKYde3NPyWyMGJpmnwFzXbj4IBy9cQowW1dVpbIbYTM9EI/MUoqzbsUmyGngeLf9U4EpPB7AVbs7Z1F4k9w6nTrjmG8pXiYOZg7DjQRu0y1/egJF3QnZpZ0NjCv3o2w4CGp36dIOuLGS1yLNf1cGWbotb2P+m0tU3Z8hjK5sxWnZW1n2sl8Bn20LbVvXwljv2DbhQZCv1qSJbk/t6YHNGTu8t/WFPEBtujgZPrl+YSuS5jSGzfi5U1K4nOhyiHNRiGz/XVcn+j+387fcj6DMz/Z/sRfhrE4XA4HA6Hw+FwOBwOh8PhcDgczgflv9L00fk37zomAAAAAElFTkSuQmCC;" vertex="1" parent="1">
          <mxGeometry x="840" y="376" width="237" height="124" as="geometry" />
        </mxCell>
        <mxCell id="odeWDLO1GaSnZR0GTPzi-41" value="" style="shape=image;verticalLabelPosition=bottom;labelBackgroundColor=default;verticalAlign=top;aspect=fixed;imageAspect=0;image=data:image/png,iVBORw0KGgoAAAANSUhEUgAAAXIAAABKCAYAAACmet99AAAAAXNSR0IArs4c6QAAAARnQU1BAACxjwv8YQUAAAAJcEhZcwAAEnQAABJ0Ad5mH3gAABznSURBVHhe7Z0HdBRVF8dfCEVBEHtDrDS7otJEURRRsRwUUVEpVmzYz1EpHkVE8EixC1asiJWDCqKCHcEaGwIqYoEoCpLQk/nmd7N3v5dhQ7KbJWzW+0/umdlX75v35v/u3HkzkxOEcCFim/gW5OTkxPZKEP1dEfjlGQwGgyH9qBHbGgwGg6GaohSRi/XsGdD8NovaYDAYMhvrWORG3AaDwVC9IEQOea9Zs0YCAL5wwtim4hc3GAwGQ9VBbnYWFxe7VatWCXl//tnnbsXKFY4wfvuorjc7M0EHg8Fg2FDIWbt2bQBBFxQUuEmTJrmpU6cK8W222WYujCtFgkbkBoPBkHnIWb16dVCjRg331ltvuWHDhrmWLVu6Jk2auC222CIhcSdD5plCoEbkBoMhm5FTVFQUrFixwvXr188VFha6IUOGuJ122snl5uY6CN5HKhb5hoQRtMFgMITcXFxcHCxevNj17t3btW/f3l199dXiL4fIa9WqVYq8M5XIg+KyCV10ziy1DQaDIa0oZXLjTuEmJ+QHkWcacRsMBoNhXQiRK2EXFRWJlYslHnWrVFvYXGQwGLIccbbGEgdY4jVr1pT9TAYTji6RlD+2MdF4SJxJqrJiMBgMmQzxkS9ZssT16NHDde7c2V188cVxIo+SWKaQGiTNA0wQOROPD64q0F/jovEGg8GQbYhb5GrJVgcwofz999/ut99+c7//9rv7448/4rJgwQK3aNEiIXTSVad2GQwGQyqIW+RnnXWWO+6446qFRQ7uvfdeWfuOL9/35y9fvty1aNHC9enTxzVr1szliH8lFmkwGAxZiFJ3NDOJqMvD+++/7yZPnuxeeukl98ILL8TlzTfflLg///yzxIfuv87RYDAYshBC5Lgf1AUBmZclmQDVs06dOqIT1rj6whHImyuK2rVruxo5NcQij7bDxMTEJJuklEWebcAaN4vcYDBkO6qUyLGmsZjF5RG7ClAxGAwGQ2qoeiIvKpYVJWyRRCS+PmIvj/SJ1zTlpTUYDIZsQJUSOa/FXblqZXxbUFgg73VZuXKl48VdCKtO/vnnHwkjbvXq1aXk33//jVv1m2yyifiHlLwRfms8vvKseULVYDAYyoAsP4Q4WX54wgknrHf54YZAKas53IWAWS4IqfNO9LIAoSP16tUrRdb6oBB5IXojcoPBkO2oUiLHyv7qq6/ctGnTxLrGxeI/ebnlllu60047zf3yyy/ulVdecfXr15d0PrbaaivXs2dP9/HHH0tZcsfWI2vq4DW87dq1i7+OtyomJIPBYNhYqFIi52nMRx55xA0YMEDIF4HMFbvttpt77LHHhKSvu+46qT+qAxY4BE4ZL7/8sljuPrDwDzjgADfsjmGubdu2LqfGumUYDAZDNqFK/Q6s7cbdoX5x3apgfZMGIQ43iR+P8GZGrGwmG78cFX4zQdSsVTMlEsctQ7087Tp37lwJY3KgbLboyNYXg8Fg2JioUiJPZGFHUV4aja9ImlQAMc+fP98NHz7cdevWzY0ZM0bCmFwARG8wGAyZhIy/E5gqIYNU8rKiJi8vzz300EPum2++cXfccYcbPHiwxGGNm8/dYDBkGrKayFPBzz//LO9vWbZsmbhxfv31V/fwww+7m266SaxyvX9gMBgMmYK0Ejk3LrFo1bfNmnCEG5JrVq8Ri5Y4XamCm8L3NSP4opcuXSokSrzvyiCe8ikHgeQJ03QIZVMG9ZJG/ea+aH50QWf2KZf8+MUnTZokvzWO1+M+/fTT7r777otpYjAYDJmDtK5agVR1FQo3HCFGoIRbtLbILfh1gfvyyy/jD/OwVXJmv3Xr1rK6hTSbbrqpELHqQxrWh7Ma5YcffpB3jwNfT+ohzV577SXLGdcHzYeefMB56b9L3ZNPPikfoKYc6qU9OvHwetynnnrK7bPPPhKvSPY4GQwGQzqRViL//PPPZWkgxIhFLV+3D4vA8mXZ4KGHHioEOH36dImHqKkDgsZShoDRgQ9G8K7xrbfeWvKqPpA6eY4//nj33XffCZnj7vDXkWP9b7/99m6//fYT6/rHH3+UiUIBKVMmaVq2bCnr0tGzqLjIzZs3z40YMUJucKKXT9bUQRv69u3rbr/9diPyjQQ77gbDukgrkd99992yTrywsFDyqkXOyde0aVN34YUXStgNN9wg4dRDHGHIzjvv7EaOHOlmzZrlbrvtNiFp4lUP0vClf3zY99xzj3vttdeE3H09saAhaKzq8ePHu1dffXUdIqccHhi64oor3L777it5IGomoYEDB7rXX39dfqs1TnqtA0ufdEYoVQ//mAP/uGuc9UXVwj8/K4pU8hjWj7T6yCFwrGmsYKxbLGK2P/30k1u4cKFY3ssLl4slTdzs2bPd999/H//NE51YywUFBZJvzpw58TSajrJA/qJ8iccy//bbb+NCOm5QUg6ffFMdVCiDLXFcBfhggEHeDDIlBt3qZEPZuF/wo48dO9a9+OKLMlm8/fbbohv5geYzpAfR46l9pf2i9zg0jn22ms/Pr3kVjBXyaxpe5sZY5TfhxOu+Xx/hWqeGK9inDr/eioI8Wr/+pj7dB6oTKKsevR8UjeO3Hjv2VVcfmoc46gJ+OexjRCn02Cj0+Kjwmzzoo/uG9CF30KBBN9PhfF0Hq/nggw+OuyqSnTU//PBDeSqTG40+KGeHHXZwHY7oIC4MLGrqQOhQ4hF82meccYaQJVYxFrs/OACP7V9yySVu2jvTZJmgDjIfPCHaqVMnseyj1rOiSZMm7ogjjhAXC8DyZrJ55513hOhVryiojwmDtuL+ob18kWjq1Kny6oFPPvlE0u24447SPm2bIXVE+09/YzAwIePy0vsYkAv3TpYuWeo233xz+VIUBsK2224rK5Fw/zG586wA6ZjYiWfMEE//7dx4ZyEbxh/EQ9nc8GY5KpM1K5vYqoHCvR2MCsYacYxfymQcoSNjGAOG+tBJr3ijoF3oMGPGDDFg8vPzxTiifD6kwnlK3i+++ELKrLtpXff7779LetpEW8lPWl0sgKsRvRmztBmdf5z3o2ypj2NHGby3qGHDhjFNSs5Zxjrtpj16/GbOnCl50IM0HBvyfv3113KOU+ann34q+uuxQjhX0YnzV8tXnjFUHv/5I8nAY8Cz5QRo0KCB7CMar/sAy4VB+tlnn8lA5eRFuDkLmT/xxBPu1ltvlQmBk1AmonXnEUOKkL7gP9xyFXTnnXcKkQH6ZvHixe7dd99106ZPE+JjkuXKCUKGyLgHwhUU92nIz+T73nvvxft11KhRso9bTy1JCOejjz5yo0ePlsmbffr3jTfeEGJjMmGCIGzKlCnuwQcfdOPGjZN9yl/wywL30ccfuWeffVbI0IeML+4lhaBeSI/xg07o9/zzz8vrKnj3kJInbYbMl69YLu3g+7VsyfP444+7m2++Of4+IyYSxuSECRNEPz6FOOXNKbLP8UB32sFxAoxX2o1eEDTp9aE4SL1///5SHwSOPoRzLqATkwbl8dwFZdIPKhg+1KfH04yb9OI/T+QMKAYjAxgSx0/Pbx1o7CM+NAwhH2kR9rka4eSeN3eeW72qZJljcVD6qsKQGrQf4sc/JEAsUSZQrF8IAqL466+/hNBJwwoo+oL+YWKFKA855BC5YjvmmGNc586d5aPjxOPSw2pWsiG/3qfBaiU/V6zk5X7SKaec4o488kixRFu1auVOPvlkKY+b9tttt52koew9m+wZvzKArKPgKpU6qBe90eHEE0+Uejp06CD3cZiAIFbSYf0yIUCmGBOMO+75HHbYYe7oo4+WNFz10lbSFSwrcC2atxBdunTpImWz3XPPPWW80jZIOgr0gZghYMBY5tUVkD4TgVrUtIm2AXTE+kcX2q9y6qmnuubNm4vO6GtIL1IicjqOwUKHsK/CTM5WO4qO9jt71epVbu2aEv+Y5mVfhTDKYMtvBpIfr2m4fIYc+SYn8OMZKHpCR8tHFP6+EjGrZA466CA5CYHqTlwUhFEGW20LdQNO/r333tvV26xewryG5MAxVOGY0/eQCq44yI7xgAWqII32BVZjjdzYt1vDP9wU+++/vyxzRVjKCgnTf4wZ4nX8ad/iM2dc4i5jNRRkTr727dvLC9pY+dSsWTNZlcXvRo0aiesOMmvTpo38Rh+u+BgbPqjHH2ekw6CgLNWve/fuQsoQKvpoOkDebbbZRm7CM3Y7duwoLsOff/pZyDm3Rq4cp+YtmssEhj7oTdm0xy/LB+GUjb7s037S0c6uXbvKQ3JMTsRxvlAH8bQHF8qBBx4odSGtW7WWuklHHHkM6UVKPnId5Bqv+8guu+wi1gGWCoPqqKOOkgHN4KJTt9xqS+lQwkkTFQZww80buq232Vqsi8MPP1ysEhXKYnBzUnCyEEZZKgxSyuFkZYULA5y6NT9p9Ddp8NmhNye8Xk7jKsHSIVxPHB/6m60KeSEDBEutR48e4g8ljuOpeQypg2Oo/QHp4s+GQBB8sBAqxxyLlX6AoLEO8V+f3u10tyh/kVjvkAxkyYNnWJhY2nXr1hWr/oMPPnBnn322EA7jnHIYG/h9cSFQP2XiSuP+CGSGb1kJD6te9WJ8yQfAw3Dy4k9n4mGyAHoeMT7YB1jHuFFOP/10aSPn5uTJk2WF1uWXXy7jFVcH5wXjHxcL1jBjHh2wwEmPf51zJbdmrnv/g/flN4LeuIFoK22EfDle5OW8Uj3QCVcJcZwL6MPVAu4e9OA4oSvnKzqiH6+gZoKF5DGKWIjA1Sn15X2dJ+c9/nXqoHzlGUPlkdTyQwY1nUDn06l0oJ+GQY5EoScDgxDricGuM7PfmfzWWZ2Ti8GlA0vB4Oako0zN66chnDIAdfIbUai+OpAYeLSDkxqrh0E3ceJEOVmBEoePRL+pi7KYCIcNGyZbPVGQaB5DamCi5VjSp/hqIWQmZfzA9AE3y/FjQ9AsL8XHTH+OHz9eJmhulLM8dffdd5dxSDlYtBdccIH4vm+55RYhJQwFxhX1MQ4feOAB99xzz4lbgjjGDmNmjz32EOOBSYQwiJ0ngCn/nHPOkasA/vGbqy8Z4tcxq+NCzx0mB9pw7rnnCpFCfvi5cfnJst0wW6vWreSVEbhK0Iu2cQwoC93QgcmKeEgYfdCPB9oYo7SJcxESxg1Eu3g+45prronrwbHERcUKLa52MPRYEXbVVVfJRIPfG18+9XP8mPxYwUUeDCWOM3VwbiEQOERPWvQ0yzy9SIrI9SSCjOlAOtZPQz46CDBQdVBAZEq6nDgaBjQc6ImjHZ0IWibx1Me+D35TBzpi+VC+n4Y8lE89pGNiYNLgpGTpJFYGflXVn7TROvw2Az0psZKwVo499ti41WUknj7o+OCY0if333+/EESvXr3cm1NKbuLhXiANY/qiiy4SIufmphJ5v379xJfNR0d0rEGs9BnkxPMLrJhSIof42OcZCaxQbjzqSieIFiJUtwJlQWRMMErkgHAlct6qqUSuou1BuHHbp08fd+WVV8pEA/Fh3TK2mFBq1azlWh7c0t14443yYBzHAAucK02OBfqwAgfXHnqhM21nssFCZ8wj6MTVC2P9mWeeESK/9tprRQfiOb9oy7hx48Qfzrv/sbAhe5be4gvnxic68cwGvMGx5vxhAmECwHVDWRxD9OZeAm4u2mvnRZoRdlwQWtdBOJCD0aNHB+FBDwhDoghJT8IXLFgQhBZAEJJkEHZIKQmJUsJVws6SrYaHVVZINB/bqGg9uu+LptEydF9F0+m+loOoniqE+WWqhIM8HheeAEF4CR307NkzCE+oIJwU5BhyrAzpBWOPY4uEE3UwatSoYMyYMfI7f1F+EJKa9ENILBIeEmHw6KOPBl27dpU0s2bNCjp27Bjk5eUFIYlLefSTSkhQQdu2bYPCgsJ4XDjBS97wKis477zzgrlz5wYhOUl+dCCNpF2zNihaWxQsXLgwGDhwoNRLOuKQsWPHBuEkEixfvjzeFuI1v7Zr+vTpQZs2beI6EaZlkJew0JIOQus3CK86gqFDhwZ9+/YN5s+fHy8DvZYtWxaElnAQTk5BSL4yNn19tHzaE05ewYgRIyTc1yk/Pz+46667gi5dukhYOBGKbtRL+2fOnBmcdNJJweDBg4Pu3bvL2A+vHoKmTZuKPn5ZxUUl9ap+xBnSh6ScVCF5iWCJhB1UyqpQCTsrlroEpAeEE19RJCoLEB4Ognj9pPGFMK1Ht6o3Ql4EkF73FVqOn4Z8IbHL5SmWDTdusIDwG2KJYB1hneCnJB3pw0lB8hvSBz2u2j9csnPlxT73XugbrGeW4mFt824fvbQPCUTScfWFcBNQwThhPFEuliZ1kJ7f4WQdH0e43rA6eXpZhStT/NRq3bOlfPTSsYhQN+46XEDk48lktqxj13i21El+yuG3f57RNq2DcxA9sdrxi9NWdCY9ZVEOwnjEN85VBssw8a9zdcBrmrHWSUse/Prh5CP+bdLhXiIcYWUL6SgfC546KZd3DnHVQXqOG/WRHv2w8gmnPOocffdoueJBb22PIX1I6mYnB58wOhM/GcukomnSjfLKr2y8j7IGGMeDS1YuySFufIssM8NfyiU5/khurFIXaVUMGwb0EaQBQTG5sowOwqUPcAkwnlldgosBgiGOG3mQKy4X9nFXcI0mK1rCfoOoIBnu/Rx/wvFCRvQheRHIi/ogTVwO7CPcaOQGf+NdGks66sBHjesG/7nUEZZDHvzVuPCogxUonEfoTlrqJx26Uy5Ggb6LKDqGmThYHUP5PKxDPsZk/Qb142MYlwfhkC9LCKkTHdhnNQtuRFwr3DDlGKEPx4Y4zmvyHnjAgdJe9vHB0zbyoxuTCmSODkxGrMzBuOEYUgbtpB2kR2g7/n5cTuryTObcNKwfSfnIOXkIY+0ufjxmdDoEJCJAHzrAkkVUh2gZlY0vD+TnBOVk5c2H+GAZrNxwJZzllGuL1srA9o9FtF5DesCxVasPkoGwmGQBx58wRP3FECMkDImoRQmBKUmSh3ENKFeJmX0mBQi2Zm5NV1BYIEQI/L6F3PBjb9FwC1kWSVnUQbnciOVcYh+yJBwwbiiXtpCXsUQ5pCOM1S34kyE86oqOWa4M8LNTPmXSPvz2tIk2cmy0XvSBVEkDtDzSNKjfQFaHEUfbNI4yuFG5/XbbS7uxyCFqwiF8fN8cEyZB6oGoOc4cN84NJjI9pgray0SLzqzkIS/6GdKDpFetAAY7N5i4VGJQko6OYxAkGnggUVhFENUhWk40HvhpyosvDww2ThpuLHEpTHkMVk4aIfLwhKc80umxMGw4cKwZhwjHHIEECYfUGYf0AX2h6VW0fyAkxriOc42nLC2bflWyYuUJkzXx5Jdt+BfmkoeSiNN+1zTooTpq+UwMQNMSpucN9RGOQUCZhLHahfwliUMhW2wLEZOeNpGG/DoeEcoFamCgL9+wFYRl6KRDGaoP0PZzbFR/oFvyUD43LylDjyFpVRcfftm0iXRsE6U1pI6kjiQdwCBjVuWkUUQ7yxcNSxd04KkkQjLxiUTTMNAQrJHzzz9f9hmIWHoMRMBA5gTV3+lsq6EE/nhC6Bt83OxDKvQLx1/JS8MhO5/Y2ALILdpflMk+ZdGfWMOswSaMP8LD0SFpNUz+w33NizA+tD4NB+wTp/FsVV8s1Nq1SlakSFhYDaRLnVFQL2lEH69exiG/CWef87NO7TqaqWQTSys6hf+0R48LxwpRvdHPz6O6sy/HOiRxv02AvCoyGYXi/wbkVV0N6UNSRE4nYKFA5D6ZKWSARJAoLNPBINOTgnbyIBPLv3QgGzYe/L6BzJUYkLL29beM17D76EOVsqD1UIduqVMJVASyDc+HaF1lieqAaFnrk3g9sbrYEu7Xxz7hqrPGaT2iP3lj+bUscW1UQPd4OQkkkb7xYxufPUpEQiLHe33H35Ackr62obOwWPDh4YfUwaGo7p2j7WNgAm5GcWeedhGOGDYuZLyF/0pEKj7xRPf1t09o5YE0WocSXzQv40TrSVW0bJEYIfqiiIZHRdOoTusr00+HlEfayYrUqRNIgmMe/W2oHJIicixSvVSC4HjgQGbfLJpZGVwMRC5NuRHFy35YEeC33SyJjQ8lAl+iSJRGpTyUlc4vI1H8hkBV1eW3a0OLIb1I2rUCiUFqrKVm2ZQiWzqH9uEzhMh51Jibv2qJ03620UEZFUN6kegYI5VBovJ8MRiqE1JyrXAZxtpp3CvZNughci4LWYd86aWXyoqVKOxENxgMmYSkiBy3gr46ljv/vCcZ90M2AYublwv17t1bHhzRO/IGg8GQqUjJtcIyJcCL+XkaFFRnv7FeTmOJ87AD73/m7XOrVq6SNccGg8GQyUjataJ3wSFuHueXR4Pr//87fNURtAdLnO8S8qpNvvYfUru4kIgzGAyGTEZKLKUvy8dC530j+Mv1JmB1BJMSvnBegsVrSnncGpcKn+AyGAyGTEdqRB5a5ZA2PnPecYyLhZcX8bu6gQmIl/bz7hhe3E87eOSaBxiYqNSdZDAYDJmKlP0GWOX4yvEh446A0HFFVCdA0o0bN3aXXXaZGzBgQHwygtxVaFN1vdIwGAz/DVTKAQzJIbyakq+xKJnjV4b8VDYWsKRV9Df6sUacd2ng4x8yZIi7st+VEobeaoFrHoPBYMh0VIrI1ZUCWfOOYj6jxfcQlQR9Mt+YhK5ABx72gbDxh/MifZ7cNBgMhuqMlImc9ydgvUKOfNGEV7t26dJFbhbyzm5J45G4L1UFXY2C6FUCN2b5agnfOuSl+rJOPFQpqiNiMBgM1QGVssghcgiSl2fxgBAWOqtY+FJ4p06dYqk2HqFzZQBRY4XzbphBgwbJxyHw6aMvCDWRrcFgMFRXVIrIfTKG1PEzI+3atXMjR46UL4HzYi3IFJJXHzT52E8En+j98hWQM3UoEfMbvzeTCevZKR+Ql3Ce0hw6dKibOHGiu/7668UKJ5x40vLOabXWy6rTYDAYMhmVIvJEgLQhSL7lx0qQCRMmuDPPPFM+ZyVrs3FlhCANLg8l9ooA0iYtkwL7OhlgcePe4RNfxDF5dOvWTT4Ay0dkWZWy6667xl0sPoy8DQZDdUdSn3qrCJSsIVr9zff88vLy5AvkU6dOdXPmzJE4TePXo2FlASKGrIGflpUzfACCNe2tWrWSd8BgpfPVFSB6FRfFJw9gBG4wGLIBaSVyJXDyQbb8Vsub9eZ8BJaPxfLNzxkzZojMnj1bPvy6ZMkSyVcekfPhXNZ7N2vWTNwk3FjF+pcPXdQt+eBu7Toln6GjLJ/41aWiMCI3GAzZgLQSuZKwErL/G/AbUlVXCF/n1q+c85VxfuvXvhVMAKz5xv+Ne4bPzG1SZxNXt15d8ZMTxlat7ESI6lEWNhSxa/2VwYbSzWAwVH+k3bVSFpTM4l8Ij4E6whAheMR3y0hcuI9VjfBbfeq+r5s0fh5/69dVHjRPupGMDmVhQ+lmMBiqP9J+s7MslEVESsIIaXDD6OoXJhSIW0mcraZV4i8uin1+LfbVbuJShZYdFYPBYMhkVBmRl4kYv/PuFnmrYvinFrj61xH1b/MHYceJPCZxGO8aDIb/GITI8UNDlviaIUue0sSPLdauWrxpsFCFiGuERK1f94692xzCZj23ihK5xvm/RWL5dF/cLZEvdhsMBsN/BXEfea9eveSlV7xAKqRrl1sjJNCQJCVRSIxC4PxD5mkye9XCLg7+b1FrGPDDfaxvMklE4pWdfNKBTNDBYDBkJ3JCazzgQZr+/fvLMsDBgwfLcj4scvzUSiJKRJUhpESAtKMTQ7ROHxWp3ye+dOhbWSLNBB0MBkP2IqewsDDANTFr1iw3fPhw+cgC3+Fs1KhRfPWKAjJJN6FQXpTotI5UiDyqnxG5wWDIbjj3P2WF/YQHfYsrAAAAAElFTkSuQmCC;" vertex="1" parent="1">
          <mxGeometry x="640" y="144" width="330" height="66" as="geometry" />
        </mxCell>
      </root>
    </mxGraphModel>
  </diagram>
</mxfile>
